<svg version="1.2" xmlns="http://www.w3.org/2000/svg" viewBox="0 0 729 386" width="729" height="386">
	<title>FRDR_acronym_english_reversed</title>
	<style>
		.s0 { fill: #fbfafa } 
		.s1 { fill: #dda800 } 
	</style>
	<g id="Layer">
		<path id="Layer" class="s0" d="m432.4 176v-19.7h-70.8v90.3h25.5v-30.9h39.9v-19.8h-39.9v-19.9h45.3z"/>
		<path id="Layer" fill-rule="evenodd" class="s0" d="m483.6 222.6h-14v24h-25.5v-90.3h41.3q12.4 0 21.3 4 9 4 13.9 11.5 4.9 7.6 4.9 17.9 0 10.2-4.9 17.6-4.6 7-12.8 10.9l19.5 28.4h-27.3c0 0-16.4-24-16.4-24zm0.2-46.2h-14.2v26.5h14.2q8 0 12-3.5 3.9-3.5 3.9-9.7 0-6.3-3.9-9.8-4-3.5-12-3.5z"/>
		<path id="Layer" fill-rule="evenodd" class="s0" d="m632.3 201.5q0 13.8-6.4 23.9-6.3 10.1-17.7 15.7-11.4 5.5-26.3 5.5h-42.8v-90.3h42.8q14.9 0 26.3 5.5 11.4 5.6 17.7 15.6 6.4 10.1 6.4 24.1zm-25.8 0q0-7.9-3.2-13.5-3.2-5.5-9-8.4-5.7-2.9-13.5-2.9h-16.1v49.5h16.1q7.8 0 13.5-2.9 5.8-2.9 9-8.5 3.2-5.6 3.2-13.3z"/>
		<path id="Layer" fill-rule="evenodd" class="s0" d="m684.5 222.6h-14v24h-25.5v-90.3h41.3q12.4 0 21.3 4 9 4 13.9 11.5 4.9 7.6 4.9 17.9 0 10.2-4.9 17.6-4.6 7-12.8 10.9l19.5 28.4h-27.3c0 0-16.4-24-16.4-24zm0.2-46.2h-14.2v26.5h14.2q8 0 12-3.5 3.9-3.5 3.9-9.7 0-6.3-3.9-9.8-4-3.5-12-3.5z"/>
	</g>
	<g id="Layer">
		<path id="Layer" class="s1" d="m237.2 195.8l30.1 30.1-30.1 30.2-30.1-30.2z"/>
		<path id="Layer" class="s1" d="m35.8 80.7l-35.3 35.3 31.4 31.4-26.2 26.2 22.5 22.5-27.7 27.7 35.3 35.2 35.2-35.2-27.6-27.7 22.5-22.5-26.2-26.2 31.3-31.4-35.2-35.3z"/>
		<path id="Layer" class="s1" d="m106.3 262.8l21.2 21.2-21.2 21.2-21.2-21.2z"/>
		<g id="Layer">
			<path id="Layer" class="s1" d="m170.7 251.9l26-25.9-28.5-28.5 19.5-19.6-21.2-21.1-21.1 21.1 19.5 19.6-28.5 28.5 26 25.9-31.1 31.1 35.2 35.3 35.3-35.3-31.1-31.1z"/>
			<path id="Layer" class="s1" d="m110.5 200l31.1-31.1-26.5-26.4 26.5-26.5-35.3-35.3-35.2 35.3 26.4 26.5-26.4 26.4 31.1 31.1-26 26 30.1 30.1 30.1-30.1-25.9-26z"/>
		</g>
		<path id="Layer" class="s1" d="m237.2 146.7l21.2 21.2-21.2 21.2-21.2-21.2z"/>
		<path id="Layer" class="s1" d="m106.3 321.9l13.4 13.5-13.4 13.4-13.4-13.4z"/>
		<path id="Layer" class="s1" d="m106.3 0.2l13.4 13.4-13.4 13.4-13.4-13.4z"/>
		<path id="Layer" class="s1" d="m106.3 359.2l13.4 13.4-13.4 13.4-13.4-13.4z"/>
		<path id="Layer" class="s1" d="m237.2 281.9l13.4 13.4-13.4 13.4-13.4-13.4z"/>
		<path id="Layer" class="s1" d="m35.8 38l13.4 13.4-13.4 13.5-13.4-13.5z"/>
		<path id="Layer" class="s1" d="m166.5 356.2l-13.4-13.4 13.4-13.4 13.5 13.4z"/>
		<path id="Layer" class="s1" d="m35.8 266.7l13.4 13.4-13.4 13.5-13.4-13.5z"/>
		<path id="Layer" class="s1" d="m106.3 32.7l21.2 21.2-21.2 21.1-21.2-21.1z"/>
		<path id="Layer" class="s1" d="m237.2 94.3l21.2 21.2-21.2 21.2-21.2-21.2z"/>
	</g>
</svg>