<?xml version="1.0" encoding="UTF-8"?><svg id="a" xmlns="http://www.w3.org/2000/svg" viewBox="0 0 1920 846.16"><defs><style>.b{fill:#fbfafa;}.c{fill:#dda800;}</style></defs><g><g><path class="b" d="M255.46,526.7v-38.48h21.93v3.28h-18.16v13.55h16.1v3.28h-16.1v18.38h-3.78Z"/><path class="b" d="M279.89,512.32c0-2.52,.36-4.71,1.08-6.58,.72-1.87,1.66-3.43,2.83-4.69,1.17-1.26,2.5-2.19,4-2.8s3.04-.92,4.64-.92c3.52,0,6.32,1.15,8.41,3.44,2.09,2.3,3.14,5.83,3.14,10.6,0,.3,0,.59-.03,.89-.02,.3-.05,.57-.08,.83h-20.15c.11,3.52,.98,6.22,2.61,8.11,1.63,1.89,4.22,2.83,7.77,2.83,1.96,0,3.52-.18,4.66-.56,1.15-.37,1.98-.68,2.5-.94l.67,3.11c-.52,.3-1.49,.65-2.91,1.05-1.43,.41-3.1,.61-5.03,.61-2.52,0-4.66-.37-6.44-1.11-1.78-.74-3.24-1.78-4.38-3.11-1.15-1.33-1.98-2.91-2.5-4.75-.52-1.83-.78-3.84-.78-6.02Zm20.38-2.28c-.08-3-.78-5.33-2.11-7-1.33-1.67-3.22-2.5-5.66-2.5-1.3,0-2.45,.26-3.47,.78-1.02,.52-1.91,1.21-2.66,2.08-.76,.87-1.35,1.88-1.78,3.03-.43,1.15-.68,2.35-.75,3.61h16.43Z"/><path class="b" d="M332.69,525.81c-1.07,.37-2.44,.72-4.11,1.05s-3.78,.5-6.33,.5c-2.11,0-4.02-.34-5.75-1.03-1.72-.68-3.2-1.67-4.44-2.97-1.24-1.29-2.2-2.87-2.89-4.72-.68-1.85-1.03-3.94-1.03-6.27,0-2.18,.29-4.19,.86-6.02,.57-1.83,1.42-3.41,2.53-4.75s2.47-2.37,4.08-3.11c1.61-.74,3.45-1.11,5.53-1.11,1.89,0,3.52,.27,4.91,.81,1.39,.54,2.4,1.05,3.03,1.53v-15.43l3.61-.67v42.2Zm-3.61-22.6c-.33-.26-.75-.54-1.25-.83-.5-.3-1.08-.57-1.75-.83-.67-.26-1.39-.47-2.16-.64s-1.59-.25-2.44-.25c-1.78,0-3.27,.31-4.47,.94-1.2,.63-2.17,1.47-2.91,2.53-.74,1.05-1.28,2.3-1.61,3.72-.33,1.43-.5,2.93-.5,4.52,0,3.78,.94,6.67,2.83,8.69,1.89,2.02,4.39,3.03,7.5,3.03,1.78,0,3.21-.08,4.3-.25,1.09-.17,1.92-.34,2.47-.53v-20.1Z"/><path class="b" d="M338.29,512.32c0-2.52,.36-4.71,1.08-6.58,.72-1.87,1.66-3.43,2.83-4.69,1.17-1.26,2.5-2.19,4-2.8s3.04-.92,4.64-.92c3.52,0,6.32,1.15,8.41,3.44,2.09,2.3,3.14,5.83,3.14,10.6,0,.3,0,.59-.03,.89-.02,.3-.05,.57-.08,.83h-20.15c.11,3.52,.98,6.22,2.61,8.11,1.63,1.89,4.22,2.83,7.77,2.83,1.96,0,3.52-.18,4.66-.56,1.15-.37,1.98-.68,2.5-.94l.67,3.11c-.52,.3-1.49,.65-2.91,1.05-1.43,.41-3.1,.61-5.03,.61-2.52,0-4.66-.37-6.44-1.11-1.78-.74-3.24-1.78-4.38-3.11-1.15-1.33-1.98-2.91-2.5-4.75-.52-1.83-.78-3.84-.78-6.02Zm20.38-2.28c-.08-3-.78-5.33-2.11-7-1.33-1.67-3.22-2.5-5.66-2.5-1.3,0-2.45,.26-3.47,.78-1.02,.52-1.91,1.21-2.66,2.08-.76,.87-1.35,1.88-1.78,3.03-.43,1.15-.68,2.35-.75,3.61h16.43Z"/><path class="b" d="M377.61,497.44c1.18,0,2.3,.09,3.36,.28,1.06,.19,1.79,.37,2.19,.55l-.72,3.11c-.3-.15-.9-.31-1.8-.47s-2.1-.25-3.58-.25c-1.56,0-2.8,.11-3.75,.33-.94,.22-1.56,.41-1.86,.56v25.15h-3.61v-27.37c.93-.41,2.2-.82,3.83-1.25,1.63-.43,3.61-.64,5.94-.64Z"/><path class="b" d="M395.07,497.33c1.89,0,3.49,.27,4.8,.8,1.31,.54,2.38,1.28,3.19,2.22,.81,.94,1.41,2.06,1.78,3.36,.37,1.3,.56,2.7,.56,4.22v18.1c-.37,.11-.91,.23-1.61,.36-.7,.13-1.52,.27-2.44,.42s-1.95,.27-3.08,.36c-1.13,.09-2.29,.14-3.47,.14-1.52,0-2.91-.17-4.19-.5-1.28-.33-2.39-.86-3.33-1.58s-1.68-1.65-2.22-2.78c-.54-1.13-.8-2.51-.8-4.14s.3-2.89,.89-4c.59-1.11,1.43-2.03,2.5-2.75,1.07-.72,2.35-1.25,3.83-1.58,1.48-.33,3.09-.5,4.83-.5,.52,0,1.06,.03,1.64,.08,.57,.06,1.13,.13,1.67,.22,.54,.09,1,.19,1.39,.28,.39,.09,.66,.18,.8,.25v-1.78c0-1-.08-1.97-.22-2.91-.15-.94-.47-1.79-.97-2.55-.5-.76-1.2-1.37-2.11-1.83-.91-.46-2.1-.69-3.58-.69-2.11,0-3.68,.15-4.72,.44-1.04,.3-1.79,.54-2.28,.72l-.5-3.16c.63-.3,1.6-.57,2.91-.83,1.31-.26,2.9-.39,4.75-.39Zm.33,26.76c1.41,0,2.64-.05,3.69-.14,1.06-.09,1.95-.21,2.69-.36v-10.1c-.41-.18-1.06-.38-1.94-.58-.89-.2-2.11-.31-3.66-.31-.89,0-1.81,.07-2.78,.19-.96,.13-1.85,.41-2.66,.83-.81,.43-1.48,1.01-2,1.75-.52,.74-.78,1.72-.78,2.94,0,1.07,.17,1.98,.53,2.72,.35,.74,.85,1.33,1.5,1.78s1.43,.77,2.33,.97c.91,.2,1.93,.31,3.08,.31Z"/><path class="b" d="M415.66,497.99h11.44v3.05h-11.44v15.27c0,1.63,.14,2.95,.42,3.97,.28,1.02,.67,1.8,1.19,2.36,.52,.56,1.15,.93,1.89,1.11,.74,.19,1.55,.28,2.44,.28,1.52,0,2.74-.18,3.66-.53,.93-.35,1.65-.68,2.17-.97l.89,3c-.52,.33-1.43,.71-2.72,1.14-1.3,.43-2.7,.64-4.22,.64-1.78,0-3.27-.23-4.47-.69-1.2-.46-2.17-1.17-2.89-2.11-.72-.94-1.23-2.12-1.53-3.53-.3-1.41-.44-3.07-.44-5v-26.43l3.61-.67v9.11Z"/><path class="b" d="M429.64,512.32c0-2.52,.36-4.71,1.08-6.58,.72-1.87,1.66-3.43,2.83-4.69,1.17-1.26,2.5-2.19,4-2.8s3.04-.92,4.64-.92c3.52,0,6.32,1.15,8.41,3.44,2.09,2.3,3.14,5.83,3.14,10.6,0,.3,0,.59-.03,.89-.02,.3-.05,.57-.08,.83h-20.15c.11,3.52,.98,6.22,2.61,8.11,1.63,1.89,4.22,2.83,7.77,2.83,1.96,0,3.52-.18,4.66-.56,1.15-.37,1.98-.68,2.5-.94l.67,3.11c-.52,.3-1.49,.65-2.91,1.05-1.43,.41-3.1,.61-5.03,.61-2.52,0-4.66-.37-6.44-1.11-1.78-.74-3.24-1.78-4.38-3.11-1.15-1.33-1.98-2.91-2.5-4.75-.52-1.83-.78-3.84-.78-6.02Zm20.38-2.28c-.08-3-.78-5.33-2.11-7-1.33-1.67-3.22-2.5-5.66-2.5-1.3,0-2.45,.26-3.47,.78-1.02,.52-1.91,1.21-2.66,2.08-.76,.87-1.35,1.88-1.78,3.03-.43,1.15-.68,2.35-.75,3.61h16.43Z"/><path class="b" d="M482.44,525.81c-1.07,.37-2.44,.72-4.11,1.05s-3.78,.5-6.33,.5c-2.11,0-4.02-.34-5.75-1.03-1.72-.68-3.2-1.67-4.44-2.97-1.24-1.29-2.2-2.87-2.89-4.72-.68-1.85-1.03-3.94-1.03-6.27,0-2.18,.29-4.19,.86-6.02,.57-1.83,1.42-3.41,2.53-4.75s2.47-2.37,4.08-3.11c1.61-.74,3.45-1.11,5.53-1.11,1.89,0,3.52,.27,4.91,.81,1.39,.54,2.4,1.05,3.03,1.53v-15.43l3.61-.67v42.2Zm-3.61-22.6c-.33-.26-.75-.54-1.25-.83-.5-.3-1.08-.57-1.75-.83-.67-.26-1.39-.47-2.16-.64s-1.59-.25-2.44-.25c-1.78,0-3.27,.31-4.47,.94-1.2,.63-2.17,1.47-2.91,2.53-.74,1.05-1.28,2.3-1.61,3.72-.33,1.43-.5,2.93-.5,4.52,0,3.78,.94,6.67,2.83,8.69,1.89,2.02,4.39,3.03,7.5,3.03,1.78,0,3.21-.08,4.3-.25,1.09-.17,1.92-.34,2.47-.53v-20.1Z"/><path class="c" d="M511.97,487.83c5.55,0,9.8,1.02,12.74,3.05,2.94,2.04,4.41,5.15,4.41,9.33,0,5.22-2.57,8.75-7.72,10.6,.7,.85,1.5,1.89,2.39,3.11s1.79,2.55,2.72,3.97c.93,1.43,1.81,2.89,2.66,4.39s1.61,2.97,2.28,4.41h-7.83c-.7-1.33-1.46-2.67-2.28-4.02-.81-1.35-1.64-2.67-2.47-3.94-.83-1.28-1.66-2.48-2.47-3.61-.81-1.13-1.57-2.14-2.28-3.03-.52,.04-.96,.06-1.33,.06h-4.44v14.55h-7v-37.92c1.7-.37,3.51-.62,5.44-.75,1.92-.13,3.65-.19,5.16-.19Zm.5,6.05c-1.48,0-2.85,.06-4.11,.17v12.44h3.05c1.7,0,3.2-.09,4.5-.28,1.29-.18,2.38-.52,3.25-1,.87-.48,1.53-1.13,1.97-1.94,.44-.81,.67-1.85,.67-3.11,0-1.18-.22-2.18-.67-3-.44-.81-1.08-1.46-1.92-1.94s-1.82-.82-2.97-1.03-2.41-.31-3.77-.31Z"/><path class="c" d="M532.82,512.32c0-2.55,.38-4.79,1.14-6.72,.76-1.92,1.77-3.53,3.03-4.8,1.26-1.28,2.7-2.24,4.33-2.89,1.63-.65,3.29-.97,5-.97,4,0,7.11,1.24,9.35,3.72,2.24,2.48,3.36,6.18,3.36,11.1,0,.37,0,.79-.03,1.25-.02,.46-.05,.88-.08,1.25h-19.15c.18,2.33,1.01,4.14,2.47,5.41,1.46,1.28,3.58,1.92,6.36,1.92,1.63,0,3.12-.15,4.47-.44,1.35-.3,2.42-.61,3.19-.94l.89,5.5c-.37,.19-.88,.38-1.53,.58-.65,.2-1.39,.39-2.22,.56-.83,.17-1.73,.31-2.69,.42-.96,.11-1.94,.17-2.94,.17-2.55,0-4.77-.38-6.66-1.14-1.89-.76-3.44-1.81-4.66-3.16-1.22-1.35-2.13-2.94-2.72-4.78-.59-1.83-.89-3.84-.89-6.02Zm19.49-3c0-.93-.13-1.8-.39-2.64-.26-.83-.64-1.55-1.14-2.17-.5-.61-1.11-1.09-1.83-1.44-.72-.35-1.58-.53-2.58-.53s-1.94,.19-2.72,.58c-.78,.39-1.44,.9-1.97,1.53-.54,.63-.95,1.35-1.25,2.17-.3,.81-.5,1.65-.61,2.5h12.49Z"/><path class="c" d="M571.35,521.87c1.78,0,3.07-.21,3.89-.64,.81-.43,1.22-1.16,1.22-2.19,0-.96-.44-1.76-1.3-2.39-.87-.63-2.31-1.31-4.3-2.05-1.22-.44-2.34-.92-3.36-1.42-1.02-.5-1.9-1.08-2.64-1.75s-1.32-1.47-1.75-2.41c-.43-.94-.64-2.1-.64-3.47,0-2.66,.98-4.77,2.94-6.3,1.96-1.54,4.63-2.3,7.99-2.3,1.7,0,3.33,.16,4.89,.47s2.72,.62,3.5,.92l-1.22,5.44c-.74-.33-1.68-.64-2.83-.92-1.15-.28-2.48-.42-4-.42-1.37,0-2.48,.23-3.33,.69-.85,.46-1.28,1.18-1.28,2.14,0,.48,.08,.91,.25,1.28,.17,.37,.45,.71,.86,1.03,.41,.31,.94,.63,1.61,.94,.67,.32,1.48,.64,2.44,.97,1.59,.59,2.94,1.18,4.05,1.75s2.03,1.22,2.75,1.94,1.25,1.55,1.58,2.47,.5,2.04,.5,3.33c0,2.78-1.03,4.88-3.08,6.3-2.05,1.42-4.99,2.14-8.8,2.14-2.55,0-4.61-.21-6.16-.64-1.55-.43-2.65-.77-3.28-1.03l1.17-5.61c1,.41,2.19,.8,3.58,1.17,1.39,.37,2.97,.56,4.75,.56Z"/><path class="c" d="M585.93,512.32c0-2.55,.38-4.79,1.14-6.72,.76-1.92,1.77-3.53,3.03-4.8,1.26-1.28,2.7-2.24,4.33-2.89,1.63-.65,3.29-.97,5-.97,4,0,7.11,1.24,9.35,3.72,2.24,2.48,3.36,6.18,3.36,11.1,0,.37,0,.79-.03,1.25-.02,.46-.05,.88-.08,1.25h-19.15c.18,2.33,1.01,4.14,2.47,5.41,1.46,1.28,3.58,1.92,6.36,1.92,1.63,0,3.12-.15,4.47-.44,1.35-.3,2.42-.61,3.19-.94l.89,5.5c-.37,.19-.88,.38-1.53,.58-.65,.2-1.39,.39-2.22,.56-.83,.17-1.73,.31-2.69,.42-.96,.11-1.94,.17-2.94,.17-2.55,0-4.77-.38-6.66-1.14-1.89-.76-3.44-1.81-4.66-3.16-1.22-1.35-2.13-2.94-2.72-4.78-.59-1.83-.89-3.84-.89-6.02Zm19.49-3c0-.93-.13-1.8-.39-2.64-.26-.83-.64-1.55-1.14-2.17-.5-.61-1.11-1.09-1.83-1.44-.72-.35-1.58-.53-2.58-.53s-1.94,.19-2.72,.58c-.78,.39-1.44,.9-1.97,1.53-.54,.63-.95,1.35-1.25,2.17-.3,.81-.5,1.65-.61,2.5h12.49Z"/><path class="c" d="M626.77,496.94c2.22,0,4.09,.28,5.61,.83,1.52,.56,2.73,1.33,3.64,2.33s1.56,2.21,1.94,3.64c.39,1.43,.58,2.99,.58,4.69v17.6c-1.04,.22-2.6,.49-4.69,.81s-4.45,.47-7.08,.47c-1.74,0-3.33-.17-4.77-.5-1.44-.33-2.67-.87-3.69-1.61-1.02-.74-1.81-1.7-2.39-2.89-.57-1.18-.86-2.65-.86-4.39s.32-3.07,.97-4.22c.65-1.15,1.53-2.08,2.64-2.8,1.11-.72,2.4-1.24,3.86-1.55,1.46-.31,2.99-.47,4.58-.47,.74,0,1.52,.05,2.33,.14,.81,.09,1.68,.25,2.61,.47v-1.11c0-.78-.09-1.52-.28-2.22-.19-.7-.51-1.32-.97-1.86-.46-.54-1.07-.95-1.83-1.25-.76-.3-1.71-.44-2.86-.44-1.55,0-2.98,.11-4.27,.33-1.3,.22-2.35,.48-3.16,.78l-.83-5.44c.85-.3,2.09-.59,3.72-.89,1.63-.3,3.37-.44,5.22-.44Zm.56,25.04c2.07,0,3.65-.11,4.72-.33v-7.44c-.37-.11-.91-.22-1.61-.33-.7-.11-1.48-.17-2.33-.17-.74,0-1.49,.06-2.25,.17-.76,.11-1.44,.31-2.05,.61-.61,.3-1.1,.71-1.47,1.25-.37,.54-.56,1.21-.56,2.03,0,1.59,.5,2.69,1.5,3.3,1,.61,2.35,.92,4.05,.92Z"/><path class="c" d="M661.11,503.71c-.56-.18-1.32-.38-2.3-.58-.98-.2-2.12-.31-3.42-.31-.74,0-1.53,.08-2.36,.22-.83,.15-1.42,.28-1.75,.39v23.26h-6.72v-27.65c1.29-.48,2.91-.93,4.86-1.36,1.94-.43,4.1-.64,6.47-.64,.44,0,.96,.03,1.55,.08,.59,.06,1.18,.13,1.78,.22,.59,.09,1.17,.2,1.72,.33,.56,.13,1,.25,1.33,.36l-1.17,5.66Z"/><path class="c" d="M663.04,512.21c0-2.15,.33-4.15,1-6.02,.67-1.87,1.62-3.49,2.86-4.86,1.24-1.37,2.75-2.44,4.53-3.22,1.78-.78,3.77-1.17,6-1.17,2.74,0,5.33,.5,7.77,1.5l-1.44,5.5c-.78-.33-1.66-.61-2.64-.83-.98-.22-2.03-.33-3.14-.33-2.63,0-4.63,.82-6,2.47-1.37,1.65-2.05,3.97-2.05,6.97s.65,5.17,1.94,6.86c1.29,1.68,3.48,2.53,6.55,2.53,1.15,0,2.28-.11,3.39-.33,1.11-.22,2.07-.5,2.89-.83l.94,5.55c-.74,.37-1.86,.7-3.36,1-1.5,.3-3.04,.44-4.64,.44-2.48,0-4.64-.38-6.47-1.14-1.83-.76-3.35-1.81-4.55-3.16-1.2-1.35-2.1-2.96-2.69-4.83-.59-1.87-.89-3.9-.89-6.08Z"/><path class="c" d="M689.11,526.7v-41.97l6.72-1.11v14.38c.74-.26,1.6-.48,2.58-.67,.98-.18,1.95-.28,2.91-.28,2.33,0,4.27,.32,5.8,.97,1.54,.65,2.77,1.55,3.69,2.72s1.58,2.56,1.97,4.19c.39,1.63,.58,3.44,.58,5.44v16.32h-6.72v-15.27c0-1.55-.1-2.88-.3-3.97-.2-1.09-.54-1.98-1-2.66-.46-.68-1.08-1.18-1.86-1.5-.78-.31-1.74-.47-2.89-.47-.89,0-1.8,.09-2.72,.28-.93,.19-1.61,.35-2.05,.5v23.1h-6.72Z"/><path class="c" d="M361.32,562.95c0,3.33-.52,6.23-1.55,8.69-1.04,2.46-2.51,4.52-4.41,6.16-1.91,1.65-4.2,2.87-6.88,3.66-2.68,.8-5.66,1.19-8.91,1.19-1.56,0-3.31-.07-5.27-.19-1.96-.13-3.83-.4-5.61-.81v-37.36c1.78-.41,3.66-.67,5.66-.78,2-.11,3.78-.17,5.33-.17,3.22,0,6.16,.38,8.83,1.14,2.66,.76,4.95,1.94,6.86,3.55,1.91,1.61,3.38,3.65,4.41,6.11,1.04,2.46,1.55,5.39,1.55,8.8Zm-25.65,13.49c.41,.04,.94,.07,1.61,.08,.67,.02,1.57,.03,2.72,.03,4.7,0,8.21-1.19,10.52-3.58,2.31-2.39,3.47-5.73,3.47-10.02s-1.13-7.72-3.39-10.05-5.75-3.5-10.49-3.5c-2.07,0-3.55,.06-4.44,.17v26.87Z"/><path class="c" d="M375.94,552.46c2.22,0,4.09,.28,5.61,.83,1.52,.56,2.73,1.33,3.64,2.33s1.56,2.21,1.94,3.64c.39,1.43,.58,2.99,.58,4.69v17.6c-1.04,.22-2.6,.49-4.69,.81s-4.45,.47-7.08,.47c-1.74,0-3.33-.17-4.77-.5-1.44-.33-2.67-.87-3.69-1.61-1.02-.74-1.81-1.7-2.39-2.89-.57-1.18-.86-2.65-.86-4.39s.32-3.07,.97-4.22c.65-1.15,1.53-2.08,2.64-2.8,1.11-.72,2.4-1.24,3.86-1.55,1.46-.31,2.99-.47,4.58-.47,.74,0,1.52,.05,2.33,.14,.81,.09,1.68,.25,2.61,.47v-1.11c0-.78-.09-1.52-.28-2.22-.19-.7-.51-1.32-.97-1.86-.46-.54-1.07-.95-1.83-1.25-.76-.3-1.71-.44-2.86-.44-1.55,0-2.98,.11-4.27,.33-1.3,.22-2.35,.48-3.16,.78l-.83-5.44c.85-.3,2.09-.59,3.72-.89,1.63-.3,3.37-.44,5.22-.44Zm.56,25.04c2.07,0,3.65-.11,4.72-.33v-7.44c-.37-.11-.91-.22-1.61-.33-.7-.11-1.48-.17-2.33-.17-.74,0-1.49,.06-2.25,.17-.76,.11-1.44,.31-2.05,.61-.61,.3-1.1,.71-1.47,1.25-.37,.54-.56,1.21-.56,2.03,0,1.59,.5,2.69,1.5,3.3,1,.61,2.35,.92,4.05,.92Z"/><path class="c" d="M393.4,545.52l6.72-1.11v8.77h10.33v5.61h-10.33v11.83c0,2.33,.37,4,1.11,5,.74,1,2,1.5,3.78,1.5,1.22,0,2.3-.13,3.25-.39,.94-.26,1.69-.5,2.25-.72l1.11,5.33c-.78,.33-1.79,.68-3.05,1.03s-2.74,.53-4.44,.53c-2.07,0-3.8-.28-5.19-.83-1.39-.56-2.49-1.36-3.3-2.42-.81-1.05-1.39-2.33-1.72-3.83-.33-1.5-.5-3.21-.5-5.14v-25.15Z"/><path class="c" d="M425.08,552.46c2.22,0,4.09,.28,5.61,.83,1.52,.56,2.73,1.33,3.64,2.33s1.56,2.21,1.94,3.64c.39,1.43,.58,2.99,.58,4.69v17.6c-1.04,.22-2.6,.49-4.69,.81s-4.45,.47-7.08,.47c-1.74,0-3.33-.17-4.77-.5-1.44-.33-2.67-.87-3.69-1.61-1.02-.74-1.81-1.7-2.39-2.89-.57-1.18-.86-2.65-.86-4.39s.32-3.07,.97-4.22c.65-1.15,1.53-2.08,2.64-2.8,1.11-.72,2.4-1.24,3.86-1.55,1.46-.31,2.99-.47,4.58-.47,.74,0,1.52,.05,2.33,.14,.81,.09,1.68,.25,2.61,.47v-1.11c0-.78-.09-1.52-.28-2.22-.19-.7-.51-1.32-.97-1.86-.46-.54-1.07-.95-1.83-1.25-.76-.3-1.71-.44-2.86-.44-1.55,0-2.98,.11-4.27,.33-1.3,.22-2.35,.48-3.16,.78l-.83-5.44c.85-.3,2.09-.59,3.72-.89,1.63-.3,3.37-.44,5.22-.44Zm.56,25.04c2.07,0,3.65-.11,4.72-.33v-7.44c-.37-.11-.91-.22-1.61-.33-.7-.11-1.48-.17-2.33-.17-.74,0-1.49,.06-2.25,.17-.76,.11-1.44,.31-2.05,.61-.61,.3-1.1,.71-1.47,1.25-.37,.54-.56,1.21-.56,2.03,0,1.59,.5,2.69,1.5,3.3,1,.61,2.35,.92,4.05,.92Z"/><path class="c" d="M465.83,543.35c5.55,0,9.8,1.02,12.74,3.05,2.94,2.04,4.41,5.15,4.41,9.33,0,5.22-2.57,8.75-7.72,10.6,.7,.85,1.5,1.89,2.39,3.11s1.79,2.55,2.72,3.97c.93,1.43,1.81,2.89,2.66,4.39s1.61,2.97,2.28,4.41h-7.83c-.7-1.33-1.46-2.67-2.28-4.02-.81-1.35-1.64-2.67-2.47-3.94-.83-1.28-1.66-2.48-2.47-3.61-.81-1.13-1.57-2.14-2.28-3.03-.52,.04-.96,.06-1.33,.06h-4.44v14.55h-7v-37.92c1.7-.37,3.51-.62,5.44-.75,1.92-.13,3.65-.19,5.16-.19Zm.5,6.05c-1.48,0-2.85,.06-4.11,.17v12.44h3.05c1.7,0,3.2-.09,4.5-.28,1.29-.18,2.38-.52,3.25-1,.87-.48,1.53-1.13,1.97-1.94,.44-.81,.67-1.85,.67-3.11,0-1.18-.22-2.18-.67-3-.44-.81-1.08-1.46-1.92-1.94s-1.82-.82-2.97-1.03-2.41-.31-3.77-.31Z"/><path class="c" d="M486.68,567.84c0-2.55,.38-4.79,1.14-6.72,.76-1.92,1.77-3.53,3.03-4.8,1.26-1.28,2.7-2.24,4.33-2.89,1.63-.65,3.29-.97,5-.97,4,0,7.11,1.24,9.35,3.72,2.24,2.48,3.36,6.18,3.36,11.1,0,.37,0,.79-.03,1.25-.02,.46-.05,.88-.08,1.25h-19.15c.18,2.33,1.01,4.14,2.47,5.41,1.46,1.28,3.58,1.92,6.36,1.92,1.63,0,3.12-.15,4.47-.44,1.35-.3,2.42-.61,3.19-.94l.89,5.5c-.37,.19-.88,.38-1.53,.58-.65,.2-1.39,.39-2.22,.56-.83,.17-1.73,.31-2.69,.42-.96,.11-1.94,.17-2.94,.17-2.55,0-4.77-.38-6.66-1.14-1.89-.76-3.44-1.81-4.66-3.16-1.22-1.35-2.13-2.94-2.72-4.78-.59-1.83-.89-3.84-.89-6.02Zm19.49-3c0-.93-.13-1.8-.39-2.64-.26-.83-.64-1.55-1.14-2.17-.5-.61-1.11-1.09-1.83-1.44-.72-.35-1.58-.53-2.58-.53s-1.94,.19-2.72,.58c-.78,.39-1.44,.9-1.97,1.53-.54,.63-.95,1.35-1.25,2.17-.3,.81-.5,1.65-.61,2.5h12.49Z"/><path class="c" d="M543.86,567.73c0,2.22-.29,4.26-.86,6.11-.57,1.85-1.4,3.44-2.47,4.77s-2.41,2.37-4.02,3.11c-1.61,.74-3.43,1.11-5.47,1.11-1.37,0-2.63-.17-3.78-.5-1.15-.33-2.09-.7-2.83-1.11v11.27h-6.72v-38.36c1.37-.37,3.05-.72,5.05-1.06,2-.33,4.11-.5,6.33-.5s4.35,.35,6.16,1.05c1.81,.7,3.36,1.71,4.64,3.03,1.28,1.31,2.26,2.91,2.94,4.77,.68,1.87,1.03,3.97,1.03,6.3Zm-6.89,.11c0-3-.68-5.33-2.03-7-1.35-1.67-3.53-2.5-6.52-2.5-.63,0-1.29,.03-1.97,.08-.69,.06-1.36,.18-2.03,.36v16.6c.59,.41,1.38,.79,2.36,1.14,.98,.35,2.03,.53,3.14,.53,2.44,0,4.23-.83,5.36-2.5,1.13-1.67,1.69-3.9,1.69-6.72Z"/><path class="c" d="M575.03,567.67c0,2.3-.33,4.39-1,6.27-.67,1.89-1.61,3.5-2.83,4.83-1.22,1.33-2.69,2.37-4.41,3.11-1.72,.74-3.62,1.11-5.69,1.11s-3.96-.37-5.66-1.11c-1.7-.74-3.16-1.78-4.39-3.11-1.22-1.33-2.17-2.94-2.86-4.83-.69-1.89-1.03-3.98-1.03-6.27s.34-4.38,1.03-6.25c.68-1.87,1.65-3.47,2.89-4.8,1.24-1.33,2.71-2.36,4.41-3.08s3.57-1.08,5.61-1.08,3.91,.36,5.63,1.08,3.19,1.75,4.41,3.08,2.17,2.93,2.86,4.8c.68,1.87,1.03,3.95,1.03,6.25Zm-6.88,0c0-2.89-.62-5.17-1.86-6.86-1.24-1.68-2.97-2.53-5.19-2.53s-3.95,.84-5.19,2.53c-1.24,1.69-1.86,3.97-1.86,6.86s.62,5.24,1.86,6.94c1.24,1.7,2.97,2.55,5.19,2.55s3.95-.85,5.19-2.55c1.24-1.7,1.86-4.02,1.86-6.94Z"/><path class="c" d="M587.1,577.39c1.78,0,3.07-.21,3.89-.64,.81-.43,1.22-1.16,1.22-2.19,0-.96-.44-1.76-1.3-2.39-.87-.63-2.31-1.31-4.3-2.05-1.22-.44-2.34-.92-3.36-1.42-1.02-.5-1.9-1.08-2.64-1.75s-1.32-1.47-1.75-2.41c-.43-.94-.64-2.1-.64-3.47,0-2.66,.98-4.77,2.94-6.3,1.96-1.54,4.63-2.3,7.99-2.3,1.7,0,3.33,.16,4.89,.47s2.72,.62,3.5,.92l-1.22,5.44c-.74-.33-1.68-.64-2.83-.92-1.15-.28-2.48-.42-4-.42-1.37,0-2.48,.23-3.33,.69-.85,.46-1.28,1.18-1.28,2.14,0,.48,.08,.91,.25,1.28,.17,.37,.45,.71,.86,1.03,.41,.31,.94,.63,1.61,.94,.67,.32,1.48,.64,2.44,.97,1.59,.59,2.94,1.18,4.05,1.75s2.03,1.22,2.75,1.94,1.25,1.55,1.58,2.47,.5,2.04,.5,3.33c0,2.78-1.03,4.88-3.08,6.3s-4.99,2.14-8.8,2.14c-2.55,0-4.61-.21-6.16-.64-1.55-.43-2.65-.77-3.28-1.03l1.17-5.61c1,.41,2.19,.8,3.58,1.17,1.39,.37,2.97,.56,4.75,.56Z"/><path class="c" d="M610.45,544.69c0,1.26-.41,2.26-1.22,3-.81,.74-1.78,1.11-2.89,1.11s-2.13-.37-2.94-1.11c-.81-.74-1.22-1.74-1.22-3s.41-2.31,1.22-3.05c.81-.74,1.79-1.11,2.94-1.11s2.07,.37,2.89,1.11c.81,.74,1.22,1.76,1.22,3.05Zm-.72,37.53h-6.72v-29.04h6.72v29.04Z"/><path class="c" d="M615.63,545.52l6.72-1.11v8.77h10.33v5.61h-10.33v11.83c0,2.33,.37,4,1.11,5,.74,1,2,1.5,3.78,1.5,1.22,0,2.3-.13,3.25-.39,.94-.26,1.69-.5,2.25-.72l1.11,5.33c-.78,.33-1.79,.68-3.05,1.03s-2.74,.53-4.44,.53c-2.07,0-3.8-.28-5.19-.83-1.39-.56-2.49-1.36-3.3-2.42-.81-1.05-1.39-2.33-1.72-3.83-.33-1.5-.5-3.21-.5-5.14v-25.15Z"/><path class="c" d="M662.92,567.67c0,2.3-.33,4.39-1,6.27-.67,1.89-1.61,3.5-2.83,4.83-1.22,1.33-2.69,2.37-4.41,3.11-1.72,.74-3.62,1.11-5.69,1.11s-3.96-.37-5.66-1.11c-1.7-.74-3.16-1.78-4.39-3.11-1.22-1.33-2.17-2.94-2.86-4.83-.69-1.89-1.03-3.98-1.03-6.27s.34-4.38,1.03-6.25c.68-1.87,1.65-3.47,2.89-4.8,1.24-1.33,2.71-2.36,4.41-3.08s3.57-1.08,5.61-1.08,3.91,.36,5.63,1.08,3.19,1.75,4.41,3.08,2.17,2.93,2.86,4.8c.68,1.87,1.03,3.95,1.03,6.25Zm-6.88,0c0-2.89-.62-5.17-1.86-6.86-1.24-1.68-2.97-2.53-5.19-2.53s-3.95,.84-5.19,2.53c-1.24,1.69-1.86,3.97-1.86,6.86s.62,5.24,1.86,6.94c1.24,1.7,2.97,2.55,5.19,2.55s3.95-.85,5.19-2.55c1.24-1.7,1.86-4.02,1.86-6.94Z"/><path class="c" d="M684.26,559.23c-.56-.18-1.32-.38-2.3-.58-.98-.2-2.12-.31-3.42-.31-.74,0-1.53,.08-2.36,.22-.83,.15-1.42,.28-1.75,.39v23.26h-6.72v-27.65c1.29-.48,2.91-.93,4.86-1.36,1.94-.43,4.1-.64,6.47-.64,.44,0,.96,.03,1.55,.08,.59,.06,1.18,.13,1.78,.22,.59,.09,1.17,.2,1.72,.33,.56,.13,1,.25,1.33,.36l-1.17,5.66Z"/><path class="c" d="M714.09,553.18c-2.99,11.03-6.47,21.02-10.42,29.98-.74,1.67-1.5,3.09-2.28,4.28-.78,1.18-1.65,2.16-2.61,2.94-.96,.78-2.04,1.34-3.22,1.69-1.19,.35-2.56,.53-4.11,.53-1.04,0-2.07-.11-3.08-.33-1.02-.22-1.79-.46-2.31-.72l1.22-5.39c1.34,.52,2.66,.78,3.96,.78,1.75,0,3.11-.42,4.1-1.25,.98-.83,1.85-2.12,2.59-3.86-2.12-4.07-4.15-8.51-6.11-13.32-1.95-4.81-3.69-9.92-5.21-15.32h7.16c.37,1.55,.83,3.24,1.37,5.05,.54,1.81,1.12,3.66,1.76,5.52,.63,1.87,1.3,3.73,2.01,5.58,.71,1.85,1.41,3.57,2.12,5.16,1.18-3.29,2.29-6.8,3.32-10.52,1.03-3.72,1.97-7.32,2.82-10.8h6.94Z"/></g><g><polygon class="b" points="418.65 386.03 418.65 366.28 347.78 366.28 347.78 456.64 373.34 456.64 373.34 425.66 413.23 425.66 413.23 405.91 373.34 405.91 373.34 386.03 418.65 386.03"/><path class="b" d="M486.16,456.64h27.37l-19.53-28.45c5.46-2.6,9.74-6.21,12.82-10.85,3.27-4.95,4.91-10.82,4.91-17.62s-1.64-12.84-4.91-17.88c-3.27-5.04-7.9-8.89-13.88-11.55-5.98-2.67-13.1-4-21.36-4h-41.31v90.36h25.56v-24.01h13.95l16.38,24.01Zm-4.19-66.74c2.62,2.32,3.94,5.6,3.94,9.81s-1.31,7.36-3.94,9.68c-2.63,2.32-6.61,3.49-11.94,3.49h-14.2v-26.46h14.2c5.34,0,9.32,1.16,11.94,3.49Z"/><path class="b" d="M612.14,387.45c-4.26-6.71-10.18-11.92-17.75-15.62-7.57-3.7-16.35-5.55-26.33-5.55h-42.73v90.36h42.73c9.98,0,18.76-1.85,26.33-5.55,7.57-3.7,13.49-8.93,17.75-15.68,4.26-6.75,6.39-14.74,6.39-23.95s-2.13-17.3-6.39-24.01Zm-22.65,37.37c-2.15,3.74-5.14,6.58-8.97,8.52-3.83,1.94-8.33,2.9-13.49,2.9h-16.14v-49.57h16.14c5.16,0,9.66,.97,13.49,2.9,3.83,1.94,6.82,4.76,8.97,8.46,2.15,3.7,3.23,8.18,3.23,13.42s-1.08,9.62-3.23,13.36Z"/><path class="b" d="M687.05,456.64h27.37l-19.53-28.45c5.46-2.6,9.74-6.21,12.82-10.85,3.27-4.95,4.91-10.82,4.91-17.62s-1.64-12.84-4.91-17.88c-3.27-5.04-7.9-8.89-13.88-11.55-5.98-2.67-13.1-4-21.36-4h-41.31v90.36h25.56v-24.01h13.95l16.38,24.01Zm-4.19-66.74c2.62,2.32,3.94,5.6,3.94,9.81s-1.31,7.36-3.94,9.68c-2.63,2.32-6.61,3.49-11.94,3.49h-14.2v-26.46h14.2c5.34,0,9.32,1.16,11.94,3.49Z"/></g></g><g><g><path class="c" d="M1204.98,507.43c0,3.33-.52,6.23-1.55,8.69-1.04,2.46-2.51,4.52-4.41,6.16-1.91,1.65-4.2,2.87-6.88,3.66-2.68,.8-5.66,1.19-8.91,1.19-1.56,0-3.31-.07-5.27-.19-1.96-.13-3.83-.4-5.61-.81v-37.36c1.78-.41,3.66-.67,5.66-.78,2-.11,3.78-.17,5.33-.17,3.22,0,6.16,.38,8.83,1.14,2.66,.76,4.95,1.94,6.86,3.55,1.91,1.61,3.38,3.65,4.41,6.11,1.04,2.46,1.55,5.39,1.55,8.8Zm-25.65,13.49c.41,.04,.94,.07,1.61,.08,.67,.02,1.57,.03,2.72,.03,4.7,0,8.21-1.19,10.52-3.58,2.31-2.39,3.47-5.73,3.47-10.02s-1.13-7.72-3.39-10.05-5.75-3.5-10.49-3.5c-2.07,0-3.55,.06-4.44,.17v26.87Z"/><path class="c" d="M1208.84,512.32c0-2.55,.38-4.79,1.14-6.72,.76-1.92,1.77-3.53,3.03-4.8,1.26-1.28,2.7-2.24,4.33-2.89,1.63-.65,3.29-.97,5-.97,4,0,7.11,1.24,9.35,3.72,2.24,2.48,3.36,6.18,3.36,11.1,0,.37,0,.79-.03,1.25-.02,.46-.05,.88-.08,1.25h-19.15c.18,2.33,1.01,4.14,2.47,5.41,1.46,1.28,3.58,1.92,6.36,1.92,1.63,0,3.12-.15,4.47-.44,1.35-.3,2.42-.61,3.19-.94l.89,5.5c-.37,.19-.88,.38-1.53,.58-.65,.2-1.39,.39-2.22,.56-.83,.17-1.73,.31-2.69,.42-.96,.11-1.94,.17-2.94,.17-2.55,0-4.77-.38-6.66-1.14-1.89-.76-3.44-1.81-4.66-3.16-1.22-1.35-2.13-2.94-2.72-4.78-.59-1.83-.89-3.84-.89-6.02Zm19.49-3c0-.93-.13-1.8-.39-2.64-.26-.83-.64-1.55-1.14-2.17-.5-.61-1.11-1.09-1.83-1.44-.72-.35-1.58-.53-2.58-.53s-1.94,.19-2.72,.58c-.78,.39-1.44,.9-1.97,1.53-.54,.63-.95,1.35-1.25,2.17-.3,.81-.5,1.65-.61,2.5h12.49Zm1.11-23.54l-9.05,8.77-3.33-3,8.16-9.72,4.22,3.94Z"/><path class="c" d="M1266.02,512.21c0,2.22-.29,4.26-.86,6.11-.57,1.85-1.4,3.44-2.47,4.77s-2.41,2.37-4.02,3.11c-1.61,.74-3.43,1.11-5.47,1.11-1.37,0-2.63-.17-3.78-.5-1.15-.33-2.09-.7-2.83-1.11v11.27h-6.72v-38.36c1.37-.37,3.05-.72,5.05-1.06,2-.33,4.11-.5,6.33-.5s4.35,.35,6.16,1.05c1.81,.7,3.36,1.71,4.64,3.03,1.28,1.31,2.26,2.91,2.94,4.77,.68,1.87,1.03,3.97,1.03,6.3Zm-6.89,.11c0-3-.68-5.33-2.03-7-1.35-1.67-3.53-2.5-6.52-2.5-.63,0-1.29,.03-1.97,.08-.69,.06-1.36,.18-2.03,.36v16.6c.59,.41,1.38,.79,2.36,1.14,.98,.35,2.03,.53,3.14,.53,2.44,0,4.23-.83,5.36-2.5,1.13-1.67,1.69-3.9,1.69-6.72Z"/><path class="c" d="M1297.19,512.15c0,2.3-.33,4.39-1,6.27-.67,1.89-1.61,3.5-2.83,4.83-1.22,1.33-2.69,2.37-4.41,3.11-1.72,.74-3.62,1.11-5.69,1.11s-3.96-.37-5.66-1.11c-1.7-.74-3.16-1.78-4.39-3.11-1.22-1.33-2.17-2.94-2.86-4.83-.69-1.89-1.03-3.98-1.03-6.27s.34-4.38,1.03-6.25c.68-1.87,1.65-3.47,2.89-4.8,1.24-1.33,2.71-2.36,4.41-3.08s3.57-1.08,5.61-1.08,3.91,.36,5.63,1.08,3.19,1.75,4.41,3.08,2.17,2.93,2.86,4.8c.68,1.87,1.03,3.95,1.03,6.25Zm-5.89-20.71l-2.61,2.94-5.52-4.5-5.47,4.5-2.66-2.94,8.13-7.77,8.13,7.77Zm-1,20.71c0-2.89-.62-5.17-1.86-6.86-1.24-1.68-2.97-2.53-5.19-2.53s-3.95,.84-5.19,2.53c-1.24,1.69-1.86,3.97-1.86,6.86s.62,5.24,1.86,6.94c1.24,1.7,2.97,2.55,5.19,2.55s3.95-.85,5.19-2.55c1.24-1.7,1.86-4.02,1.86-6.94Z"/><path class="c" d="M1301.65,490l6.72-1.11v8.77h10.33v5.61h-10.33v11.83c0,2.33,.37,4,1.11,5,.74,1,2,1.5,3.78,1.5,1.22,0,2.3-.13,3.25-.39,.94-.26,1.69-.5,2.25-.72l1.11,5.33c-.78,.33-1.79,.68-3.05,1.03s-2.74,.53-4.44,.53c-2.07,0-3.8-.28-5.19-.83-1.39-.56-2.49-1.36-3.3-2.42-.81-1.05-1.39-2.33-1.72-3.83-.33-1.5-.5-3.21-.5-5.14v-25.15Z"/><path class="b" d="M1345.79,483.61c1.55,0,2.82,.12,3.8,.36,.98,.24,1.62,.45,1.92,.64l-.72,3.11c-.41-.18-1.01-.38-1.8-.58-.8-.2-1.8-.31-3.03-.31-2.55,0-4.38,.65-5.47,1.94-1.09,1.3-1.64,3.37-1.64,6.22v3h11.55v3.05h-11.55v25.65h-3.61v-31.81c0-3.74,.86-6.55,2.58-8.44,1.72-1.89,4.38-2.83,7.97-2.83Z"/><path class="b" d="M1351.71,512.32c0-2.52,.36-4.71,1.08-6.58,.72-1.87,1.66-3.43,2.83-4.69,1.17-1.26,2.5-2.19,4-2.8s3.04-.92,4.64-.92c3.52,0,6.32,1.15,8.41,3.44,2.09,2.3,3.14,5.83,3.14,10.6,0,.3,0,.59-.03,.89-.02,.3-.05,.57-.08,.83h-20.15c.11,3.52,.98,6.22,2.61,8.11,1.63,1.89,4.22,2.83,7.77,2.83,1.96,0,3.52-.18,4.66-.56,1.15-.37,1.98-.68,2.5-.94l.67,3.11c-.52,.3-1.49,.65-2.91,1.05-1.43,.41-3.1,.61-5.03,.61-2.52,0-4.66-.37-6.44-1.11-1.78-.74-3.24-1.78-4.38-3.11-1.15-1.33-1.98-2.91-2.5-4.75-.52-1.83-.78-3.84-.78-6.02Zm20.38-2.28c-.08-3-.78-5.33-2.11-7-1.33-1.67-3.22-2.5-5.66-2.5-1.3,0-2.45,.26-3.47,.78-1.02,.52-1.91,1.21-2.66,2.08-.76,.87-1.35,1.88-1.78,3.03-.43,1.15-.68,2.35-.75,3.61h16.43Zm-.22-23.43l-9.49,7.72-1.83-2.11,8.77-8.44,2.55,2.83Z"/><path class="b" d="M1404.51,525.81c-1.07,.37-2.44,.72-4.11,1.05s-3.78,.5-6.33,.5c-2.11,0-4.02-.34-5.75-1.03-1.72-.68-3.2-1.67-4.44-2.97-1.24-1.29-2.2-2.87-2.89-4.72-.68-1.85-1.03-3.94-1.03-6.27,0-2.18,.29-4.19,.86-6.02,.57-1.83,1.42-3.41,2.53-4.75s2.47-2.37,4.08-3.11c1.61-.74,3.45-1.11,5.53-1.11,1.89,0,3.52,.27,4.91,.81,1.39,.54,2.4,1.05,3.03,1.53v-15.43l3.61-.67v42.2Zm-3.61-22.6c-.33-.26-.75-.54-1.25-.83-.5-.3-1.08-.57-1.75-.83-.67-.26-1.39-.47-2.16-.64s-1.59-.25-2.44-.25c-1.78,0-3.27,.31-4.47,.94-1.2,.63-2.17,1.47-2.91,2.53-.74,1.05-1.28,2.3-1.61,3.72-.33,1.43-.5,2.93-.5,4.52,0,3.78,.94,6.67,2.83,8.69,1.89,2.02,4.39,3.03,7.5,3.03,1.78,0,3.21-.08,4.3-.25,1.09-.17,1.92-.34,2.47-.53v-20.1Z"/><path class="b" d="M1410.11,512.32c0-2.52,.36-4.71,1.08-6.58,.72-1.87,1.66-3.43,2.83-4.69,1.17-1.26,2.5-2.19,4-2.8s3.04-.92,4.64-.92c3.52,0,6.32,1.15,8.41,3.44,2.09,2.3,3.14,5.83,3.14,10.6,0,.3,0,.59-.03,.89-.02,.3-.05,.57-.08,.83h-20.15c.11,3.52,.98,6.22,2.61,8.11,1.63,1.89,4.22,2.83,7.77,2.83,1.96,0,3.52-.18,4.66-.56,1.15-.37,1.98-.68,2.5-.94l.67,3.11c-.52,.3-1.49,.65-2.91,1.05-1.43,.41-3.1,.61-5.03,.61-2.52,0-4.66-.37-6.44-1.11-1.78-.74-3.24-1.78-4.38-3.11-1.15-1.33-1.98-2.91-2.5-4.75-.52-1.83-.78-3.84-.78-6.02Zm20.38-2.28c-.08-3-.78-5.33-2.11-7-1.33-1.67-3.22-2.5-5.66-2.5-1.3,0-2.45,.26-3.47,.78-1.02,.52-1.91,1.21-2.66,2.08-.76,.87-1.35,1.88-1.78,3.03-.43,1.15-.68,2.35-.75,3.61h16.43Zm-.22-23.43l-9.49,7.72-1.83-2.11,8.77-8.44,2.55,2.83Z"/><path class="b" d="M1449.43,497.44c1.18,0,2.3,.09,3.36,.28,1.06,.19,1.79,.37,2.19,.55l-.72,3.11c-.3-.15-.9-.31-1.8-.47s-2.1-.25-3.58-.25c-1.56,0-2.8,.11-3.75,.33-.94,.22-1.56,.41-1.86,.56v25.15h-3.61v-27.37c.93-.41,2.2-.82,3.83-1.25,1.63-.43,3.61-.64,5.94-.64Z"/><path class="b" d="M1456.01,512.32c0-2.52,.36-4.71,1.08-6.58,.72-1.87,1.66-3.43,2.83-4.69,1.17-1.26,2.5-2.19,4-2.8s3.04-.92,4.64-.92c3.52,0,6.32,1.15,8.41,3.44,2.09,2.3,3.14,5.83,3.14,10.6,0,.3,0,.59-.03,.89-.02,.3-.05,.57-.08,.83h-20.15c.11,3.52,.98,6.22,2.61,8.11,1.63,1.89,4.22,2.83,7.77,2.83,1.96,0,3.52-.18,4.66-.56,1.15-.37,1.98-.68,2.5-.94l.67,3.11c-.52,.3-1.49,.65-2.91,1.05-1.43,.41-3.1,.61-5.03,.61-2.52,0-4.66-.37-6.44-1.11-1.78-.74-3.24-1.78-4.38-3.11-1.15-1.33-1.98-2.91-2.5-4.75-.52-1.83-.78-3.84-.78-6.02Zm20.38-2.28c-.08-3-.78-5.33-2.11-7-1.33-1.67-3.22-2.5-5.66-2.5-1.3,0-2.45,.26-3.47,.78-1.02,.52-1.91,1.21-2.66,2.08-.76,.87-1.35,1.88-1.78,3.03-.43,1.15-.68,2.35-.75,3.61h16.43Zm-.22-23.43l-9.49,7.72-1.83-2.11,8.77-8.44,2.55,2.83Z"/><path class="b" d="M1520.52,525.81c-1.07,.37-2.44,.72-4.11,1.05s-3.78,.5-6.33,.5c-2.11,0-4.02-.34-5.75-1.03-1.72-.68-3.2-1.67-4.44-2.97-1.24-1.29-2.2-2.87-2.89-4.72-.68-1.85-1.03-3.94-1.03-6.27,0-2.18,.29-4.19,.86-6.02,.57-1.83,1.42-3.41,2.53-4.75s2.47-2.37,4.08-3.11c1.61-.74,3.45-1.11,5.53-1.11,1.89,0,3.52,.27,4.91,.81,1.39,.54,2.4,1.05,3.03,1.53v-15.43l3.61-.67v42.2Zm-3.61-22.6c-.33-.26-.75-.54-1.25-.83-.5-.3-1.08-.57-1.75-.83-.67-.26-1.39-.47-2.16-.64s-1.59-.25-2.44-.25c-1.78,0-3.27,.31-4.47,.94-1.2,.63-2.17,1.47-2.91,2.53-.74,1.05-1.28,2.3-1.61,3.72-.33,1.43-.5,2.93-.5,4.52,0,3.78,.94,6.67,2.83,8.69,1.89,2.02,4.39,3.03,7.5,3.03,1.78,0,3.21-.08,4.3-.25,1.09-.17,1.92-.34,2.47-.53v-20.1Z"/><path class="b" d="M1526.13,512.32c0-2.52,.36-4.71,1.08-6.58,.72-1.87,1.66-3.43,2.83-4.69,1.17-1.26,2.5-2.19,4-2.8s3.04-.92,4.64-.92c3.52,0,6.32,1.15,8.41,3.44,2.09,2.3,3.14,5.83,3.14,10.6,0,.3,0,.59-.03,.89-.02,.3-.05,.57-.08,.83h-20.15c.11,3.52,.98,6.22,2.61,8.11,1.63,1.89,4.22,2.83,7.77,2.83,1.96,0,3.52-.18,4.66-.56,1.15-.37,1.98-.68,2.5-.94l.67,3.11c-.52,.3-1.49,.65-2.91,1.05-1.43,.41-3.1,.61-5.03,.61-2.52,0-4.66-.37-6.44-1.11-1.78-.74-3.24-1.78-4.38-3.11-1.15-1.33-1.98-2.91-2.5-4.75-.52-1.83-.78-3.84-.78-6.02Zm20.38-2.28c-.08-3-.78-5.33-2.11-7-1.33-1.67-3.22-2.5-5.66-2.5-1.3,0-2.45,.26-3.47,.78-1.02,.52-1.91,1.21-2.66,2.08-.76,.87-1.35,1.88-1.78,3.03-.43,1.15-.68,2.35-.75,3.61h16.43Z"/><path class="c" d="M1196.64,581.33c-1.33,.41-3.01,.78-5.02,1.11-2.02,.33-4.14,.5-6.36,.5s-4.35-.35-6.16-1.05-3.36-1.71-4.64-3.03c-1.28-1.31-2.26-2.91-2.94-4.77-.69-1.87-1.03-3.97-1.03-6.3s.29-4.38,.86-6.25c.57-1.87,1.42-3.47,2.53-4.8,1.11-1.33,2.46-2.36,4.05-3.08,1.59-.72,3.42-1.08,5.5-1.08,1.41,0,2.65,.17,3.72,.5,1.07,.33,2,.7,2.78,1.11v-13.94l6.72-1.11v42.2Zm-19.26-13.71c0,2.96,.7,5.28,2.11,6.97,1.41,1.68,3.35,2.53,5.83,2.53,1.07,0,1.99-.05,2.75-.14,.76-.09,1.38-.19,1.86-.31v-16.66c-.59-.41-1.38-.79-2.36-1.14-.98-.35-2.03-.53-3.14-.53-2.44,0-4.23,.83-5.36,2.5-1.13,1.67-1.69,3.92-1.69,6.77Z"/><path class="c" d="M1229.25,567.67c0,2.3-.33,4.39-1,6.27-.67,1.89-1.61,3.5-2.83,4.83-1.22,1.33-2.69,2.37-4.41,3.11-1.72,.74-3.62,1.11-5.69,1.11s-3.96-.37-5.66-1.11c-1.7-.74-3.16-1.78-4.39-3.11-1.22-1.33-2.17-2.94-2.86-4.83-.69-1.89-1.03-3.98-1.03-6.27s.34-4.38,1.03-6.25c.68-1.87,1.65-3.47,2.89-4.8,1.24-1.33,2.71-2.36,4.41-3.08s3.57-1.08,5.61-1.08,3.91,.36,5.63,1.08,3.19,1.75,4.41,3.08,2.17,2.93,2.86,4.8c.68,1.87,1.03,3.95,1.03,6.25Zm-6.88,0c0-2.89-.62-5.17-1.86-6.86-1.24-1.68-2.97-2.53-5.19-2.53s-3.95,.84-5.19,2.53c-1.24,1.69-1.86,3.97-1.86,6.86s.62,5.24,1.86,6.94c1.24,1.7,2.97,2.55,5.19,2.55s3.95-.85,5.19-2.55c1.24-1.7,1.86-4.02,1.86-6.94Z"/><path class="c" d="M1234.04,554.12c1.29-.37,2.98-.72,5.05-1.06,2.07-.33,4.37-.5,6.88-.5,2.37,0,4.35,.32,5.94,.97,1.59,.65,2.86,1.55,3.8,2.72s1.61,2.57,2,4.22c.39,1.65,.58,3.45,.58,5.41v16.32h-6.72v-15.27c0-1.55-.1-2.88-.3-3.97-.2-1.09-.54-1.98-1-2.66-.46-.68-1.09-1.18-1.89-1.5-.8-.31-1.77-.47-2.91-.47-.85,0-1.74,.06-2.67,.17-.93,.11-1.61,.2-2.05,.28v23.43h-6.72v-28.09Z"/><path class="c" d="M1262.77,567.84c0-2.55,.38-4.79,1.14-6.72,.76-1.92,1.77-3.53,3.03-4.8,1.26-1.28,2.7-2.24,4.33-2.89,1.63-.65,3.29-.97,5-.97,4,0,7.11,1.24,9.35,3.72,2.24,2.48,3.36,6.18,3.36,11.1,0,.37,0,.79-.03,1.25-.02,.46-.05,.88-.08,1.25h-19.15c.18,2.33,1.01,4.14,2.47,5.41,1.46,1.28,3.58,1.92,6.36,1.92,1.63,0,3.12-.15,4.47-.44,1.35-.3,2.42-.61,3.19-.94l.89,5.5c-.37,.19-.88,.38-1.53,.58-.65,.2-1.39,.39-2.22,.56-.83,.17-1.73,.31-2.69,.42-.96,.11-1.94,.17-2.94,.17-2.55,0-4.77-.38-6.66-1.14-1.89-.76-3.44-1.81-4.66-3.16-1.22-1.35-2.13-2.94-2.72-4.78-.59-1.83-.89-3.84-.89-6.02Zm19.49-3c0-.93-.13-1.8-.39-2.64-.26-.83-.64-1.55-1.14-2.17-.5-.61-1.11-1.09-1.83-1.44-.72-.35-1.58-.53-2.58-.53s-1.94,.19-2.72,.58c-.78,.39-1.44,.9-1.97,1.53-.54,.63-.95,1.35-1.25,2.17-.3,.81-.5,1.65-.61,2.5h12.49Zm1.11-23.54l-9.05,8.77-3.33-3,8.16-9.72,4.22,3.94Z"/><path class="c" d="M1292.36,567.84c0-2.55,.38-4.79,1.14-6.72,.76-1.92,1.77-3.53,3.03-4.8,1.26-1.28,2.7-2.24,4.33-2.89,1.63-.65,3.29-.97,5-.97,4,0,7.11,1.24,9.35,3.72,2.24,2.48,3.36,6.18,3.36,11.1,0,.37,0,.79-.03,1.25-.02,.46-.05,.88-.08,1.25h-19.15c.18,2.33,1.01,4.14,2.47,5.41,1.46,1.28,3.58,1.92,6.36,1.92,1.63,0,3.12-.15,4.47-.44,1.35-.3,2.42-.61,3.19-.94l.89,5.5c-.37,.19-.88,.38-1.53,.58-.65,.2-1.39,.39-2.22,.56-.83,.17-1.73,.31-2.69,.42-.96,.11-1.94,.17-2.94,.17-2.55,0-4.77-.38-6.66-1.14-1.89-.76-3.44-1.81-4.66-3.16-1.22-1.35-2.13-2.94-2.72-4.78-.59-1.83-.89-3.84-.89-6.02Zm19.49-3c0-.93-.13-1.8-.39-2.64-.26-.83-.64-1.55-1.14-2.17-.5-.61-1.11-1.09-1.83-1.44-.72-.35-1.58-.53-2.58-.53s-1.94,.19-2.72,.58c-.78,.39-1.44,.9-1.97,1.53-.54,.63-.95,1.35-1.25,2.17-.3,.81-.5,1.65-.61,2.5h12.49Z"/><path class="c" d="M1330.89,577.39c1.78,0,3.07-.21,3.89-.64,.81-.43,1.22-1.16,1.22-2.19,0-.96-.44-1.76-1.3-2.39-.87-.63-2.31-1.31-4.3-2.05-1.22-.44-2.34-.92-3.36-1.42-1.02-.5-1.9-1.08-2.64-1.75s-1.32-1.47-1.75-2.41c-.43-.94-.64-2.1-.64-3.47,0-2.66,.98-4.77,2.94-6.3,1.96-1.54,4.63-2.3,7.99-2.3,1.7,0,3.33,.16,4.89,.47s2.72,.62,3.5,.92l-1.22,5.44c-.74-.33-1.68-.64-2.83-.92-1.15-.28-2.48-.42-4-.42-1.37,0-2.48,.23-3.33,.69-.85,.46-1.28,1.18-1.28,2.14,0,.48,.08,.91,.25,1.28,.17,.37,.45,.71,.86,1.03,.41,.31,.94,.63,1.61,.94,.67,.32,1.48,.64,2.44,.97,1.59,.59,2.94,1.18,4.05,1.75s2.03,1.22,2.75,1.94,1.25,1.55,1.58,2.47,.5,2.04,.5,3.33c0,2.78-1.03,4.88-3.08,6.3s-4.99,2.14-8.8,2.14c-2.55,0-4.61-.21-6.16-.64-1.55-.43-2.65-.77-3.28-1.03l1.17-5.61c1,.41,2.19,.8,3.58,1.17,1.39,.37,2.97,.56,4.75,.56Z"/><path class="c" d="M1383.35,581.33c-1.33,.41-3.01,.78-5.02,1.11-2.02,.33-4.14,.5-6.36,.5s-4.35-.35-6.16-1.05-3.36-1.71-4.64-3.03c-1.28-1.31-2.26-2.91-2.94-4.77-.69-1.87-1.03-3.97-1.03-6.3s.29-4.38,.86-6.25c.57-1.87,1.42-3.47,2.53-4.8,1.11-1.33,2.46-2.36,4.05-3.08,1.59-.72,3.42-1.08,5.5-1.08,1.41,0,2.65,.17,3.72,.5,1.07,.33,2,.7,2.78,1.11v-13.94l6.72-1.11v42.2Zm-19.26-13.71c0,2.96,.7,5.28,2.11,6.97,1.41,1.68,3.35,2.53,5.83,2.53,1.07,0,1.99-.05,2.75-.14,.76-.09,1.38-.19,1.86-.31v-16.66c-.59-.41-1.38-.79-2.36-1.14-.98-.35-2.03-.53-3.14-.53-2.44,0-4.23,.83-5.36,2.5-1.13,1.67-1.69,3.92-1.69,6.77Z"/><path class="c" d="M1388.18,567.84c0-2.55,.38-4.79,1.14-6.72,.76-1.92,1.77-3.53,3.03-4.8,1.26-1.28,2.7-2.24,4.33-2.89,1.63-.65,3.29-.97,5-.97,4,0,7.11,1.24,9.35,3.72,2.24,2.48,3.36,6.18,3.36,11.1,0,.37,0,.79-.03,1.25-.02,.46-.05,.88-.08,1.25h-19.15c.18,2.33,1.01,4.14,2.47,5.41,1.46,1.28,3.58,1.92,6.36,1.92,1.63,0,3.12-.15,4.47-.44,1.35-.3,2.42-.61,3.19-.94l.89,5.5c-.37,.19-.88,.38-1.53,.58-.65,.2-1.39,.39-2.22,.56-.83,.17-1.73,.31-2.69,.42-.96,.11-1.94,.17-2.94,.17-2.55,0-4.77-.38-6.66-1.14-1.89-.76-3.44-1.81-4.66-3.16-1.22-1.35-2.13-2.94-2.72-4.78-.59-1.83-.89-3.84-.89-6.02Zm19.49-3c0-.93-.13-1.8-.39-2.64-.26-.83-.64-1.55-1.14-2.17-.5-.61-1.11-1.09-1.83-1.44-.72-.35-1.58-.53-2.58-.53s-1.94,.19-2.72,.58c-.78,.39-1.44,.9-1.97,1.53-.54,.63-.95,1.35-1.25,2.17-.3,.81-.5,1.65-.61,2.5h12.49Z"/><path class="c" d="M1447.87,559.23c-.56-.18-1.32-.38-2.3-.58-.98-.2-2.12-.31-3.42-.31-.74,0-1.53,.08-2.36,.22-.83,.15-1.42,.28-1.75,.39v23.26h-6.72v-27.65c1.29-.48,2.91-.93,4.86-1.36,1.94-.43,4.1-.64,6.47-.64,.44,0,.96,.03,1.55,.08,.59,.06,1.18,.13,1.78,.22,.59,.09,1.17,.2,1.72,.33,.56,.13,1,.25,1.33,.36l-1.17,5.66Z"/><path class="c" d="M1449.83,567.84c0-2.55,.38-4.79,1.14-6.72,.76-1.92,1.77-3.53,3.03-4.8,1.26-1.28,2.7-2.24,4.33-2.89,1.63-.65,3.29-.97,5-.97,4,0,7.11,1.24,9.35,3.72,2.24,2.48,3.36,6.18,3.36,11.1,0,.37,0,.79-.03,1.25-.02,.46-.05,.88-.08,1.25h-19.15c.18,2.33,1.01,4.14,2.47,5.41,1.46,1.28,3.58,1.92,6.36,1.92,1.63,0,3.12-.15,4.47-.44,1.35-.3,2.42-.61,3.19-.94l.89,5.5c-.37,.19-.88,.38-1.53,.58-.65,.2-1.39,.39-2.22,.56-.83,.17-1.73,.31-2.69,.42-.96,.11-1.94,.17-2.94,.17-2.55,0-4.77-.38-6.66-1.14-1.89-.76-3.44-1.81-4.66-3.16-1.22-1.35-2.13-2.94-2.72-4.78-.59-1.83-.89-3.84-.89-6.02Zm19.49-3c0-.93-.13-1.8-.39-2.64-.26-.83-.64-1.55-1.14-2.17-.5-.61-1.11-1.09-1.83-1.44-.72-.35-1.58-.53-2.58-.53s-1.94,.19-2.72,.58c-.78,.39-1.44,.9-1.97,1.53-.54,.63-.95,1.35-1.25,2.17-.3,.81-.5,1.65-.61,2.5h12.49Z"/><path class="c" d="M1479.42,567.73c0-2.15,.33-4.15,1-6.02,.67-1.87,1.62-3.49,2.86-4.86,1.24-1.37,2.75-2.44,4.53-3.22,1.78-.78,3.77-1.17,6-1.17,2.74,0,5.33,.5,7.77,1.5l-1.44,5.5c-.78-.33-1.66-.61-2.64-.83-.98-.22-2.03-.33-3.14-.33-2.63,0-4.63,.82-6,2.47-1.37,1.65-2.05,3.97-2.05,6.97s.65,5.17,1.94,6.86c1.29,1.68,3.48,2.53,6.55,2.53,1.15,0,2.28-.11,3.39-.33,1.11-.22,2.07-.5,2.89-.83l.94,5.55c-.74,.37-1.86,.7-3.36,1-1.5,.3-3.04,.44-4.64,.44-2.48,0-4.64-.38-6.47-1.14-1.83-.76-3.35-1.81-4.55-3.16-1.2-1.35-2.1-2.96-2.69-4.83-.59-1.87-.89-3.9-.89-6.08Z"/><path class="c" d="M1505.49,582.22v-41.97l6.72-1.11v14.38c.74-.26,1.6-.48,2.58-.67,.98-.18,1.95-.28,2.91-.28,2.33,0,4.27,.32,5.8,.97,1.54,.65,2.77,1.55,3.69,2.72s1.58,2.56,1.97,4.19c.39,1.63,.58,3.44,.58,5.44v16.32h-6.72v-15.27c0-1.55-.1-2.88-.3-3.97-.2-1.09-.54-1.98-1-2.66-.46-.68-1.08-1.18-1.86-1.5-.78-.31-1.74-.47-2.89-.47-.89,0-1.8,.09-2.72,.28-.93,.19-1.61,.35-2.05,.5v23.1h-6.72Z"/><path class="c" d="M1534.13,567.84c0-2.55,.38-4.79,1.14-6.72,.76-1.92,1.77-3.53,3.03-4.8,1.26-1.28,2.7-2.24,4.33-2.89,1.63-.65,3.29-.97,5-.97,4,0,7.11,1.24,9.35,3.72,2.24,2.48,3.36,6.18,3.36,11.1,0,.37,0,.79-.03,1.25-.02,.46-.05,.88-.08,1.25h-19.15c.18,2.33,1.01,4.14,2.47,5.41,1.46,1.28,3.58,1.92,6.36,1.92,1.63,0,3.12-.15,4.47-.44,1.35-.3,2.42-.61,3.19-.94l.89,5.5c-.37,.19-.88,.38-1.53,.58-.65,.2-1.39,.39-2.22,.56-.83,.17-1.73,.31-2.69,.42-.96,.11-1.94,.17-2.94,.17-2.55,0-4.77-.38-6.66-1.14-1.89-.76-3.44-1.81-4.66-3.16-1.22-1.35-2.13-2.94-2.72-4.78-.59-1.83-.89-3.84-.89-6.02Zm19.49-3c0-.93-.13-1.8-.39-2.64-.26-.83-.64-1.55-1.14-2.17-.5-.61-1.11-1.09-1.83-1.44-.72-.35-1.58-.53-2.58-.53s-1.94,.19-2.72,.58c-.78,.39-1.44,.9-1.97,1.53-.54,.63-.95,1.35-1.25,2.17-.3,.81-.5,1.65-.61,2.5h12.49Z"/><path class="c" d="M1581.7,559.23c-.56-.18-1.32-.38-2.3-.58-.98-.2-2.12-.31-3.42-.31-.74,0-1.53,.08-2.36,.22-.83,.15-1.42,.28-1.75,.39v23.26h-6.72v-27.65c1.29-.48,2.91-.93,4.86-1.36,1.94-.43,4.1-.64,6.47-.64,.44,0,.96,.03,1.55,.08,.59,.06,1.18,.13,1.78,.22,.59,.09,1.17,.2,1.72,.33,.56,.13,1,.25,1.33,.36l-1.17,5.66Z"/><path class="c" d="M1583.63,567.73c0-2.15,.33-4.15,1-6.02,.67-1.87,1.62-3.49,2.86-4.86,1.24-1.37,2.75-2.44,4.53-3.22,1.78-.78,3.77-1.17,6-1.17,2.74,0,5.33,.5,7.77,1.5l-1.44,5.5c-.78-.33-1.66-.61-2.64-.83-.98-.22-2.03-.33-3.14-.33-2.63,0-4.63,.82-6,2.47-1.37,1.65-2.05,3.97-2.05,6.97s.65,5.17,1.94,6.86c1.29,1.68,3.48,2.53,6.55,2.53,1.15,0,2.28-.11,3.39-.33,1.11-.22,2.07-.5,2.89-.83l.94,5.55c-.74,.37-1.86,.7-3.36,1-1.5,.3-3.04,.44-4.64,.44-2.48,0-4.64-.38-6.47-1.14-1.83-.76-3.35-1.81-4.55-3.16-1.2-1.35-2.1-2.96-2.69-4.83-.59-1.87-.89-3.9-.89-6.08Z"/><path class="c" d="M1609.7,582.22v-41.97l6.72-1.11v14.38c.74-.26,1.6-.48,2.58-.67,.98-.18,1.95-.28,2.91-.28,2.33,0,4.27,.32,5.8,.97,1.54,.65,2.77,1.55,3.69,2.72s1.58,2.56,1.97,4.19c.39,1.63,.58,3.44,.58,5.44v16.32h-6.72v-15.27c0-1.55-.1-2.88-.3-3.97-.2-1.09-.54-1.98-1-2.66-.46-.68-1.08-1.18-1.86-1.5-.78-.31-1.74-.47-2.89-.47-.89,0-1.8,.09-2.72,.28-.93,.19-1.61,.35-2.05,.5v23.1h-6.72Z"/><path class="c" d="M1638.33,567.84c0-2.55,.38-4.79,1.14-6.72,.76-1.92,1.77-3.53,3.03-4.8,1.26-1.28,2.7-2.24,4.33-2.89,1.63-.65,3.29-.97,5-.97,4,0,7.11,1.24,9.35,3.72,2.24,2.48,3.36,6.18,3.36,11.1,0,.37,0,.79-.03,1.25-.02,.46-.05,.88-.08,1.25h-19.15c.18,2.33,1.01,4.14,2.47,5.41,1.46,1.28,3.58,1.92,6.36,1.92,1.63,0,3.12-.15,4.47-.44,1.35-.3,2.42-.61,3.19-.94l.89,5.5c-.37,.19-.88,.38-1.53,.58-.65,.2-1.39,.39-2.22,.56-.83,.17-1.73,.31-2.69,.42-.96,.11-1.94,.17-2.94,.17-2.55,0-4.77-.38-6.66-1.14-1.89-.76-3.44-1.81-4.66-3.16-1.22-1.35-2.13-2.94-2.72-4.78-.59-1.83-.89-3.84-.89-6.02Zm19.49-3c0-.93-.13-1.8-.39-2.64-.26-.83-.64-1.55-1.14-2.17-.5-.61-1.11-1.09-1.83-1.44-.72-.35-1.58-.53-2.58-.53s-1.94,.19-2.72,.58c-.78,.39-1.44,.9-1.97,1.53-.54,.63-.95,1.35-1.25,2.17-.3,.81-.5,1.65-.61,2.5h12.49Z"/></g><g><path class="b" d="M1172.19,456.64v-90.36h42.73c9.98,0,18.76,1.85,26.33,5.55,7.57,3.7,13.49,8.91,17.75,15.62,4.26,6.71,6.39,14.72,6.39,24.01s-2.13,17.19-6.39,23.95c-4.26,6.76-10.18,11.98-17.75,15.68-7.57,3.7-16.35,5.55-26.33,5.55h-42.73Zm25.56-20.4h16.14c5.16,0,9.66-.97,13.49-2.9,3.83-1.94,6.82-4.78,8.97-8.52,2.15-3.74,3.23-8.2,3.23-13.36s-1.08-9.72-3.23-13.42c-2.15-3.7-5.14-6.52-8.97-8.46-3.83-1.94-8.33-2.9-13.49-2.9h-16.14v49.57Z"/><polygon class="b" points="1348.89 386.03 1348.89 366.28 1278.02 366.28 1278.02 456.64 1303.58 456.64 1303.58 425.66 1343.47 425.66 1343.47 405.91 1303.58 405.91 1303.58 386.03 1348.89 386.03"/><path class="b" d="M1360.51,456.64v-90.36h42.73c9.98,0,18.76,1.85,26.33,5.55,7.57,3.7,13.49,8.91,17.75,15.62,4.26,6.71,6.39,14.72,6.39,24.01s-2.13,17.19-6.39,23.95c-4.26,6.76-10.18,11.98-17.75,15.68-7.57,3.7-16.35,5.55-26.33,5.55h-42.73Zm25.56-20.4h16.14c5.16,0,9.66-.97,13.49-2.9,3.83-1.94,6.82-4.78,8.97-8.52,2.15-3.74,3.23-8.2,3.23-13.36s-1.08-9.72-3.23-13.42c-2.15-3.7-5.14-6.52-8.97-8.46-3.83-1.94-8.33-2.9-13.49-2.9h-16.14v49.57Z"/><path class="b" d="M1522.23,456.64h27.37l-19.53-28.45c5.46-2.6,9.74-6.21,12.82-10.85,3.27-4.95,4.91-10.82,4.91-17.62s-1.64-12.84-4.91-17.88c-3.27-5.04-7.9-8.89-13.88-11.55-5.98-2.67-13.1-4-21.36-4h-41.31v90.36h25.56v-24.01h13.95l16.38,24.01Zm-4.19-66.74c2.62,2.32,3.94,5.6,3.94,9.81s-1.31,7.36-3.94,9.68c-2.63,2.32-6.61,3.49-11.94,3.49h-14.2v-26.46h14.2c5.34,0,9.31,1.16,11.94,3.49Z"/></g></g><g><rect class="c" x="1027.51" y="434.65" width="42.58" height="42.58" transform="translate(629.59 -608.07) rotate(45)"/><polygon class="c" points="847.36 310.75 812.11 346 843.47 377.37 817.25 403.59 839.78 426.12 812.11 453.79 847.36 489.04 882.62 453.79 854.94 426.12 877.47 403.59 851.25 377.37 882.62 346 847.36 310.75"/><rect class="c" x="902.93" y="498.99" width="29.95" height="29.95" transform="translate(632.28 -498.52) rotate(45)"/><g><polygon class="c" points="982.29 481.93 1008.24 455.97 979.76 427.49 999.31 407.93 978.13 386.75 956.95 407.93 976.5 427.49 948.02 455.97 973.98 481.93 942.88 513.03 978.13 548.28 1013.39 513.03 982.29 481.93"/><polygon class="c" points="922.06 430.02 953.16 398.92 926.69 372.46 953.16 345.99 917.9 310.74 882.65 345.99 909.11 372.46 882.65 398.92 913.75 430.02 887.79 455.98 917.9 486.09 948.01 455.98 922.06 430.02"/></g><rect class="c" x="1033.82" y="382.9" width="29.95" height="29.95" transform="translate(588.53 -625.08) rotate(45)"/><rect class="c" x="908.42" y="555.87" width="18.97" height="18.97" transform="translate(668.62 -483.47) rotate(45)"/><rect class="c" x="908.42" y="234.1" width="18.97" height="18.97" transform="translate(441.09 -577.71) rotate(45)"/><rect class="c" x="908.42" y="593.09" width="18.97" height="18.97" transform="translate(694.93 -472.57) rotate(45)"/><rect class="c" x="1039.31" y="515.8" width="18.97" height="18.97" transform="translate(678.62 -587.76) rotate(45)"/><rect class="c" x="837.88" y="271.96" width="18.97" height="18.97" transform="translate(447.2 -516.74) rotate(45)"/><rect class="c" x="968.65" y="563.29" width="18.97" height="18.97" transform="translate(1264.76 1669.44) rotate(-135)"/><rect class="c" x="837.88" y="500.66" width="18.97" height="18.97" transform="translate(608.91 -449.76) rotate(45)"/><rect class="c" x="902.93" y="268.89" width="29.95" height="29.95" transform="translate(469.57 -565.91) rotate(45)"/><rect class="c" x="1033.82" y="330.55" width="29.95" height="29.95" transform="translate(551.51 -640.41) rotate(45)"/></g></svg>