<svg version="1.2" xmlns="http://www.w3.org/2000/svg" viewBox="0 0 859 392" width="859" height="392">
	<title>FRDR_logo_french_reversed-svg</title>
	<style>
		.s0 { fill: #dda800 } 
		.s1 { fill: #fbfafa } 
	</style>
	<g id="Layer">
		<g id="Layer">
			<path id="Layer" fill-rule="evenodd" class="s0" d="m396.7 280.4q0 5-1.6 8.7-1.5 3.7-4.4 6.2-2.9 2.5-6.9 3.6-4 1.2-8.9 1.2-2.3 0-5.3-0.2-2.9-0.2-5.6-0.8v-37.3q2.7-0.6 5.7-0.8 3-0.2 5.3-0.2 4.8 0 8.9 1.2 3.9 1.1 6.8 3.5 2.9 2.4 4.4 6.1 1.6 3.7 1.6 8.8zm-25.7 13.5q0.6 0.1 1.6 0.1 1 0 2.8 0 7 0 10.5-3.6 3.4-3.5 3.4-10c0-4.3-1.1-7.7-3.3-10q-3.4-3.5-10.5-3.5-3.1 0-4.5 0.1z"/>
			<path id="Layer" fill-rule="evenodd" class="s0" d="m400.5 285.3q0-3.8 1.2-6.7 1.1-2.9 3-4.8 1.9-1.9 4.3-2.9 2.5-1 5-1 6 0 9.4 3.8 3.3 3.7 3.3 11.1 0 0.5 0 1.2 0 0.7-0.1 1.3h-19.1q0.2 3.5 2.4 5.4 2.2 1.9 6.4 1.9 2.4 0 4.5-0.5 2-0.4 3.2-0.9l0.9 5.5q-0.6 0.3-1.6 0.6-1 0.3-2.2 0.5-1.2 0.3-2.7 0.5-1.4 0.1-2.9 0.1-3.9 0-6.7-1.1-2.8-1.1-4.6-3.2-1.9-2-2.8-4.7-0.9-2.8-0.9-6.1zm19.5-3q0-1.3-0.4-2.6-0.3-1.2-1.1-2.2-0.7-0.9-1.8-1.4-1.1-0.5-2.6-0.5c-1 0-2 0.1-2.7 0.5q-1.2 0.6-2 1.6-0.8 0.9-1.3 2.1-0.4 1.3-0.6 2.5zm1.1-23.5l-9 8.8-3.3-3 8.1-9.8 4.2 4z"/>
			<path id="Layer" fill-rule="evenodd" class="s0" d="m457.7 285.2q0 3.3-0.9 6.1-0.8 2.8-2.4 4.8-1.6 2-4 3.1-2.5 1.1-5.5 1.1-2.1 0-3.8-0.5-1.7-0.5-2.8-1.1v11.3h-6.8v-38.4q2.1-0.5 5.1-1 3-0.5 6.3-0.5c2.2 0 4.4 0.3 6.2 1q2.7 1.1 4.6 3 1.9 2 3 4.8 1 2.8 1 6.3zm-6.9 0.1q0 0 0 0 0 0 0 0zm-2-7q-2.1-2.5-6.5-2.5-1 0-2 0.1-1 0.1-2 0.4v16.6q0.8 0.6 2.3 1.1 1.5 0.5 3.2 0.5 3.6 0 5.3-2.5 1.7-2.5 1.7-6.7 0-4.5-2-7z"/>
			<path id="Layer" fill-rule="evenodd" class="s0" d="m488.9 285.1q0 3.5-1 6.3-1 2.9-2.9 4.8-1.8 2-4.4 3.2-2.6 1.1-5.7 1.1-3.1 0-5.6-1.1-2.6-1.2-4.4-3.2-1.8-1.9-2.9-4.8-1-2.8-1-6.3 0-3.4 1-6.2 1.1-2.8 2.9-4.8 1.9-2 4.4-3.1 2.6-1.1 5.6-1.1 3.1 0 5.7 1.1 2.6 1.1 4.4 3.1 1.8 2 2.8 4.8 1.1 2.8 1.1 6.2zm-5.9-20.7l-2.6 3-5.5-4.5-5.5 4.5-2.7-3 8.2-7.7zm-1 20.7q0-4.4-1.9-6.9-1.9-2.5-5.2-2.5-3.3 0-5.2 2.5-1.9 2.5-1.9 6.9c0 2.9 0.7 5.2 1.9 6.9q1.9 2.6 5.2 2.6 3.3 0 5.2-2.6 1.9-2.5 1.9-6.9z"/>
			<path id="Layer" class="s0" d="m493.3 263l6.7-1.1v8.8h10.4v5.6h-10.4v11.8q0 3.5 1.2 5 1.1 1.5 3.7 1.5 1.9 0 3.3-0.4 1.4-0.4 2.2-0.7l1.1 5.3q-1.1 0.5-3 1.1-1.9 0.5-4.4 0.5-3.1 0-5.2-0.9-2.1-0.8-3.3-2.4-1.3-1.5-1.8-3.8-0.4-2.2-0.5-5.1v-25.2z"/>
			<path id="Layer" class="s1" d="m537.5 256.6q2.3 0 3.8 0.4 1.4 0.3 1.9 0.6l-0.7 3.1q-0.6-0.3-1.8-0.6-1.2-0.3-3.1-0.3-3.8 0-5.4 2-1.7 1.9-1.7 6.2v3h11.6v3h-11.6v25.7h-3.6v-31.8q0-5.6 2.6-8.5 2.6-2.8 8-2.8z"/>
			<path id="Layer" fill-rule="evenodd" class="s1" d="m543.4 285.3q0-3.8 1.1-6.6 1-2.8 2.8-4.6 1.8-1.9 4-2.8 2.2-1 4.6-1 5.3 0 8.5 3.5 3.1 3.4 3.1 10.6 0 0.4 0 0.9-0.1 0.4-0.1 0.8h-20.2q0.2 5.3 2.6 8.1 2.5 2.8 7.8 2.8 3 0 4.7-0.5 1.7-0.6 2.5-1l0.6 3.1q-0.7 0.5-2.9 1.1-2.1 0.6-5 0.6-3.8 0-6.4-1.1-2.7-1.1-4.4-3.1-1.7-2-2.5-4.8-0.8-2.7-0.8-6zm20.4-2.3q-0.1-4.5-2.1-7-2-2.5-5.7-2.5-1.9 0-3.5 0.8-1.5 0.8-2.6 2.1-1.2 1.3-1.8 3-0.6 1.7-0.7 3.6zm-0.3-23.4l-9.5 7.7-1.8-2.1 8.8-8.4z"/>
			<path id="Layer" fill-rule="evenodd" class="s1" d="m596.2 298.8q-1.6 0.6-4.1 1.1-2.5 0.5-6.3 0.5-3.2 0-5.8-1.1-2.6-1-4.4-2.9-1.9-2-2.9-4.8-1.1-2.7-1.1-6.2 0-3.3 0.9-6.1 0.9-2.7 2.5-4.7 1.7-2 4.1-3.1 2.4-1.1 5.5-1.1 2.9 0 4.9 0.8 2.1 0.8 3.1 1.5v-15.4l3.6-0.7c0 0 0 42.2 0 42.2zm-3.6-22.6q-0.5-0.4-1.3-0.8-0.7-0.5-1.7-0.9-1-0.3-2.2-0.6-1.1-0.2-2.4-0.2-2.7 0-4.5 0.9-1.8 0.9-2.9 2.5-1.1 1.6-1.6 3.7-0.5 2.2-0.5 4.6 0 5.6 2.8 8.7 2.9 3 7.5 3 2.7 0 4.3-0.3 1.7-0.2 2.5-0.5c0 0 0-20.1 0-20.1z"/>
			<path id="Layer" fill-rule="evenodd" class="s1" d="m601.8 285.3q0-3.8 1.1-6.6 1-2.8 2.8-4.6 1.8-1.9 4-2.8 2.2-1 4.6-1 5.3 0 8.5 3.5 3.1 3.4 3.1 10.6 0 0.4 0 0.9-0.1 0.4-0.1 0.8h-20.2q0.2 5.3 2.6 8.1 2.5 2.8 7.8 2.8 3 0 4.7-0.5 1.7-0.6 2.5-1l0.6 3.1q-0.7 0.5-2.9 1.1-2.1 0.6-5 0.6-3.8 0-6.4-1.1-2.7-1.1-4.4-3.1-1.7-2-2.5-4.8-0.8-2.7-0.8-6zm20.4-2.3q-0.1-4.5-2.1-7-2-2.5-5.7-2.5-1.9 0-3.5 0.8-1.5 0.8-2.6 2.1-1.2 1.3-1.8 3-0.6 1.7-0.7 3.6zm-0.3-23.4l-9.5 7.7-1.8-2.1 8.8-8.4z"/>
			<path id="Layer" class="s1" d="m641.1 270.4q1.8 0 3.4 0.3 1.6 0.3 2.2 0.6l-0.8 3.1q-0.4-0.2-1.8-0.5-1.3-0.2-3.5-0.2-2.4 0-3.8 0.3-1.4 0.3-1.8 0.5v25.2h-3.7v-27.4q1.4-0.6 3.9-1.2 2.4-0.7 5.9-0.7z"/>
			<path id="Layer" fill-rule="evenodd" class="s1" d="m647.7 285.3q0-3.8 1.1-6.6 1-2.8 2.8-4.6 1.8-1.9 4-2.8 2.2-1 4.6-1 5.3 0 8.5 3.5 3.1 3.4 3.1 10.6 0 0.4 0 0.9-0.1 0.4-0.1 0.8h-20.2q0.2 5.3 2.6 8.1 2.5 2.8 7.8 2.8 3 0 4.7-0.5 1.7-0.6 2.5-1l0.6 3.1q-0.7 0.5-2.9 1.1-2.1 0.6-5 0.6-3.8 0-6.4-1.1-2.7-1.1-4.4-3.1-1.7-2-2.5-4.8-0.8-2.7-0.8-6zm20.4-2.3q-0.1-4.5-2.1-7-2-2.5-5.7-2.5-1.9 0-3.5 0.8-1.5 0.8-2.6 2.1-1.2 1.3-1.8 3-0.6 1.7-0.7 3.6zm-0.3-23.4l-9.5 7.7-1.8-2.1 8.8-8.4z"/>
			<path id="Layer" fill-rule="evenodd" class="s1" d="m712.2 298.8q-1.6 0.6-4.1 1.1-2.5 0.5-6.3 0.5-3.2 0-5.8-1.1-2.6-1-4.4-2.9-1.9-2-2.9-4.8-1-2.7-1-6.2 0-3.3 0.8-6.1 0.9-2.7 2.5-4.7 1.7-2 4.1-3.1 2.4-1.1 5.5-1.1 2.9 0 5 0.8 2 0.8 3 1.5v-15.4l3.6-0.7c0 0 0 42.2 0 42.2zm-3.6-22.6q-0.5-0.4-1.3-0.8-0.7-0.5-1.7-0.9-1-0.3-2.2-0.6-1.1-0.2-2.4-0.2-2.7 0-4.5 0.9-1.8 0.9-2.9 2.5-1.1 1.6-1.6 3.7-0.5 2.2-0.5 4.6 0 5.6 2.8 8.7 2.9 3 7.5 3 2.7 0 4.3-0.3 1.7-0.2 2.5-0.5c0 0 0-20.1 0-20.1z"/>
			<path id="Layer" fill-rule="evenodd" class="s1" d="m717.8 285.3q0-3.8 1.1-6.6 1.1-2.8 2.8-4.6 1.8-1.9 4-2.8 2.3-1 4.6-1 5.3 0 8.5 3.5 3.1 3.4 3.1 10.6 0 0.4 0 0.9-0.1 0.4-0.1 0.8h-20.2q0.2 5.3 2.7 8.1 2.4 2.8 7.7 2.8 3 0 4.7-0.5 1.7-0.6 2.5-1l0.7 3.1q-0.8 0.5-3 1.1-2.1 0.6-5 0.6-3.8 0-6.4-1.1-2.7-1.1-4.4-3.1-1.7-2-2.5-4.8-0.8-2.7-0.8-6zm20.4-2.3q-0.1-4.5-2.1-7-2-2.5-5.7-2.5-1.9 0-3.4 0.8-1.6 0.8-2.7 2.1-1.1 1.3-1.8 3-0.6 1.7-0.7 3.6z"/>
			<path id="Layer" fill-rule="evenodd" class="s0" d="m388.3 354.3q-2 0.6-5 1.1-3 0.5-6.4 0.5c-2.2 0-4.3-0.3-6.1-1q-2.7-1.1-4.7-3-1.9-2-2.9-4.8-1-2.8-1-6.3c0-2.3 0.3-4.4 0.8-6.3q0.9-2.8 2.6-4.8 1.6-2 4-3 2.4-1.1 5.5-1.1 2.1 0 3.7 0.5 1.6 0.5 2.8 1.1v-13.9l6.7-1.2v42.2zm-19.2-13.7q0 4.5 2.1 7 2.1 2.5 5.8 2.5 1.6 0 2.8-0.1 1.1-0.1 1.8-0.3v-16.7q-0.9-0.6-2.3-1.1-1.5-0.5-3.2-0.5-3.6-0.1-5.3 2.5-1.7 2.4-1.7 6.7z"/>
			<path id="Layer" fill-rule="evenodd" class="s0" d="m420.9 340.7q0 3.4-1 6.2-1 2.9-2.8 4.9-1.8 2-4.4 3.1-2.6 1.1-5.7 1.1-3.1 0-5.7-1.1-2.5-1.1-4.4-3.1-1.8-2-2.8-4.9-1-2.8-1-6.2 0-3.5 1-6.3 1-2.8 2.9-4.8 1.8-2 4.4-3.1 2.5-1 5.6-1 3.1 0 5.6 1 2.6 1.1 4.4 3.1 1.9 2 2.9 4.8 1 2.8 1 6.3zm-6.9 0q0-4.4-1.8-6.9-1.9-2.5-5.2-2.5-3.3 0-5.2 2.5-1.9 2.5-1.9 6.9c0 2.9 0.7 5.2 1.9 6.9q1.9 2.6 5.2 2.6 3.3 0 5.2-2.6 1.8-2.5 1.8-6.9z"/>
			<path id="Layer" class="s0" d="m425.7 327.1q2-0.5 5.1-1 3.1-0.5 6.8-0.5 3.6 0 6 0.9 2.4 1 3.8 2.8 1.4 1.7 2 4.2 0.6 2.4 0.6 5.4v16.3h-6.7v-15.3q-0.1-2.3-0.3-3.9-0.4-1.7-1-2.7-0.7-1-1.9-1.5-1.2-0.5-2.9-0.5-1.3 0-2.7 0.2-1.4 0.2-2.1 0.3v23.4h-6.7c0 0 0-28.1 0-28.1z"/>
			<path id="Layer" fill-rule="evenodd" class="s0" d="m454.5 340.8q0-3.8 1.1-6.7 1.1-2.9 3-4.8 1.9-1.9 4.4-2.9 2.4-0.9 5-0.9 5.9 0 9.3 3.7 3.4 3.7 3.4 11.1 0 0.5-0.1 1.2 0 0.7 0 1.3h-19.2q0.3 3.5 2.5 5.4 2.2 1.9 6.3 1.9 2.5 0 4.5-0.4 2-0.5 3.2-1l0.9 5.5q-0.6 0.3-1.5 0.6-1 0.3-2.3 0.6-1.2 0.2-2.7 0.4-1.4 0.2-2.9 0.2-3.8 0-6.7-1.2-2.8-1.1-4.6-3.1-1.9-2.1-2.7-4.8-0.9-2.8-0.9-6zm19.5-3q0-1.4-0.4-2.7-0.4-1.2-1.2-2.2-0.7-0.9-1.8-1.4-1.1-0.5-2.6-0.5c-1 0-1.9 0.2-2.7 0.6q-1.2 0.5-2 1.5-0.8 0.9-1.2 2.2-0.5 1.2-0.6 2.5zm1.1-23.6l-9.1 8.8-3.3-3 8.2-9.7c0 0 4.2 3.9 4.2 3.9z"/>
			<path id="Layer" fill-rule="evenodd" class="s0" d="m484 340.8q0-3.8 1.2-6.7 1.1-2.9 3-4.8 1.9-1.9 4.3-2.9 2.5-0.9 5-0.9 6 0 9.4 3.7 3.3 3.7 3.3 11.1 0.1 0.5 0 1.2 0 0.7-0.1 1.3h-19.1q0.3 3.5 2.5 5.4 2.1 1.9 6.3 1.9 2.5 0 4.5-0.4 2-0.5 3.2-1l0.9 5.5q-0.6 0.3-1.6 0.6-0.9 0.3-2.2 0.6-1.2 0.2-2.7 0.4-1.4 0.2-2.9 0.2-3.8 0-6.7-1.2-2.8-1.1-4.6-3.1-1.9-2.1-2.7-4.8-0.9-2.8-0.9-6zm19.5-3q0-1.4-0.4-2.7-0.4-1.2-1.2-2.2-0.7-0.9-1.8-1.4-1.1-0.5-2.6-0.5c-1 0-1.9 0.2-2.7 0.6q-1.2 0.5-2 1.5-0.8 0.9-1.2 2.2-0.5 1.2-0.6 2.5z"/>
			<path id="Layer" class="s0" d="m522.6 350.4q2.6 0 3.9-0.6 1.2-0.7 1.2-2.2 0-1.5-1.3-2.4-1.3-1-4.3-2.1-1.8-0.6-3.4-1.4-1.5-0.7-2.6-1.7-1.1-1.1-1.8-2.5-0.6-1.4-0.6-3.4 0-4 2.9-6.3 3-2.3 8-2.3 2.6 0 4.9 0.4 2.3 0.5 3.5 1l-1.2 5.4q-1.1-0.5-2.8-0.9-1.8-0.4-4-0.4-2.1 0-3.4 0.7-1.2 0.6-1.2 2.1-0.1 0.7 0.2 1.3 0.3 0.5 0.9 1 0.6 0.5 1.6 0.9 1 0.5 2.4 1 2.4 0.9 4.1 1.8 1.6 0.8 2.7 1.9 1.1 1.1 1.6 2.5 0.5 1.4 0.5 3.3 0 4.2-3.1 6.3-3.1 2.1-8.8 2.1-3.8 0-6.1-0.6-2.4-0.6-3.3-1l1.1-5.6q1.5 0.6 3.6 1.1 2.1 0.6 4.8 0.6z"/>
			<path id="Layer" fill-rule="evenodd" class="s0" d="m575 354.3q-2 0.6-5 1.1-3 0.5-6.3 0.5c-2.3 0-4.4-0.3-6.2-1q-2.7-1.1-4.7-3-1.9-2-2.9-4.8-1-2.8-1-6.3c0-2.3 0.3-4.4 0.8-6.3q0.9-2.8 2.6-4.8 1.6-2 4-3 2.4-1.1 5.5-1.1 2.1 0 3.7 0.5 1.6 0.5 2.8 1.1v-13.9l6.7-1.2v42.2zm-19.2-13.7q0 4.5 2.1 7 2.1 2.5 5.8 2.5 1.6 0 2.8-0.1 1.1-0.1 1.8-0.3v-16.7q-0.9-0.6-2.3-1.1-1.5-0.5-3.2-0.5-3.6-0.1-5.3 2.5-1.7 2.4-1.7 6.7z"/>
			<path id="Layer" fill-rule="evenodd" class="s0" d="m579.9 340.8q0-3.8 1.1-6.7 1.1-2.9 3-4.8 1.9-1.9 4.4-2.9 2.4-0.9 5-0.9 6 0 9.3 3.7 3.4 3.7 3.4 11.1 0 0.5-0.1 1.2 0 0.7 0 1.3h-19.2q0.3 3.5 2.5 5.4 2.2 1.9 6.3 1.9 2.5 0 4.5-0.4 2-0.5 3.2-1l0.9 5.5q-0.6 0.3-1.5 0.6-1 0.3-2.3 0.6-1.2 0.2-2.7 0.4-1.4 0.2-2.9 0.2-3.8 0-6.7-1.2-2.8-1.1-4.6-3.1-1.8-2.1-2.7-4.8-0.9-2.8-0.9-6zm19.5-3q0-1.4-0.4-2.7-0.4-1.2-1.2-2.2-0.7-0.9-1.8-1.4-1.1-0.5-2.6-0.5c-1 0-1.9 0.2-2.7 0.6q-1.2 0.5-2 1.5-0.8 0.9-1.2 2.2-0.5 1.2-0.6 2.5z"/>
			<path id="Layer" class="s0" d="m639.5 332.2q-0.8-0.2-2.3-0.6-1.4-0.3-3.4-0.3-1.1 0-2.3 0.3-1.3 0.2-1.8 0.4v23.2h-6.7v-27.6q1.9-0.8 4.9-1.4 2.9-0.6 6.4-0.6 0.7 0 1.6 0 0.9 0.1 1.8 0.3 0.8 0.1 1.7 0.3 0.8 0.2 1.3 0.4l-1.2 5.6z"/>
			<path id="Layer" fill-rule="evenodd" class="s0" d="m641.5 340.8q0-3.8 1.2-6.7 1.1-2.9 3-4.8 1.9-1.9 4.3-2.9 2.5-0.9 5-0.9 6 0 9.4 3.7 3.3 3.7 3.3 11.1 0 0.5 0 1.2 0 0.7-0.1 1.3h-19.1q0.2 3.5 2.4 5.4 2.2 1.9 6.4 1.9 2.4 0 4.5-0.4 2-0.5 3.1-1l0.9 5.5q-0.5 0.3-1.5 0.6-1 0.3-2.2 0.6-1.3 0.2-2.7 0.4-1.4 0.2-2.9 0.2-3.9 0-6.7-1.2-2.8-1.1-4.7-3.1-1.8-2.1-2.7-4.8-0.9-2.8-0.9-6zm19.5-3q0-1.4-0.4-2.7-0.4-1.2-1.1-2.2-0.8-0.9-1.8-1.4-1.1-0.5-2.6-0.5c-1 0-2 0.2-2.7 0.6q-1.2 0.5-2 1.5-0.8 0.9-1.3 2.2-0.4 1.2-0.6 2.5z"/>
			<path id="Layer" class="s0" d="m671.1 340.7q0-3.2 1-6 1-2.8 2.9-4.8 1.8-2.1 4.5-3.3 2.7-1.1 6-1.1 4.1 0 7.8 1.5l-1.5 5.5q-1.2-0.5-2.6-0.9-1.5-0.3-3.2-0.3-3.9 0-6 2.5-2 2.4-2 6.9c0 3 0.6 5.2 1.9 6.9q2 2.5 6.6 2.5 1.7 0 3.4-0.3 1.6-0.3 2.9-0.8l0.9 5.5q-1.1 0.6-3.4 1-2.2 0.5-4.6 0.5-3.7 0-6.5-1.2-2.7-1.1-4.5-3.1-1.8-2.1-2.7-4.9-0.9-2.8-0.9-6.1z"/>
			<path id="Layer" class="s0" d="m697.2 355.2v-41.9l6.7-1.2v14.4q1.1-0.4 2.6-0.6 1.4-0.3 2.9-0.3 3.5 0 5.8 0.9 2.3 1 3.7 2.8 1.4 1.7 1.9 4.2 0.6 2.4 0.6 5.4v16.3h-6.7v-15.3q0-2.3-0.3-3.9-0.3-1.7-1-2.7-0.7-1-1.9-1.5-1.1-0.5-2.8-0.5-1.4 0-2.8 0.3-1.4 0.3-2 0.5v23.1c0 0-6.7 0-6.7 0z"/>
			<path id="Layer" fill-rule="evenodd" class="s0" d="m725.8 340.8q0-3.8 1.2-6.7 1.1-2.9 3-4.8 1.9-1.9 4.3-2.9 2.5-0.9 5-0.9 6 0 9.4 3.7 3.3 3.7 3.3 11.1 0 0.5 0 1.2 0 0.7-0.1 1.3h-19.1q0.2 3.5 2.4 5.4 2.2 1.9 6.4 1.9 2.4 0 4.5-0.4 2-0.5 3.1-1l0.9 5.5q-0.5 0.3-1.5 0.6-1 0.3-2.2 0.6-1.3 0.2-2.7 0.4-1.4 0.2-2.9 0.2-3.9 0-6.7-1.2-2.8-1.1-4.7-3.1-1.8-2.1-2.7-4.8-0.9-2.8-0.9-6zm19.5-3q0-1.4-0.4-2.7-0.4-1.2-1.1-2.2-0.8-0.9-1.8-1.4-1.1-0.5-2.6-0.5c-1 0-2 0.2-2.7 0.6q-1.2 0.5-2 1.5-0.8 0.9-1.3 2.2-0.4 1.2-0.6 2.5z"/>
			<path id="Layer" class="s0" d="m773.4 332.2q-0.9-0.2-2.3-0.6-1.5-0.3-3.4-0.3-1.2 0-2.4 0.3-1.2 0.2-1.7 0.4v23.2h-6.8v-27.6q2-0.8 4.9-1.4 2.9-0.6 6.5-0.6 0.6 0 1.5 0 0.9 0.1 1.8 0.3 0.9 0.1 1.7 0.3 0.8 0.2 1.3 0.4l-1.1 5.6z"/>
			<path id="Layer" class="s0" d="m775.3 340.7q0-3.2 1-6 1-2.8 2.9-4.8 1.8-2.1 4.5-3.3 2.7-1.1 6-1.1 4.1 0 7.8 1.5l-1.5 5.5q-1.1-0.5-2.6-0.9-1.5-0.3-3.2-0.3-3.9 0-6 2.5-2 2.4-2 6.9c0 3 0.6 5.2 1.9 6.9q2 2.5 6.6 2.5 1.7 0 3.4-0.3 1.6-0.3 2.9-0.8l0.9 5.5q-1.1 0.6-3.3 1-2.3 0.5-4.7 0.5-3.7 0-6.5-1.2-2.7-1.1-4.5-3.1-1.8-2.1-2.7-4.9-0.9-2.8-0.9-6.1z"/>
			<path id="Layer" class="s0" d="m801.4 355.2v-41.9l6.7-1.2v14.4q1.1-0.4 2.6-0.6 1.4-0.3 2.9-0.3 3.5 0 5.8 0.9 2.3 1 3.7 2.8 1.4 1.7 1.9 4.2 0.6 2.4 0.6 5.4v16.3h-6.7v-15.3q0-2.3-0.3-3.9-0.3-1.7-1-2.7-0.7-1-1.9-1.5-1.1-0.5-2.9-0.5-1.3 0-2.7 0.3-1.4 0.3-2 0.5v23.1c0 0-6.7 0-6.7 0z"/>
			<path id="Layer" fill-rule="evenodd" class="s0" d="m830 340.8q0-3.8 1.2-6.7 1.1-2.9 3-4.8 1.9-1.9 4.3-2.9 2.4-0.9 5-0.9 6 0 9.4 3.7 3.3 3.7 3.3 11.1 0 0.5 0 1.2 0 0.7-0.1 1.3h-19.1q0.2 3.5 2.4 5.4 2.2 1.9 6.4 1.9 2.4 0 4.5-0.4 2-0.5 3.1-1l0.9 5.5q-0.5 0.3-1.5 0.6-1 0.3-2.2 0.6-1.3 0.2-2.7 0.4-1.4 0.2-2.9 0.2-3.9 0-6.7-1.2-2.8-1.1-4.7-3.1-1.8-2.1-2.7-4.8-0.9-2.8-0.9-6zm19.5-3q0-1.4-0.4-2.7-0.4-1.2-1.1-2.2-0.8-0.9-1.8-1.4-1.1-0.5-2.6-0.5c-1 0-2 0.2-2.7 0.6q-1.2 0.5-2 1.5-0.8 0.9-1.3 2.2-0.4 1.2-0.6 2.5z"/>
		</g>
		<g id="Layer">
			<path id="Layer" fill-rule="evenodd" class="s1" d="m363.9 229.6v-90.3h42.7q15 0 26.3 5.5 11.4 5.6 17.8 15.6 6.4 10.1 6.4 24.1c0 9.2-2.2 17.1-6.4 23.9q-6.4 10.1-17.8 15.7-11.3 5.5-26.3 5.5zm25.6-20.4h16.1q7.7 0 13.5-2.9 5.7-2.9 9-8.5 3.2-5.6 3.2-13.3c0-5.2-1.1-9.8-3.2-13.5q-3.3-5.5-9-8.4-5.8-2.9-13.5-2.9h-16.1z"/>
			<path id="Layer" class="s1" d="m540.6 159h-45.3v19.9h39.9v19.8h-39.9v30.9h-25.6v-90.3h70.9v19.7z"/>
			<path id="Layer" fill-rule="evenodd" class="s1" d="m552.2 229.6v-90.3h42.7q15 0 26.3 5.5 11.4 5.6 17.8 15.6 6.4 10.1 6.4 24.1c0 9.2-2.1 17.1-6.4 23.9q-6.4 10.1-17.8 15.7-11.3 5.5-26.3 5.5zm25.6-20.4h16.1q7.8 0 13.5-2.9 5.8-2.9 9-8.5 3.2-5.6 3.2-13.3c0-5.2-1.1-9.8-3.2-13.5q-3.2-5.5-9-8.4-5.7-2.9-13.5-2.9h-16.1z"/>
			<path id="Layer" fill-rule="evenodd" class="s1" d="m697.5 205.6h-13.9v24h-25.6v-90.3h41.3q12.4 0 21.4 4 9 4 13.9 11.5c3.2 5.1 4.9 11.1 4.9 17.9q0 10.2-4.9 17.6-4.7 7-12.8 10.9l19.5 28.4h-27.4c0 0-16.4-24-16.4-24zm12.2-42.7q-3.9-3.5-11.9-3.5h-14.2v26.5h14.2q8 0 11.9-3.5c2.7-2.3 4-5.5 4-9.7q0-6.3-4-9.8z"/>
		</g>
	</g>
	<g id="Layer">
		<path id="Layer" class="s0" d="m240.5 198.8l30.1 30.1-30.1 30.1-30.1-30.1z"/>
		<path id="Layer" class="s0" d="m39 83.8l35.3 35.2-31.4 31.4 26.2 26.2-22.5 22.5 27.7 27.7-35.3 35.2-35.2-35.2 27.7-27.7-22.6-22.5 26.2-26.2-31.3-31.4 35.2-35.3z"/>
		<path id="Layer" class="s0" d="m109.6 265.8l21.2 21.2-21.2 21.2-21.2-21.2z"/>
		<g id="Layer">
			<path id="Layer" class="s0" d="m174 254.9l31.1 31.1-35.3 35.3-35.2-35.3 31.1-31.1-26-25.9 28.5-28.5-19.6-19.6 21.2-21.2 21.2 21.2-19.6 19.6 28.5 28.5-25.9 25.9z"/>
			<path id="Layer" class="s0" d="m113.7 203l26 26-30.1 30.1-30.1-30.1 25.9-26-31.1-31.1 26.5-26.4-26.5-26.5 35.3-35.3 35.2 35.3-26.4 26.5 26.4 26.4-31.1 31.1z"/>
		</g>
		<path id="Layer" class="s0" d="m240.5 149.7l21.2 21.2-21.2 21.2-21.2-21.2z"/>
		<path id="Layer" class="s0" d="m109.6 324.9l13.4 13.5-13.4 13.4-13.4-13.4z"/>
		<path id="Layer" class="s0" d="m109.6 3.2l13.4 13.4-13.4 13.4-13.4-13.4z"/>
		<path id="Layer" class="s0" d="m109.6 362.2l13.4 13.4-13.4 13.4-13.4-13.4z"/>
		<path id="Layer" class="s0" d="m240.5 284.9l13.4 13.4-13.4 13.4-13.4-13.4z"/>
		<path id="Layer" class="s0" d="m39 41l13.5 13.4-13.5 13.5-13.4-13.5z"/>
		<path id="Layer" class="s0" d="m169.8 359.2l-13.4-13.4 13.4-13.4 13.4 13.4z"/>
		<path id="Layer" class="s0" d="m39 269.7l13.5 13.5-13.5 13.4-13.4-13.4z"/>
		<path id="Layer" class="s0" d="m109.6 35.7l21.2 21.2-21.2 21.1-21.2-21.1z"/>
		<path id="Layer" class="s0" d="m240.5 97.3l21.2 21.2-21.2 21.2-21.2-21.2z"/>
	</g>
</svg>