<svg version="1.2" xmlns="http://www.w3.org/2000/svg" viewBox="0 0 1440 386" width="1440" height="386">
	<title>FRDR_logo_english-first_reversed-svg</title>
	<style>
		.s0 { fill: #fbfafa } 
		.s1 { fill: #dda800 } 
	</style>
	<path id="Layer" class="s0" d="m0.5 296.7v-38.5h21.9v3.3h-18.2v13.6h16.1v3.2h-16.1v18.4h-3.8z"/>
	<path id="Layer" fill-rule="evenodd" class="s0" d="m24.9 282.3q0-3.8 1.1-6.6 1-2.8 2.8-4.6 1.8-1.9 4-2.8 2.2-1 4.6-1 5.3 0 8.4 3.5 3.2 3.4 3.2 10.6 0 0.4 0 0.9-0.1 0.4-0.1 0.8h-20.2q0.2 5.3 2.6 8.1 2.5 2.8 7.8 2.8 3 0 4.7-0.5 1.7-0.6 2.5-1l0.6 3.1q-0.7 0.5-2.9 1.1-2.1 0.6-5 0.6-3.8 0-6.4-1.1-2.7-1.1-4.4-3.1-1.7-2-2.5-4.8-0.8-2.7-0.8-6zm20.4-2.3q-0.1-4.5-2.1-7-2-2.5-5.7-2.5-1.9 0-3.5 0.8-1.5 0.8-2.6 2.1-1.2 1.3-1.8 3-0.6 1.7-0.7 3.6z"/>
	<path id="Layer" fill-rule="evenodd" class="s0" d="m77.7 295.8q-1.6 0.6-4.1 1.1-2.5 0.5-6.4 0.5-3.1 0-5.7-1.1-2.6-1-4.4-2.9-1.9-2-2.9-4.8-1.1-2.7-1.1-6.2 0-3.3 0.9-6.1 0.9-2.7 2.5-4.7 1.7-2 4.1-3.1 2.4-1.1 5.5-1.1 2.9 0 5 0.8 2 0.8 3 1.5v-15.4l3.6-0.7zm-3.6-22.6q-0.5-0.4-1.3-0.8-0.7-0.5-1.7-0.9-1-0.3-2.2-0.6-1.1-0.2-2.4-0.2-2.7 0-4.5 0.9-1.8 0.9-2.9 2.5-1.1 1.6-1.6 3.7-0.5 2.2-0.5 4.6 0 5.6 2.8 8.7 2.9 3 7.5 3 2.7 0 4.3-0.3 1.7-0.2 2.5-0.5z"/>
	<path id="Layer" fill-rule="evenodd" class="s0" d="m83.3 282.3q0-3.8 1.1-6.6 1-2.8 2.8-4.6 1.8-1.9 4-2.8 2.2-1 4.6-1 5.3 0 8.5 3.5 3.1 3.4 3.1 10.6 0 0.4 0 0.9-0.1 0.4-0.1 0.8h-20.2q0.2 5.3 2.6 8.1 2.5 2.8 7.8 2.8 3 0 4.7-0.5 1.7-0.6 2.5-1l0.6 3.1q-0.7 0.5-2.9 1.1-2.1 0.6-5 0.6-3.8 0-6.4-1.1-2.7-1.1-4.4-3.1-1.7-2-2.5-4.8-0.8-2.7-0.8-6zm20.4-2.3q-0.1-4.5-2.1-7-2-2.5-5.7-2.5-1.9 0-3.5 0.8-1.5 0.8-2.6 2.1-1.2 1.3-1.8 3-0.6 1.7-0.7 3.6z"/>
	<path id="Layer" class="s0" d="m122.6 267.4q1.8 0 3.4 0.3 1.6 0.3 2.2 0.6l-0.8 3.1q-0.4-0.2-1.8-0.5-1.3-0.2-3.5-0.2-2.4 0-3.8 0.3-1.4 0.3-1.9 0.5v25.2h-3.6v-27.4q1.4-0.6 3.9-1.2 2.4-0.7 5.9-0.7z"/>
	<path id="Layer" fill-rule="evenodd" class="s0" d="m144.9 268.1q1.9 0.8 3.1 2.2 1.3 1.5 1.8 3.4 0.6 2 0.6 4.2v18.1q-0.6 0.2-1.6 0.4-1.1 0.2-2.5 0.4-1.4 0.2-3 0.4-1.7 0.1-3.5 0.1-2.3 0-4.2-0.5-1.9-0.5-3.3-1.6-1.4-1.1-2.3-2.8-0.8-1.6-0.8-4.1c0-1.6 0.3-2.9 0.9-4q0.9-1.7 2.5-2.7 1.6-1.1 3.9-1.6 2.2-0.5 4.8-0.5 0.8 0 1.6 0.1 0.9 0 1.7 0.2 0.8 0.1 1.4 0.3 0.6 0.1 0.8 0.2v-1.8q0-1.5-0.2-2.9-0.3-1.4-1-2.5-0.7-1.2-2.1-1.9-1.4-0.7-3.6-0.7-3.2 0.1-4.7 0.5-1.6 0.4-2.3 0.7l-0.5-3.2q1-0.4 2.9-0.8 2-0.4 4.8-0.4 2.8 0 4.8 0.8zm-4.5 26q2.1 0 3.7-0.2 1.6-0.1 2.7-0.3v-10.1q-0.7-0.3-2-0.6-1.3-0.3-3.6-0.3-1.4 0-2.8 0.2-1.5 0.2-2.7 0.8-1.2 0.7-2 1.8-0.8 1.1-0.8 2.9 0 1.6 0.6 2.7 0.5 1.1 1.5 1.8 0.9 0.7 2.3 1 1.4 0.3 3.1 0.3zm-0.3-26.8z"/>
	<path id="Layer" class="s0" d="m160.7 268h11.4v3h-11.4v15.3q0 2.5 0.4 4 0.4 1.5 1.2 2.3 0.8 0.9 1.9 1.2 1.1 0.2 2.4 0.2 2.3 0 3.7-0.5 1.4-0.5 2.1-1l0.9 3q-0.8 0.5-2.7 1.2-1.9 0.6-4.2 0.6-2.7 0-4.5-0.7-1.8-0.7-2.9-2.1-1.1-1.4-1.5-3.5-0.5-2.1-0.4-5v-26.4l3.6-0.7z"/>
	<path id="Layer" fill-rule="evenodd" class="s0" d="m174.6 282.3q0-3.8 1.1-6.6 1.1-2.8 2.8-4.6 1.8-1.9 4-2.8 2.3-1 4.7-1 5.3 0 8.4 3.5 3.1 3.4 3.1 10.6 0 0.4 0 0.9 0 0.4-0.1 0.8h-20.1q0.1 5.3 2.6 8.1 2.4 2.8 7.8 2.8 2.9 0 4.6-0.5 1.7-0.6 2.5-1l0.7 3.1q-0.8 0.5-2.9 1.1-2.2 0.6-5 0.6-3.8 0-6.5-1.1-2.7-1.1-4.4-3.1-1.7-2-2.5-4.8-0.7-2.7-0.7-6zm20.3-2.3q-0.1-4.5-2.1-7-2-2.5-5.6-2.5-2 0-3.5 0.8-1.5 0.8-2.7 2.1-1.1 1.3-1.7 3-0.7 1.7-0.8 3.6z"/>
	<path id="Layer" fill-rule="evenodd" class="s0" d="m227.4 295.8q-1.6 0.6-4.1 1.1-2.5 0.5-6.3 0.5-3.2 0-5.8-1.1-2.5-1-4.4-2.9-1.8-2-2.9-4.8-1-2.7-1-6.2 0-3.3 0.9-6.1 0.8-2.7 2.5-4.7 1.6-2 4.1-3.1 2.4-1.1 5.5-1.1 2.8 0 4.9 0.8 2.1 0.8 3 1.5v-15.4l3.6-0.7zm-3.6-22.6q-0.5-0.4-1.2-0.8-0.8-0.5-1.8-0.9-1-0.3-2.1-0.6-1.2-0.2-2.5-0.2-2.6 0-4.4 0.9-1.8 0.9-3 2.5-1.1 1.6-1.6 3.7-0.5 2.2-0.5 4.6 0 5.6 2.9 8.7 2.8 3 7.5 3 2.6 0 4.3-0.3 1.6-0.2 2.4-0.5z"/>
	<path id="Layer" fill-rule="evenodd" class="s1" d="m257 257.8q8.3 0 12.7 3.1 4.4 3 4.4 9.3 0 7.8-7.7 10.6 1.1 1.3 2.4 3.1 1.3 1.9 2.7 4 1.4 2.1 2.7 4.4 1.2 2.2 2.2 4.4h-7.8q-1-2-2.3-4-1.2-2.1-2.4-4-1.3-1.9-2.5-3.6-1.2-1.7-2.3-3-0.8 0-1.3 0h-4.5v14.6h-7v-37.9q2.6-0.6 5.5-0.8 2.9-0.2 5.1-0.2zm0.5 6.1q-2.2 0-4.1 0.2v12.4h3.1q2.5 0 4.5-0.3 1.9-0.3 3.2-1 1.3-0.7 2-1.9 0.7-1.2 0.7-3.1 0-1.8-0.7-3-0.7-1.2-1.9-2-1.3-0.7-3-1-1.7-0.3-3.8-0.3z"/>
	<path id="Layer" fill-rule="evenodd" class="s1" d="m277.8 282.3q0-3.8 1.2-6.7 1.1-2.9 3-4.8 1.9-1.9 4.3-2.9 2.5-1 5-1 6 0 9.4 3.8 3.3 3.7 3.3 11.1 0 0.5 0 1.2 0 0.7-0.1 1.3h-19.1q0.2 3.5 2.4 5.4 2.2 1.9 6.4 1.9 2.4 0 4.5-0.5 2-0.4 3.2-0.9l0.9 5.5q-0.6 0.3-1.6 0.6-1 0.3-2.2 0.5-1.2 0.3-2.7 0.5-1.4 0.1-2.9 0.1-3.9 0-6.7-1.1-2.8-1.1-4.6-3.2-1.9-2-2.8-4.7-0.9-2.8-0.9-6.1zm19.5-3q0-1.3-0.4-2.6-0.3-1.2-1.1-2.2-0.7-0.9-1.8-1.4-1.1-0.5-2.6-0.5c-1 0-1.9 0.1-2.7 0.5q-1.2 0.6-2 1.6-0.8 0.9-1.2 2.1-0.5 1.3-0.7 2.5z"/>
	<path id="Layer" class="s1" d="m316.4 291.9q2.6 0 3.8-0.7 1.3-0.6 1.3-2.2 0-1.4-1.3-2.3-1.3-1-4.3-2.1-1.9-0.7-3.4-1.4-1.5-0.8-2.6-1.8-1.1-1-1.8-2.4-0.6-1.4-0.6-3.4 0-4 2.9-6.3 3-2.4 8-2.3 2.6 0 4.9 0.4 2.3 0.5 3.5 0.9l-1.2 5.5q-1.1-0.5-2.9-0.9-1.7-0.5-4-0.5-2 0-3.3 0.7-1.3 0.7-1.3 2.2 0 0.7 0.3 1.2 0.2 0.6 0.8 1.1 0.7 0.4 1.7 0.9 1 0.5 2.4 1 2.4 0.9 4 1.7 1.7 0.9 2.8 2 1.1 1.1 1.6 2.4 0.5 1.4 0.5 3.4 0 4.1-3.1 6.3-3.1 2.1-8.8 2.1-3.8 0-6.2-0.6-2.3-0.7-3.2-1l1.1-5.7q1.5 0.7 3.6 1.2 2.1 0.6 4.8 0.6z"/>
	<path id="Layer" fill-rule="evenodd" class="s1" d="m330.9 282.3q0-3.8 1.2-6.7 1.1-2.9 3-4.8 1.9-1.9 4.3-2.9 2.5-1 5-1 6 0 9.4 3.8 3.3 3.7 3.3 11.1 0 0.5 0 1.2 0 0.7-0.1 1.3h-19.1q0.3 3.5 2.5 5.4 2.1 1.9 6.3 1.9 2.5 0 4.5-0.5 2-0.4 3.2-0.9l0.9 5.5q-0.6 0.3-1.6 0.6-0.9 0.3-2.2 0.5-1.2 0.3-2.7 0.5-1.4 0.1-2.9 0.1-3.8 0-6.7-1.1-2.8-1.1-4.6-3.2-1.9-2-2.8-4.7-0.8-2.8-0.8-6.1zm19.4-3q0-1.3-0.3-2.6-0.4-1.2-1.2-2.2-0.7-0.9-1.8-1.4-1.1-0.5-2.6-0.5c-1 0-1.9 0.1-2.7 0.5q-1.2 0.6-2 1.6-0.8 0.9-1.2 2.1-0.5 1.3-0.7 2.5z"/>
	<path id="Layer" fill-rule="evenodd" class="s1" d="m371.8 266.9q3.3 0 5.6 0.9 2.3 0.8 3.6 2.3 1.4 1.5 2 3.6 0.5 2.2 0.5 4.7v17.6q-1.5 0.4-4.6 0.8-3.2 0.5-7.1 0.5-2.6 0-4.8-0.5-2.2-0.5-3.7-1.6-1.5-1.1-2.4-2.9-0.8-1.8-0.8-4.4 0-2.5 0.9-4.2 1-1.7 2.7-2.8 1.6-1.1 3.8-1.6 2.2-0.4 4.6-0.4 1.1 0 2.3 0.1 1.3 0.2 2.7 0.5v-1.1q0-1.2-0.3-2.2-0.3-1.1-1-1.9-0.7-0.8-1.8-1.3-1.2-0.4-2.9-0.4-2.3 0-4.3 0.3-1.9 0.4-3.1 0.8l-0.8-5.4q1.2-0.5 3.7-0.9 2.4-0.5 5.2-0.5zm0.6 25.1q3.1 0 4.7-0.3v-7.5q-0.6-0.1-1.6-0.3-1.1-0.2-2.4-0.2-1.1 0-2.2 0.2-1.2 0.2-2.1 0.6-0.9 0.4-1.4 1.2-0.6 0.9-0.6 2.1 0 2.4 1.5 3.3 1.5 0.9 4.1 0.9z"/>
	<path id="Layer" class="s1" d="m406.1 273.7q-0.8-0.3-2.3-0.6-1.5-0.3-3.4-0.3-1.1 0-2.4 0.2-1.2 0.3-1.7 0.4v23.3h-6.7v-27.7q1.9-0.7 4.8-1.3 2.9-0.7 6.5-0.7 0.7 0 1.5 0.1 0.9 0.1 1.8 0.2 0.9 0.2 1.7 0.4 0.9 0.2 1.4 0.3z"/>
	<path id="Layer" class="s1" d="m408 282.2q0-3.2 1-6 1-2.8 2.9-4.9 1.9-2 4.5-3.2 2.7-1.2 6-1.2 4.1 0 7.8 1.5l-1.4 5.5q-1.2-0.5-2.7-0.8-1.5-0.3-3.1-0.3-4 0-6 2.5-2.1 2.4-2.1 6.9c0 3 0.7 5.2 2 6.9q1.9 2.5 6.5 2.5 1.7 0 3.4-0.3 1.7-0.4 2.9-0.9l0.9 5.6q-1.1 0.6-3.3 1-2.3 0.4-4.7 0.4-3.7 0-6.4-1.1-2.8-1.1-4.6-3.2-1.8-2-2.7-4.8-0.9-2.8-0.9-6.1z"/>
	<path id="Layer" class="s1" d="m434.1 296.7v-42l6.7-1.1v14.4q1.1-0.4 2.6-0.7 1.5-0.2 2.9-0.2 3.5-0.1 5.8 0.9 2.3 1 3.7 2.7 1.4 1.8 2 4.2 0.6 2.5 0.6 5.5v16.3h-6.8v-15.3q0-2.3-0.3-3.9-0.3-1.7-1-2.7-0.6-1-1.8-1.5-1.2-0.5-2.9-0.5-1.3 0-2.7 0.3-1.4 0.3-2.1 0.5v23.1z"/>
	<path id="Layer" fill-rule="evenodd" class="s1" d="m106.3 333q0 4.9-1.5 8.6-1.6 3.7-4.4 6.2-2.9 2.5-6.9 3.7-4 1.2-8.9 1.2-2.4-0.1-5.3-0.2-2.9-0.2-5.6-0.8v-37.4q2.7-0.6 5.6-0.8 3.1-0.2 5.4-0.2 4.8 0 8.8 1.2 4 1.1 6.9 3.5 2.8 2.4 4.4 6.1 1.5 3.7 1.5 8.8zm-25.6 13.5q0.6 0.1 1.6 0.1 1 0 2.7 0 7.1 0 10.5-3.5 3.5-3.6 3.5-10.1c0-4.2-1.1-7.7-3.4-10q-3.4-3.5-10.5-3.5-3.1 0-4.4 0.2z"/>
	<path id="Layer" fill-rule="evenodd" class="s1" d="m120.9 322.5q0 0 0 0zm5.7 0.8q2.2 0.8 3.6 2.3 1.4 1.5 1.9 3.7 0.6 2.1 0.6 4.7v17.6q-1.5 0.3-4.7 0.8-3.1 0.4-7.1 0.4-2.6 0-4.7-0.5-2.2-0.5-3.7-1.6-1.5-1.1-2.4-2.9-0.9-1.7-0.9-4.4c0-1.7 0.4-3 1-4.2q1-1.7 2.6-2.8 1.7-1.1 3.9-1.5 2.2-0.5 4.6-0.5 1.1 0 2.3 0.1 1.2 0.2 2.6 0.5v-1.1q0-1.2-0.3-2.2-0.2-1.1-0.9-1.9-0.7-0.8-1.9-1.2-1.1-0.5-2.8-0.5-2.4 0-4.3 0.4-1.9 0.3-3.1 0.7l-0.9-5.4q1.3-0.4 3.7-0.9 2.5-0.4 5.2-0.4 3.4 0 5.7 0.8zm-5.7-0.8q0 0 0 0h0.1q0 0-0.1 0zm0.5 25q3.1 0 4.7-0.3v-7.5q-0.5-0.1-1.6-0.3-1-0.2-2.3-0.2-1.1 0-2.2 0.2-1.2 0.2-2.1 0.6-0.9 0.5-1.5 1.3-0.5 0.8-0.5 2 0 2.4 1.5 3.3 1.5 0.9 4 0.9z"/>
	<path id="Layer" class="s1" d="m138.4 315.5l6.7-1.1v8.8h10.3v5.6h-10.3v11.8q0 3.5 1.1 5 1.1 1.5 3.8 1.5 1.8 0 3.3-0.4 1.4-0.4 2.2-0.7l1.1 5.3q-1.1 0.5-3 1.1-1.9 0.5-4.5 0.5-3.1 0-5.2-0.8-2-0.9-3.3-2.5-1.2-1.5-1.7-3.8-0.5-2.2-0.5-5.1z"/>
	<path id="Layer" fill-rule="evenodd" class="s1" d="m170.1 322.5q3.3 0 5.6 0.8 2.3 0.8 3.6 2.3 1.4 1.5 2 3.7 0.6 2.1 0.5 4.7v17.6q-1.5 0.3-4.6 0.8-3.2 0.4-7.1 0.4-2.6 0-4.8-0.5-2.2-0.5-3.7-1.6-1.5-1.1-2.4-2.9-0.8-1.7-0.8-4.4c0-1.7 0.3-3 0.9-4.2q1-1.7 2.7-2.8 1.6-1.1 3.8-1.5 2.2-0.5 4.6-0.5 1.1 0 2.4 0.1 1.2 0.2 2.6 0.5v-1.1q0-1.2-0.3-2.2-0.3-1.1-1-1.9-0.7-0.8-1.8-1.2-1.2-0.5-2.9-0.5-2.3 0-4.2 0.4-2 0.3-3.2 0.7l-0.8-5.4q1.2-0.4 3.7-0.9 2.4-0.4 5.2-0.4zm0.6 25q3.1 0 4.7-0.3v-7.5q-0.6-0.1-1.6-0.3-1.1-0.2-2.4-0.2-1.1 0-2.2 0.2-1.1 0.2-2.1 0.6-0.9 0.5-1.4 1.3-0.6 0.8-0.6 2 0 2.4 1.5 3.3 1.5 0.9 4.1 0.9z"/>
	<path id="Layer" fill-rule="evenodd" class="s1" d="m210.8 313.4q8.4 0 12.8 3 4.4 3.1 4.4 9.3 0 7.9-7.7 10.6 1 1.3 2.3 3.1 1.4 1.9 2.8 4 1.4 2.2 2.6 4.4 1.3 2.3 2.3 4.4h-7.8q-1.1-2-2.3-4-1.2-2-2.5-3.9-1.2-2-2.4-3.7-1.3-1.7-2.3-3-0.8 0.1-1.3 0.1h-4.5v14.5h-7v-37.9q2.6-0.6 5.5-0.8 2.8-0.1 5.1-0.1zm0.5 6q-2.2 0-4.1 0.2v12.4h3.1q2.5 0 4.5-0.3 1.9-0.2 3.2-1 1.3-0.7 2-1.9 0.6-1.2 0.6-3.1 0-1.8-0.6-3-0.7-1.2-1.9-2-1.3-0.7-3-1-1.7-0.3-3.8-0.3z"/>
	<path id="Layer" fill-rule="evenodd" class="s1" d="m231.7 337.8q0-3.8 1.1-6.7 1.2-2.9 3-4.8 1.9-1.9 4.4-2.9 2.4-0.9 5-0.9 6 0 9.3 3.7 3.4 3.7 3.4 11.1 0 0.5 0 1.2-0.1 0.7-0.1 1.3h-19.2q0.3 3.5 2.5 5.4 2.2 1.9 6.4 1.9 2.4 0 4.4-0.4 2.1-0.5 3.2-1l0.9 5.5q-0.5 0.3-1.5 0.6-1 0.3-2.2 0.6-1.3 0.2-2.7 0.4-1.5 0.2-3 0.2-3.8 0-6.6-1.2-2.9-1.1-4.7-3.1-1.8-2.1-2.7-4.8-0.9-2.8-0.9-6zm19.5-3q0-1.4-0.4-2.7-0.4-1.2-1.1-2.2-0.8-0.9-1.9-1.4-1-0.5-2.5-0.5c-1 0-2 0.2-2.8 0.6q-1.1 0.5-1.9 1.5-0.8 0.9-1.3 2.2-0.4 1.2-0.6 2.5z"/>
	<path id="Layer" fill-rule="evenodd" class="s1" d="m288.9 337.7q0 3.4-0.9 6.1-0.9 2.8-2.5 4.8-1.6 2-4 3.1-2.4 1.1-5.5 1.1-2 0-3.7-0.5-1.8-0.5-2.9-1.1v11.3h-6.7v-38.4q2.1-0.5 5.1-1 3-0.5 6.3-0.5c2.2 0 4.3 0.3 6.1 1q2.8 1.1 4.7 3 1.9 2 2.9 4.8 1.1 2.8 1.1 6.3zm-6.9 0.1q0-4.5-2.1-7-2-2.5-6.5-2.5-0.9 0-2 0.1-1 0.1-2 0.4v16.6q0.9 0.6 2.4 1.1 1.5 0.5 3.1 0.5 3.7 0 5.4-2.5 1.7-2.5 1.7-6.7z"/>
	<path id="Layer" fill-rule="evenodd" class="s1" d="m320 337.7q0 3.4-1 6.2-1 2.9-2.8 4.9-1.8 2-4.4 3.1-2.6 1.1-5.7 1.1-3.1 0-5.7-1.1-2.5-1.1-4.4-3.1-1.8-2-2.8-4.9-1-2.8-1-6.2 0-3.5 1-6.3 1-2.8 2.9-4.8 1.8-2 4.4-3.1 2.5-1 5.6-1 3.1 0 5.6 1 2.6 1.1 4.4 3.1 1.9 2 2.9 4.8 1 2.8 1 6.3zm-6.9 0q0-4.4-1.8-6.9-1.9-2.5-5.2-2.5-3.3 0-5.2 2.5-1.9 2.5-1.9 6.9c0 2.9 0.7 5.2 1.9 6.9q1.9 2.6 5.2 2.6 3.3 0 5.2-2.6 1.8-2.5 1.8-6.9z"/>
	<path id="Layer" class="s1" d="m332.1 347.4q2.7 0 3.9-0.6 1.2-0.7 1.2-2.2 0-1.5-1.3-2.4-1.3-1-4.3-2.1-1.8-0.6-3.3-1.4-1.6-0.7-2.7-1.7-1.1-1.1-1.7-2.5-0.7-1.4-0.7-3.4 0-4 3-6.3 2.9-2.3 8-2.3 2.5 0 4.8 0.4 2.4 0.5 3.5 1l-1.2 5.4q-1.1-0.5-2.8-0.9-1.7-0.4-4-0.4-2.1 0-3.3 0.7-1.3 0.6-1.3 2.1 0 0.7 0.2 1.3 0.3 0.5 0.9 1 0.6 0.5 1.6 0.9 1 0.5 2.4 1 2.4 0.9 4.1 1.8 1.7 0.8 2.7 1.9 1.1 1.1 1.6 2.5 0.5 1.4 0.5 3.3 0 4.2-3.1 6.3-3 2.1-8.8 2.1-3.8 0-6.1-0.6-2.3-0.6-3.3-1l1.2-5.6q1.5 0.6 3.6 1.1 2 0.6 4.7 0.6z"/>
	<path id="Layer" class="s1" d="m355.5 314.7q-0.1 1.9-1.3 3-1.2 1.1-2.9 1.1c-1.1 0-2.1-0.4-2.9-1.1q-1.2-1.1-1.2-3c0-1.3 0.4-2.3 1.2-3.1q1.2-1.1 2.9-1.1c1.2 0 2.1 0.4 2.9 1.1q1.2 1.2 1.3 3.1zm-0.8 37.5h-6.7v-29h6.7z"/>
	<path id="Layer" class="s1" d="m360.6 315.5l6.8-1.1v8.8h10.3v5.6h-10.4v11.8q0 3.5 1.2 5 1.1 1.5 3.7 1.5 1.9 0 3.3-0.4 1.4-0.4 2.2-0.7l1.1 5.3q-1.1 0.5-3 1.1-1.9 0.5-4.4 0.5-3.1 0-5.2-0.8-2.1-0.9-3.3-2.5-1.2-1.5-1.8-3.8-0.4-2.2-0.5-5.1z"/>
	<path id="Layer" fill-rule="evenodd" class="s1" d="m407.9 337.7q0 3.4-1 6.2-1 2.9-2.8 4.9-1.8 2-4.4 3.1-2.6 1.1-5.7 1.1-3.1 0-5.7-1.1-2.5-1.1-4.4-3.1-1.8-2-2.8-4.9-1.1-2.8-1.1-6.2 0-3.5 1.1-6.3 1-2.8 2.9-4.8 1.8-2 4.4-3.1 2.5-1 5.6-1 3 0 5.6 1 2.6 1.1 4.4 3.1 1.9 2 2.9 4.8 1 2.8 1 6.3zm-6.9 0q0-4.4-1.8-6.9-1.9-2.5-5.2-2.5-3.3 0-5.2 2.5-1.9 2.5-1.9 6.9c0 2.9 0.7 5.2 1.9 6.9q1.9 2.6 5.2 2.6 3.3 0 5.2-2.6 1.8-2.5 1.8-6.9z"/>
	<path id="Layer" class="s1" d="m429.3 329.2q-0.9-0.2-2.3-0.6-1.5-0.3-3.5-0.3-1.1 0-2.3 0.3-1.3 0.2-1.8 0.4v23.2h-6.7v-27.6q1.9-0.8 4.9-1.4 2.9-0.6 6.4-0.6 0.7 0 1.6 0 0.9 0.1 1.8 0.3 0.9 0.1 1.7 0.3 0.8 0.2 1.3 0.4z"/>
	<path id="Layer" class="s1" d="m459.1 323.2q-4.5 16.5-10.4 30-1.1 2.5-2.3 4.2-1.2 1.8-2.6 3-1.5 1.1-3.2 1.7-1.8 0.5-4.1 0.5-1.6 0-3.1-0.3-1.6-0.4-2.3-0.8l1.2-5.3q2 0.7 3.9 0.7 2.7 0 4.1-1.2 1.5-1.3 2.6-3.9-3.1-6.1-6.1-13.3-2.9-7.2-5.2-15.3h7.2q0.5 2.3 1.3 5 0.8 2.8 1.8 5.6 0.9 2.8 2 5.5 1.1 2.8 2.1 5.2 1.8-4.9 3.4-10.5 1.5-5.6 2.8-10.8z"/>
	<path id="Layer" class="s0" d="m163.6 156h-45.3v19.9h39.9v19.8h-39.9v30.9h-25.5v-90.3h70.8z"/>
	<path id="Layer" fill-rule="evenodd" class="s0" d="m214.8 202.6h-14v24h-25.5v-90.3h41.3q12.4 0 21.3 4 9 4 13.9 11.5c3.3 5.1 4.9 11.1 4.9 17.9q0 10.2-4.9 17.6-4.6 7-12.8 10.9l19.5 28.4h-27.3zm12.2-42.7q-4-3.5-12-3.5h-14.2v26.5h14.2q8 0 12-3.5c2.6-2.3 3.9-5.5 3.9-9.7q0-6.3-3.9-9.8z"/>
	<path id="Layer" fill-rule="evenodd" class="s0" d="m363.5 181.5q0 13.8-6.4 23.9-6.4 10.1-17.7 15.7-11.4 5.5-26.3 5.5h-42.8v-90.3h42.8q14.9 0 26.3 5.5 11.3 5.6 17.7 15.6c4.3 6.8 6.4 14.8 6.4 24.1zm-29 13.3c2.1-3.7 3.2-8.1 3.2-13.4q0-7.8-3.2-13.4-3.2-5.5-9-8.4-5.7-2.9-13.5-2.9h-16.1v49.5h16.1q7.8 0 13.5-2.9 5.8-2.9 9-8.5z"/>
	<path id="Layer" fill-rule="evenodd" class="s0" d="m415.7 202.6h-14v24h-25.5v-90.3h41.3q12.4 0 21.3 4 9 4 13.9 11.5c3.3 5.1 4.9 11.1 4.9 17.9q0 10.2-4.9 17.6-4.6 7-12.8 10.9l19.5 28.4h-27.4c0.1 0-16.3-24-16.3-24zm12.2-42.7q-4-3.5-12-3.5h-14.2v26.5h14.2q8 0 12-3.5c2.6-2.3 3.9-5.5 3.9-9.7q0-6.3-3.9-9.8z"/>
	<path id="Layer" fill-rule="evenodd" class="s1" d="m950 277.4q0 5-1.6 8.7-1.5 3.7-4.4 6.2-2.8 2.5-6.9 3.6-4 1.2-8.9 1.2-2.3 0-5.2-0.2-3-0.2-5.7-0.8v-37.3q2.7-0.6 5.7-0.8 3-0.2 5.3-0.2 4.9 0 8.9 1.2 4 1.1 6.8 3.5 2.9 2.4 4.4 6.1 1.6 3.7 1.6 8.8zm-25.7 13.5q0.6 0.1 1.6 0.1 1 0 2.8 0 7 0 10.5-3.6 3.5-3.5 3.5-10c0-4.3-1.2-7.7-3.4-10q-3.4-3.5-10.5-3.5-3.1 0-4.5 0.1z"/>
	<path id="Layer" fill-rule="evenodd" class="s1" d="m953.8 282.3q0-3.8 1.2-6.7 1.1-2.9 3-4.8 1.9-1.9 4.3-2.9 2.5-1 5-1 6 0 9.4 3.8 3.3 3.7 3.3 11.1 0.1 0.5 0 1.2 0 0.7-0.1 1.3h-19.1q0.3 3.5 2.5 5.4 2.1 1.9 6.3 1.9 2.5 0 4.5-0.5 2-0.4 3.2-0.9l0.9 5.5q-0.6 0.3-1.6 0.6-0.9 0.3-2.2 0.5-1.2 0.3-2.7 0.5-1.4 0.1-2.9 0.1-3.8 0-6.7-1.1-2.8-1.1-4.6-3.2-1.9-2-2.8-4.7-0.8-2.8-0.8-6.1zm19.4-3q0-1.3-0.3-2.6-0.4-1.2-1.2-2.2-0.7-0.9-1.8-1.4-1.1-0.5-2.6-0.5c-1 0-1.9 0.1-2.7 0.5q-1.2 0.6-2 1.6-0.8 0.9-1.2 2.1-0.5 1.3-0.6 2.5zm1.1-23.5l-9.1 8.8-3.3-3 8.1-9.8z"/>
	<path id="Layer" fill-rule="evenodd" class="s1" d="m1011 282.2q0 3.3-0.8 6.1-0.9 2.8-2.5 4.8-1.6 2-4 3.1-2.4 1.1-5.5 1.1-2.1 0-3.8-0.5-1.7-0.5-2.8-1.1v11.3h-6.7v-38.4q2-0.5 5-1 3-0.5 6.3-0.5c2.3 0 4.4 0.3 6.2 1q2.7 1.1 4.7 3 1.9 2 2.9 4.8 1 2.8 1 6.3zm-8.9-6.9q-2-2.5-6.5-2.5-1 0-2 0.1-1 0.1-2 0.4v16.6q0.9 0.6 2.3 1.1 1.5 0.5 3.2 0.5 3.6 0 5.3-2.5 1.7-2.5 1.7-6.7 0-4.5-2-7zm2 7z"/>
	<path id="Layer" fill-rule="evenodd" class="s1" d="m1042.2 282.1q0 3.5-1 6.3-1 2.9-2.8 4.8-1.9 2-4.5 3.2-2.5 1.1-5.6 1.1-3.1 0-5.7-1.1-2.5-1.2-4.4-3.2-1.8-1.9-2.9-4.8-1-2.8-1-6.3 0-3.4 1-6.2 1.1-2.8 2.9-4.8 1.9-2 4.5-3.1 2.5-1.1 5.6-1.1 3 0 5.6 1.1 2.6 1.1 4.4 3.1 1.8 2 2.9 4.8 1 2.8 1 6.2zm-5.9-20.7l-2.6 3-5.5-4.5-5.5 4.5-2.7-3 8.2-7.7zm-1 20.7q0-4.4-1.9-6.9-1.8-2.5-5.2-2.5-3.3 0-5.2 2.5-1.8 2.5-1.8 6.9 0 4.4 1.8 6.9 1.9 2.6 5.2 2.6 3.4 0 5.2-2.6 1.9-2.5 1.9-6.9z"/>
	<path id="Layer" class="s1" d="m1046.7 260l6.7-1.1v8.8h10.3v5.6h-10.3v11.8q0 3.5 1.1 5 1.1 1.5 3.8 1.5 1.8 0 3.2-0.4 1.4-0.4 2.3-0.7l1.1 5.3q-1.2 0.5-3.1 1.1-1.9 0.5-4.4 0.5-3.1 0-5.2-0.9-2.1-0.8-3.3-2.4-1.2-1.5-1.7-3.8-0.5-2.2-0.5-5.1z"/>
	<path id="Layer" class="s0" d="m1090.8 253.6q2.3 0 3.8 0.4 1.5 0.3 1.9 0.6l-0.7 3.1q-0.6-0.3-1.8-0.6-1.2-0.3-3-0.3-3.9 0-5.5 2-1.6 1.9-1.7 6.2v3h11.6v3h-11.6v25.7h-3.6v-31.8q0-5.6 2.6-8.5 2.6-2.8 8-2.8z"/>
	<path id="Layer" fill-rule="evenodd" class="s0" d="m1096.7 282.3q0-3.8 1.1-6.6 1.1-2.8 2.8-4.6 1.8-1.9 4-2.8 2.3-1 4.7-1 5.2 0 8.4 3.5 3.1 3.4 3.1 10.6 0 0.4 0 0.9-0.1 0.4-0.1 0.8h-20.1q0.1 5.3 2.6 8.1 2.4 2.8 7.7 2.8 3 0 4.7-0.5 1.7-0.6 2.5-1l0.7 3.1q-0.8 0.5-2.9 1.1-2.2 0.6-5.1 0.6-3.8 0-6.4-1.1-2.7-1.1-4.4-3.1-1.7-2-2.5-4.8-0.8-2.7-0.8-6zm20.4-2.3q-0.1-4.5-2.1-7-2-2.5-5.7-2.5-1.9 0-3.4 0.8-1.6 0.8-2.7 2.1-1.1 1.3-1.8 3-0.6 1.7-0.7 3.6zm-0.2-23.4l-9.5 7.7-1.9-2.1 8.8-8.4z"/>
	<path id="Layer" fill-rule="evenodd" class="s0" d="m1149.5 295.8q-1.6 0.6-4.1 1.1-2.5 0.5-6.3 0.5-3.2 0-5.8-1.1-2.6-1-4.4-2.9-1.9-2-2.9-4.8-1-2.7-1-6.2 0-3.3 0.8-6.1 0.9-2.7 2.5-4.7 1.7-2 4.1-3.1 2.4-1.1 5.6-1.1 2.8 0 4.9 0.8 2.1 0.8 3 1.5v-15.4l3.6-0.7zm-3.6-22.6q-0.5-0.4-1.2-0.8-0.8-0.5-1.8-0.9-1-0.3-2.2-0.6-1.1-0.2-2.4-0.2-2.7 0-4.5 0.9-1.8 0.9-2.9 2.5-1.1 1.6-1.6 3.7-0.5 2.2-0.5 4.6 0 5.6 2.8 8.7 2.9 3 7.5 3 2.7 0 4.3-0.3 1.7-0.2 2.5-0.5z"/>
	<path id="Layer" fill-rule="evenodd" class="s0" d="m1155.1 282.3q0-3.8 1.1-6.6 1.1-2.8 2.8-4.6 1.8-1.9 4-2.8 2.3-1 4.7-1 5.2 0 8.4 3.5 3.1 3.4 3.1 10.6 0 0.4 0 0.9-0.1 0.4-0.1 0.8h-20.1q0.1 5.3 2.6 8.1 2.4 2.8 7.7 2.8 3 0 4.7-0.5 1.7-0.6 2.5-1l0.7 3.1q-0.8 0.5-2.9 1.1-2.2 0.6-5.1 0.6-3.8 0-6.4-1.1-2.7-1.1-4.4-3.1-1.7-2-2.5-4.8-0.8-2.7-0.8-6zm20.4-2.3q-0.1-4.5-2.1-7-2-2.5-5.7-2.5-1.9 0-3.4 0.8-1.6 0.8-2.7 2.1-1.1 1.3-1.8 3-0.6 1.7-0.7 3.6zm-0.2-23.4l-9.5 7.7-1.9-2.1 8.8-8.4z"/>
	<path id="Layer" class="s0" d="m1194.4 267.4q1.8 0 3.4 0.3 1.6 0.3 2.2 0.6l-0.7 3.1q-0.5-0.2-1.8-0.5-1.4-0.2-3.6-0.2-2.4 0-3.8 0.3-1.4 0.3-1.8 0.5v25.2h-3.6v-27.4q1.4-0.6 3.8-1.2 2.4-0.7 5.9-0.7z"/>
	<path id="Layer" fill-rule="evenodd" class="s0" d="m1201 282.3q0-3.8 1.1-6.6 1.1-2.8 2.8-4.6 1.8-1.9 4-2.8 2.3-1 4.7-1 5.2 0 8.4 3.5 3.1 3.4 3.1 10.6 0 0.4 0 0.9-0.1 0.4-0.1 0.8h-20.1q0.1 5.3 2.6 8.1 2.4 2.8 7.7 2.8 3 0 4.7-0.5 1.7-0.6 2.5-1l0.7 3.1q-0.8 0.5-2.9 1.1-2.2 0.6-5.1 0.6-3.8 0-6.4-1.1-2.7-1.1-4.4-3.1-1.7-2-2.5-4.8-0.8-2.7-0.8-6zm20.4-2.3q-0.1-4.5-2.1-7-2-2.5-5.7-2.5-1.9 0-3.4 0.8-1.6 0.8-2.7 2.1-1.1 1.3-1.8 3-0.6 1.7-0.7 3.6zm-0.2-23.4l-9.5 7.7-1.9-2.1 8.8-8.4z"/>
	<path id="Layer" fill-rule="evenodd" class="s0" d="m1265.5 295.8q-1.6 0.6-4.1 1.1-2.5 0.5-6.3 0.5-3.2 0-5.8-1.1-2.6-1-4.4-2.9-1.9-2-2.9-4.8-1-2.7-1-6.2 0-3.3 0.8-6.1 0.9-2.7 2.6-4.7 1.6-2 4-3.1 2.5-1.1 5.6-1.1 2.8 0 4.9 0.8 2.1 0.8 3 1.5v-15.4l3.6-0.7zm-3.6-22.6q-0.5-0.4-1.2-0.8-0.8-0.5-1.8-0.9-1-0.3-2.2-0.6-1.1-0.2-2.4-0.2-2.7 0-4.5 0.9-1.8 0.9-2.9 2.5-1.1 1.6-1.6 3.7-0.5 2.2-0.5 4.6 0 5.6 2.8 8.7 2.9 3 7.5 3 2.7 0 4.3-0.3 1.7-0.2 2.5-0.5z"/>
	<path id="Layer" fill-rule="evenodd" class="s0" d="m1271.1 282.3q0-3.8 1.1-6.6 1.1-2.8 2.8-4.6 1.8-1.9 4-2.8 2.3-1 4.7-1 5.3 0 8.4 3.5 3.1 3.4 3.1 10.6 0 0.4 0 0.9 0 0.4-0.1 0.8h-20.1q0.1 5.3 2.6 8.1 2.4 2.8 7.8 2.8 2.9 0 4.6-0.5 1.7-0.6 2.5-1l0.7 3.1q-0.8 0.5-2.9 1.1-2.2 0.6-5.1 0.6-3.7 0-6.4-1.1-2.7-1.1-4.4-3.1-1.7-2-2.5-4.8-0.8-2.7-0.8-6zm20.4-2.3q-0.1-4.5-2.1-7-2-2.5-5.6-2.5-2 0-3.5 0.8-1.6 0.8-2.7 2.1-1.1 1.3-1.8 3-0.6 1.7-0.7 3.6z"/>
	<path id="Layer" fill-rule="evenodd" class="s1" d="m941.6 351.3q-2 0.6-5 1.1-3 0.5-6.3 0.5c-2.3 0-4.4-0.3-6.2-1q-2.7-1.1-4.6-3-2-2-3-4.8-1-2.8-1-6.3c0-2.3 0.3-4.4 0.8-6.3q0.9-2.8 2.6-4.8 1.6-2 4-3 2.4-1.1 5.5-1.1 2.1 0 3.7 0.5 1.7 0.5 2.8 1.1v-13.9l6.7-1.2zm-19.2-13.7q0 4.5 2.1 7 2.1 2.5 5.8 2.5 1.6 0 2.8-0.1 1.1-0.1 1.8-0.3v-16.7q-0.8-0.6-2.3-1.1-1.5-0.5-3.2-0.5-3.6-0.1-5.3 2.5-1.7 2.4-1.7 6.7z"/>
	<path id="Layer" fill-rule="evenodd" class="s1" d="m974.3 337.7q0 3.4-1 6.2-1.1 2.9-2.9 4.9-1.8 2-4.4 3.1-2.6 1.1-5.7 1.1-3.1 0-5.6-1.1-2.6-1.1-4.4-3.1-1.9-2-2.9-4.9-1-2.8-1-6.2 0-3.5 1-6.3 1-2.8 2.9-4.8 1.9-2 4.4-3.1 2.6-1 5.6-1 3.1 0 5.7 1 2.5 1.1 4.4 3.1 1.8 2 2.8 4.8 1 2.8 1.1 6.3zm-6.9 0q0-4.4-1.9-6.9-1.8-2.5-5.2-2.5-3.3 0-5.2 2.5-1.8 2.5-1.8 6.9 0 4.3 1.8 6.9 1.9 2.6 5.2 2.6 3.4 0 5.2-2.6 1.9-2.5 1.9-6.9z"/>
	<path id="Layer" class="s1" d="m979 324.1q2-0.5 5.1-1 3.1-0.5 6.9-0.5 3.5 0 5.9 0.9 2.4 1 3.8 2.8 1.4 1.7 2 4.2 0.6 2.4 0.6 5.4v16.3h-6.7v-15.3q0-2.3-0.3-3.9-0.3-1.7-1-2.7-0.7-1-1.9-1.5-1.2-0.5-2.9-0.5-1.3 0-2.7 0.2-1.4 0.2-2.1 0.3v23.4h-6.7z"/>
	<path id="Layer copy" class="s1" d="m1009 324.1q2-0.5 5.1-1 3.1-0.5 6.9-0.5 3.5 0 5.9 0.9 2.4 1 3.8 2.8 1.4 1.7 2 4.2 0.6 2.4 0.6 5.4v16.3h-6.7v-15.3q0-2.3-0.3-3.9-0.3-1.7-1-2.7-0.7-1-1.9-1.5-1.2-0.5-2.9-0.5-1.3 0-2.7 0.2-1.4 0.2-2.1 0.3v23.4h-6.7z"/>
	<path id="Layer" fill-rule="evenodd" class="s1" d="m1037.8 337.8q0-3.8 1.1-6.7 1.1-2.9 3-4.8 1.9-1.9 4.4-2.9 2.4-0.9 5-0.9 6 0 9.3 3.7 3.4 3.7 3.4 11.1 0 0.5-0.1 1.2 0 0.7 0 1.3h-19.2q0.3 3.5 2.5 5.4 2.2 1.9 6.3 1.9 2.5 0 4.5-0.4 2-0.5 3.2-1l0.9 5.5q-0.6 0.3-1.5 0.6-1 0.3-2.3 0.6-1.2 0.2-2.6 0.4-1.5 0.2-3 0.2-3.8 0-6.6-1.2-2.9-1.1-4.7-3.1-1.8-2.1-2.7-4.8-0.9-2.8-0.9-6zm19.5-3q0-1.4-0.4-2.7-0.4-1.2-1.2-2.2-0.7-0.9-1.8-1.4-1.1-0.5-2.6-0.5-1.5 0-2.7 0.6-1.2 0.5-2 1.5-0.8 0.9-1.2 2.2-0.4 1.2-0.6 2.5zm1.1-23.6l-9.1 8.8-3.3-3 8.2-9.7z"/>
	<path id="Layer" fill-rule="evenodd" class="s1" d="m1067.4 337.8q0-3.8 1.1-6.7 1.1-2.9 3-4.8 1.9-1.9 4.4-2.9 2.4-0.9 5-0.9 6 0 9.3 3.7 3.4 3.7 3.4 11.1 0 0.5-0.1 1.2 0 0.7 0 1.3h-19.2q0.3 3.5 2.5 5.4 2.2 1.9 6.3 1.9 2.5 0 4.5-0.4 2-0.5 3.2-1l0.9 5.5q-0.6 0.3-1.5 0.6-1 0.3-2.3 0.6-1.2 0.2-2.7 0.4-1.4 0.2-2.9 0.2-3.8 0-6.7-1.2-2.8-1.1-4.6-3.1-1.8-2.1-2.7-4.8-0.9-2.8-0.9-6zm19.5-3q0-1.4-0.4-2.7-0.4-1.2-1.2-2.2-0.7-0.9-1.8-1.4-1.1-0.5-2.6-0.5-1.5 0-2.7 0.6-1.2 0.5-2 1.5-0.8 0.9-1.2 2.2-0.5 1.2-0.6 2.5z"/>
	<path id="Layer" class="s1" d="m1105.9 347.4q2.7 0 3.9-0.6 1.2-0.7 1.2-2.2 0-1.5-1.3-2.4-1.3-1-4.3-2.1-1.8-0.6-3.4-1.4-1.5-0.7-2.6-1.7-1.1-1.1-1.7-2.5-0.7-1.4-0.7-3.4 0-4 3-6.3 2.9-2.3 7.9-2.3 2.6 0 4.9 0.4 2.4 0.5 3.5 1l-1.2 5.4q-1.1-0.5-2.8-0.9-1.7-0.4-4-0.4-2.1 0-3.3 0.7-1.3 0.6-1.3 2.1 0 0.7 0.2 1.3 0.3 0.5 0.9 1 0.6 0.5 1.6 0.9 1 0.5 2.4 1 2.4 0.9 4.1 1.8 1.6 0.8 2.7 1.9 1.1 1.1 1.6 2.5 0.5 1.4 0.5 3.3 0 4.2-3.1 6.3-3 2.1-8.8 2.1-3.8 0-6.1-0.6-2.4-0.6-3.3-1l1.2-5.6q1.5 0.6 3.5 1.1 2.1 0.6 4.8 0.6z"/>
	<path id="Layer" fill-rule="evenodd" class="s1" d="m1158.3 351.3q-2 0.6-5 1.1-3 0.5-6.3 0.5c-2.2 0-4.4-0.3-6.2-1q-2.7-1.1-4.6-3-1.9-2-3-4.8-1-2.8-1-6.3 0-3.4 0.9-6.3 0.8-2.8 2.5-4.8 1.7-2 4-3 2.4-1.1 5.5-1.1 2.2 0 3.8 0.5 1.6 0.5 2.7 1.1v-13.9l6.8-1.2v42.2zm-19.3-13.7q0 4.5 2.1 7 2.1 2.5 5.8 2.5 1.6 0 2.8-0.1 1.1-0.1 1.8-0.3v-16.7q-0.8-0.6-2.3-1.1-1.5-0.5-3.2-0.5-3.6-0.1-5.3 2.5-1.7 2.4-1.7 6.7z"/>
	<path id="Layer" fill-rule="evenodd" class="s1" d="m1163.2 337.8q0-3.8 1.1-6.7 1.2-2.9 3.1-4.8 1.8-1.9 4.3-2.9 2.4-0.9 5-0.9 6 0 9.3 3.7 3.4 3.7 3.4 11.1 0 0.5 0 1.2-0.1 0.7-0.1 1.3h-19.2q0.3 3.5 2.5 5.4 2.2 1.9 6.4 1.9 2.4 0 4.4-0.4 2.1-0.5 3.2-1l0.9 5.5q-0.5 0.3-1.5 0.6-1 0.3-2.2 0.6-1.3 0.2-2.7 0.4-1.5 0.2-3 0.2-3.8 0-6.6-1.2-2.9-1.1-4.7-3.1-1.8-2.1-2.7-4.8-0.9-2.8-0.9-6zm19.5-3q0-1.4-0.4-2.7-0.4-1.2-1.1-2.2-0.8-0.9-1.9-1.4-1.1-0.5-2.6-0.5-1.5 0-2.7 0.6-1.1 0.5-1.9 1.5-0.8 0.9-1.3 2.2-0.4 1.2-0.6 2.5z"/>
	<path id="Layer" class="s1" d="m1222.9 329.2q-0.9-0.2-2.3-0.6-1.5-0.3-3.5-0.3-1.1 0-2.3 0.3-1.3 0.2-1.8 0.4v23.2h-6.7v-27.6q2-0.8 4.9-1.4 2.9-0.6 6.4-0.6 0.7 0 1.6 0 0.9 0.1 1.8 0.3 0.9 0.1 1.7 0.3 0.8 0.2 1.3 0.4z"/>
	<path id="Layer" fill-rule="evenodd" class="s1" d="m1224.8 337.8q0-3.8 1.2-6.7 1.1-2.9 3-4.8 1.9-1.9 4.3-2.9 2.5-0.9 5-0.9 6 0 9.4 3.7 3.3 3.7 3.3 11.1 0 0.5 0 1.2 0 0.7-0.1 1.3h-19.1q0.3 3.5 2.4 5.4 2.2 1.9 6.4 1.9 2.5 0 4.5-0.4 2-0.5 3.2-1l0.9 5.5q-0.6 0.3-1.6 0.6-0.9 0.3-2.2 0.6-1.2 0.2-2.7 0.4-1.4 0.2-2.9 0.2-3.8 0-6.7-1.2-2.8-1.1-4.6-3.1-1.9-2.1-2.8-4.8-0.8-2.8-0.9-6zm19.5-3q0-1.4-0.4-2.7-0.3-1.2-1.1-2.2-0.7-0.9-1.8-1.4-1.1-0.5-2.6-0.5-1.5 0-2.7 0.6-1.2 0.5-2 1.5-0.8 0.9-1.2 2.2-0.5 1.2-0.7 2.5z"/>
	<path id="Layer" class="s1" d="m1254.4 337.7q0-3.2 1-6 1-2.8 2.9-4.8 1.8-2.1 4.5-3.3 2.7-1.1 6-1.1 4.1 0 7.8 1.5l-1.5 5.5q-1.1-0.5-2.6-0.9-1.5-0.3-3.1-0.3-4 0-6 2.5-2.1 2.4-2.1 6.9c0 3 0.7 5.2 1.9 6.9q2 2.5 6.6 2.5 1.7 0 3.4-0.3 1.7-0.3 2.9-0.8l0.9 5.5q-1.1 0.6-3.3 1-2.3 0.5-4.7 0.5-3.7 0-6.5-1.2-2.7-1.1-4.5-3.1-1.8-2.1-2.7-4.9-0.9-2.8-0.9-6.1z"/>
	<path id="Layer" class="s1" d="m1280.5 352.2v-41.9l6.7-1.2v14.4q1.1-0.4 2.6-0.6 1.5-0.3 2.9-0.3 3.5 0 5.8 0.9 2.3 1 3.7 2.8 1.4 1.7 2 4.2 0.5 2.4 0.5 5.4v16.3h-6.7v-15.3q0-2.3-0.3-3.9-0.3-1.7-1-2.7-0.7-1-1.8-1.5-1.2-0.5-2.9-0.5-1.4 0-2.8 0.3-1.3 0.3-2 0.5v23.1z"/>
	<path id="Layer" fill-rule="evenodd" class="s1" d="m1309.1 337.8q0-3.8 1.2-6.7 1.1-2.9 3-4.8 1.9-1.9 4.3-2.9 2.5-0.9 5-0.9 6 0 9.4 3.7 3.3 3.7 3.3 11.1 0 0.5 0 1.2 0 0.7-0.1 1.3h-19.1q0.3 3.5 2.5 5.4 2.1 1.9 6.3 1.9 2.5 0 4.5-0.4 2-0.5 3.2-1l0.9 5.5q-0.6 0.3-1.6 0.6-0.9 0.3-2.2 0.6-1.2 0.2-2.7 0.4-1.4 0.2-2.9 0.2-3.8 0-6.7-1.2-2.8-1.1-4.6-3.1-1.9-2.1-2.8-4.8-0.8-2.8-0.9-6zm19.5-3q0-1.4-0.4-2.7-0.3-1.2-1.1-2.2-0.7-0.9-1.8-1.4-1.1-0.5-2.6-0.5-1.5 0-2.7 0.6-1.2 0.5-2 1.5-0.8 0.9-1.2 2.2-0.5 1.2-0.7 2.5z"/>
	<path id="Layer" class="s1" d="m1356.7 329.2q-0.8-0.2-2.3-0.6-1.5-0.3-3.4-0.3-1.1 0-2.4 0.3-1.2 0.2-1.7 0.4v23.2h-6.7v-27.6q1.9-0.8 4.8-1.4 2.9-0.6 6.5-0.6 0.6 0 1.5 0 0.9 0.1 1.8 0.3 0.9 0.1 1.7 0.3 0.9 0.2 1.4 0.4z"/>
	<path id="Layer" class="s1" d="m1358.6 337.7q0-3.2 1-6 1-2.8 2.9-4.8 1.9-2.1 4.5-3.3 2.7-1.1 6-1.1 4.1 0 7.8 1.5l-1.4 5.5q-1.2-0.5-2.7-0.9-1.5-0.3-3.1-0.3-4 0-6 2.5-2.1 2.4-2.1 6.9c0 3 0.7 5.2 2 6.9q1.9 2.5 6.5 2.5 1.7 0 3.4-0.3 1.7-0.3 2.9-0.8l0.9 5.5q-1.1 0.6-3.3 1-2.3 0.5-4.7 0.5-3.7 0-6.4-1.2-2.8-1.1-4.6-3.1-1.8-2.1-2.7-4.9-0.9-2.8-0.9-6.1z"/>
	<path id="Layer" class="s1" d="m1384.7 352.2v-41.9l6.7-1.2v14.4q1.1-0.4 2.6-0.6 1.5-0.3 2.9-0.3 3.5 0 5.8 0.9 2.3 1 3.7 2.8 1.4 1.7 2 4.2 0.6 2.4 0.5 5.4v16.3h-6.7v-15.3q0-2.3-0.3-3.9-0.3-1.7-1-2.7-0.7-1-1.8-1.5-1.2-0.5-2.9-0.5-1.4 0-2.7 0.3-1.4 0.3-2.1 0.5v23.1z"/>
	<path id="Layer" fill-rule="evenodd" class="s1" d="m1413.3 337.8q0-3.8 1.2-6.7 1.1-2.9 3-4.8 1.9-1.9 4.3-2.9 2.5-0.9 5-0.9 6 0 9.4 3.7 3.3 3.7 3.3 11.1 0 0.5 0 1.2 0 0.7-0.1 1.3h-19.1q0.3 3.5 2.4 5.4 2.2 1.9 6.4 1.9 2.5 0 4.5-0.4 2-0.5 3.2-1l0.9 5.5q-0.6 0.3-1.6 0.6-0.9 0.3-2.2 0.6-1.2 0.2-2.7 0.4-1.4 0.2-2.9 0.2-3.8 0-6.7-1.2-2.8-1.1-4.6-3.1-1.9-2.1-2.8-4.8-0.8-2.8-0.9-6zm19.5-3q0-1.4-0.4-2.7-0.3-1.2-1.1-2.2-0.7-0.9-1.8-1.4-1.1-0.5-2.6-0.5-1.5 0-2.7 0.6-1.2 0.5-2 1.5-0.8 0.9-1.2 2.2-0.5 1.2-0.7 2.5z"/>
	<path id="Layer" fill-rule="evenodd" class="s0" d="m917.2 226.6v-90.3h42.7q15 0 26.3 5.5 11.4 5.6 17.8 15.6 6.4 10.1 6.4 24.1c0 9.2-2.1 17.1-6.4 23.9q-6.4 10.1-17.8 15.7-11.3 5.5-26.3 5.5zm25.6-20.4h16.1q7.8 0 13.5-2.9 5.8-2.9 9-8.5 3.2-5.6 3.2-13.3c0-5.2-1.1-9.8-3.2-13.5q-3.2-5.5-9-8.4-5.7-2.9-13.5-2.9h-16.1z"/>
	<path id="Layer" class="s0" d="m1093.9 156h-45.3v19.9h39.9v19.8h-39.9v30.9h-25.6v-90.3h70.9z"/>
	<path id="Layer" fill-rule="evenodd" class="s0" d="m1105.5 226.6v-90.3h42.7q15 0 26.4 5.5 11.3 5.6 17.7 15.6 6.4 10.1 6.4 24.1c0 9.2-2.1 17.1-6.4 23.9q-6.4 10.1-17.7 15.7-11.4 5.5-26.4 5.5zm25.6-20.4h16.1q7.8 0 13.5-2.9 5.8-2.9 9-8.5 3.2-5.6 3.2-13.3c0-5.2-1-9.8-3.2-13.5q-3.2-5.5-9-8.4-5.7-2.9-13.5-2.9h-16.1z"/>
	<path id="Layer" fill-rule="evenodd" class="s0" d="m1250.8 202.6h-13.9v24h-25.6v-90.3h41.3q12.4 0 21.4 4 9 4 13.9 11.5c3.3 5.1 4.9 11.1 4.9 17.9q0 10.2-4.9 17.6-4.6 7-12.8 10.9l19.5 28.4h-27.4zm12.2-42.7q-3.9-3.5-11.9-3.5h-14.2v26.5h14.2q8 0 11.9-3.5c2.7-2.3 4-5.5 4-9.7q0-6.3-4-9.8z"/>
	<path id="Layer" class="s1" d="m793.8 195.8l30.1 30.1-30.1 30.2-30.1-30.2z"/>
	<path id="Layer" class="s1" d="m592.4 80.8l35.2 35.2-31.3 31.4 26.2 26.2-22.6 22.5 27.7 27.7-35.2 35.2-35.3-35.2 27.7-27.7-22.5-22.5 26.2-26.2-31.4-31.4 35.3-35.3z"/>
	<path id="Layer" class="s1" d="m662.9 262.8l21.2 21.2-21.2 21.1-21.2-21.1z"/>
	<path id="Layer" class="s1" d="m727.3 251.9l31.1 31.1-35.3 35.3-35.2-35.3 31.1-31.1-26-25.9 28.5-28.5-19.5-19.6 21.1-21.2 21.2 21.2-19.5 19.6 28.4 28.5z"/>
	<path id="Layer" class="s1" d="m667.1 200l25.9 26-30.1 30.1-30.1-30.1 25.9-26-31.1-31.1 26.5-26.4-26.5-26.5 35.3-35.3 35.3 35.3-26.5 26.5 26.5 26.4z"/>
	<path id="Layer" class="s1" d="m793.8 146.7l21.2 21.2-21.2 21.1-21.2-21.1z"/>
	<path id="Layer" class="s1" d="m662.9 321.9l13.4 13.5-13.4 13.4-13.4-13.4z"/>
	<path id="Layer" class="s1" d="m662.9 0.2l13.4 13.4-13.4 13.4-13.4-13.4z"/>
	<path id="Layer" class="s1" d="m662.9 359.2l13.4 13.4-13.4 13.4-13.4-13.4z"/>
	<path id="Layer" class="s1" d="m793.8 281.9l13.4 13.4-13.4 13.4-13.4-13.4z"/>
	<path id="Layer" class="s1" d="m592.4 38l13.4 13.4-13.4 13.5-13.4-13.5z"/>
	<path id="Layer" class="s1" d="m723.1 356.2l-13.4-13.4 13.4-13.4 13.4 13.4z"/>
	<path id="Layer" class="s1" d="m592.4 266.7l13.4 13.4-13.4 13.5-13.5-13.5z"/>
	<path id="Layer" class="s1" d="m662.9 32.7l21.2 21.2-21.2 21.1-21.2-21.1z"/>
	<path id="Layer" class="s1" d="m793.8 94.3l21.2 21.2-21.2 21.2-21.2-21.2z"/>
</svg>