<svg version="1.2" xmlns="http://www.w3.org/2000/svg" viewBox="0 0 884 386" width="884" height="386"><style>.a{fill:#fbfafa}.b{fill:#dda800}</style><path fill-rule="evenodd" class="a" d="m362.3 255.4v-124.8h59q20.7 0 36.4 7.7 15.7 7.6 24.5 21.5 8.9 13.9 8.9 33.2 0 19.1-8.9 33.1-8.8 14-24.5 21.6-15.7 7.7-36.4 7.7zm35.3-28.2h22.3q10.7 0 18.7-4 7.9-4 12.4-11.7 4.4-7.8 4.4-18.5 0-10.9-4.4-18.5-4.5-7.7-12.4-11.7-8-4-18.7-4h-22.3c0 0 0 68.4 0 68.4z"/><path class="a" d="m606.4 157.9v-27.3h-97.9v124.8h35.3v-42.8h55.1v-27.3h-55.1v-27.4h62.6z"/><path fill-rule="evenodd" class="a" d="m622.4 255.4v-124.8h59.1q20.6 0 36.3 7.7 15.7 7.6 24.5 21.5 8.9 13.9 8.9 33.2 0 19.1-8.9 33.1-8.8 14-24.5 21.6-15.7 7.7-36.3 7.7zm35.3-28.2h22.3q10.7 0 18.6-4 7.9-4 12.4-11.7 4.4-7.8 4.4-18.5 0-10.9-4.4-18.5-4.5-7.7-12.4-11.7-7.9-4-18.6-4h-22.3c0 0 0 68.4 0 68.4z"/><path fill-rule="evenodd" class="a" d="m823.2 222.2h-19.3v33.2h-35.3v-124.8h57.1q17.1 0 29.5 5.5 12.4 5.5 19.2 16 6.7 10.4 6.7 24.7 0 14.1-6.7 24.3-6.4 9.6-17.7 15l26.9 39.3h-37.8c0 0-22.6-33.2-22.6-33.2zm0.3-63.8h-19.6v36.6h19.6q11.1 0 16.5-4.9 5.5-4.8 5.5-13.3 0-8.8-5.5-13.6-5.4-4.8-16.5-4.8z"/><path class="b" d="m237.1 195.8l30.1 30.1-30.1 30.1-30.1-30.1z"/><path class="b" d="m35.6 80.7l-35.2 35.2 31.3 31.4-26.2 26.2 22.5 22.5-27.6 27.7 35.2 35.3 35.3-35.3-27.7-27.7 22.5-22.5-26.2-26.2 31.4-31.4-35.3-35.2z"/><path class="b" d="m106.2 262.7l21.2 21.2-21.2 21.2-21.2-21.2z"/><path class="b" d="m170.6 251.8l25.9-25.9-28.5-28.5 19.6-19.5-21.2-21.2-21.2 21.2 19.6 19.5-28.5 28.5 25.9 25.9-31.1 31.1 35.3 35.3 35.3-35.3-31.1-31.1z"/><path class="b" d="m110.3 199.9l31.1-31.1-26.4-26.4 26.4-26.5-35.2-35.2-35.3 35.2 26.5 26.5-26.5 26.4 31.1 31.1-25.9 26 30.1 30.1 30.1-30.1-26-26z"/><path class="b" d="m237.1 146.6l21.1 21.2-21.1 21.2-21.2-21.2z"/><path class="b" d="m106.2 321.9l13.4 13.4-13.4 13.4-13.4-13.4z"/><path class="b" d="m106.2 0.1l13.4 13.4-13.4 13.4-13.4-13.4z"/><path class="b" d="m106.2 359.1l13.4 13.4-13.4 13.4-13.4-13.4z"/><path class="b" d="m237.1 281.8l13.4 13.4-13.4 13.4-13.4-13.4z"/><path class="b" d="m35.6 38l13.4 13.4-13.4 13.4-13.4-13.4z"/><path class="b" d="m166.4 356.1l-13.4-13.4 13.4-13.4 13.4 13.4z"/><path class="b" d="m35.6 266.7l13.4 13.4-13.4 13.4-13.4-13.4z"/><path class="b" d="m106.2 32.6l21.2 21.2-21.2 21.2-21.2-21.2z"/><path class="b" d="m237.1 94.3l21.1 21.1-21.1 21.2-21.2-21.2z"/></svg>