<svg version="1.2" xmlns="http://www.w3.org/2000/svg" viewBox="0 0 739 386" width="739" height="386">
	<title>FRDR_acronym_french_reversed</title>
	<style>
		.s0 { fill: #fbfafa } 
		.s1 { fill: #dda800 } 
	</style>
	<g id="Layer">
		<path id="Layer" fill-rule="evenodd" class="s0" d="m360.9 246.6v-90.3h42.7q15 0 26.3 5.5 11.4 5.6 17.8 15.6 6.4 10.1 6.4 24.1 0 13.8-6.4 23.9-6.4 10.1-17.8 15.7-11.3 5.5-26.3 5.5c0 0-42.7 0-42.7 0zm25.5-20.4h16.2q7.7 0 13.5-2.9 5.7-2.9 8.9-8.5 3.3-5.6 3.3-13.3 0-7.9-3.3-13.5-3.2-5.5-8.9-8.4-5.8-2.9-13.5-2.9h-16.2z"/>
		<path id="Layer" class="s0" d="m537.6 176v-19.7h-70.9v90.3h25.6v-30.9h39.8v-19.8h-39.8v-19.9h45.3z"/>
		<path id="Layer" fill-rule="evenodd" class="s0" d="m549.2 246.6v-90.3h42.7q15 0 26.4 5.5 11.3 5.6 17.7 15.6 6.4 10.1 6.4 24.1 0 13.8-6.4 23.9-6.4 10.1-17.7 15.7-11.4 5.5-26.4 5.5c0 0-42.7 0-42.7 0zm25.5-20.4h16.2q7.7 0 13.5-2.9 5.7-2.9 8.9-8.5 3.3-5.6 3.3-13.3 0-7.9-3.3-13.5-3.2-5.5-8.9-8.4-5.8-2.9-13.5-2.9h-16.2z"/>
		<path id="Layer" fill-rule="evenodd" class="s0" d="m694.5 222.6h-13.9v24h-25.6v-90.3h41.3q12.4 0 21.4 4 9 4 13.9 11.5 4.9 7.6 4.9 17.9 0 10.2-4.9 17.6-4.6 7-12.8 10.9l19.5 28.4h-27.4c0 0-16.4-24-16.4-24zm0.3-46.2h-14.2v26.5h14.2q8 0 11.9-3.5 4-3.5 4-9.7 0-6.3-4-9.8-3.9-3.5-11.9-3.5z"/>
	</g>
	<g id="Layer">
		<path id="Layer" class="s1" d="m237.5 195.8l30.1 30.1-30.1 30.2-30.1-30.2z"/>
		<path id="Layer" class="s1" d="m36 80.7l-35.2 35.3 31.3 31.4-26.2 26.2 22.6 22.5-27.7 27.7 35.2 35.2 35.3-35.2-27.7-27.7 22.6-22.5-26.3-26.2 31.4-31.4-35.3-35.3z"/>
		<path id="Layer" class="s1" d="m106.6 262.8l21.2 21.2-21.2 21.2-21.2-21.2z"/>
		<g id="Layer">
			<path id="Layer" class="s1" d="m171 251.9l25.9-25.9-28.5-28.5 19.6-19.6-21.2-21.1-21.2 21.1 19.6 19.6-28.5 28.5 26 25.9-31.1 31.1 35.2 35.3 35.3-35.3-31.1-31.1z"/>
			<path id="Layer" class="s1" d="m110.7 200l31.1-31.1-26.4-26.4 26.4-26.5-35.2-35.3-35.3 35.3 26.5 26.5-26.5 26.4 31.1 31.1-25.9 26 30.1 30.1 30.1-30.1-26-26z"/>
		</g>
		<path id="Layer" class="s1" d="m237.5 146.7l21.2 21.2-21.2 21.2-21.2-21.2z"/>
		<path id="Layer" class="s1" d="m106.6 321.9l13.4 13.5-13.4 13.4-13.4-13.4z"/>
		<path id="Layer" class="s1" d="m106.6 0.2l13.4 13.4-13.4 13.4-13.4-13.4z"/>
		<path id="Layer" class="s1" d="m106.6 359.2l13.4 13.4-13.4 13.4-13.4-13.4z"/>
		<path id="Layer" class="s1" d="m237.5 281.9l13.4 13.4-13.4 13.4-13.4-13.4z"/>
		<path id="Layer" class="s1" d="m36 38l13.5 13.4-13.5 13.5-13.4-13.5z"/>
		<path id="Layer" class="s1" d="m166.8 356.2l-13.4-13.4 13.4-13.4 13.4 13.4z"/>
		<path id="Layer" class="s1" d="m36 266.7l13.5 13.4-13.5 13.5-13.4-13.5z"/>
		<path id="Layer" class="s1" d="m106.6 32.7l21.2 21.2-21.2 21.1-21.2-21.1z"/>
		<path id="Layer" class="s1" d="m237.5 94.3l21.2 21.2-21.2 21.2-21.2-21.2z"/>
	</g>
</svg>