<svg version="1.2" xmlns="http://www.w3.org/2000/svg" viewBox="0 0 828 392" width="828" height="392">
	<title>FRDR_logo_english_reversed-svg</title>
	<style>
		.s0 { fill: #fbfafa } 
		.s1 { fill: #dda800 } 
	</style>
	<g id="Layer">
		<g id="Layer">
			<g id="Layer">
				<path id="Layer" class="s0" d="m365.6 299.7v-38.5h21.9v3.3h-18.1v13.6h16.1v3.2h-16.1v18.4h-3.8z"/>
				<path id="Layer" fill-rule="evenodd" class="s0" d="m390 285.3q0-3.8 1.1-6.6 1.1-2.8 2.8-4.6 1.8-1.9 4-2.8 2.3-1 4.7-1 5.2 0 8.4 3.5 3.1 3.4 3.1 10.6 0 0.4 0 0.9-0.1 0.4-0.1 0.8h-20.2q0.2 5.3 2.7 8.1 2.4 2.8 7.7 2.8 3 0 4.7-0.5 1.7-0.6 2.5-1l0.6 3.1q-0.7 0.5-2.9 1.1-2.1 0.6-5 0.6-3.8 0-6.4-1.1-2.7-1.1-4.4-3.1-1.7-2-2.5-4.8-0.8-2.7-0.8-6zm20.4-2.3q-0.1-4.5-2.1-7-2-2.5-5.7-2.5-1.9 0-3.5 0.8-1.5 0.8-2.6 2.1-1.1 1.3-1.8 3-0.6 1.7-0.7 3.6z"/>
				<path id="Layer" fill-rule="evenodd" class="s0" d="m442.8 298.8q-1.6 0.6-4.1 1.1-2.5 0.5-6.3 0.5-3.2 0-5.8-1.1-2.6-1-4.4-2.9-1.9-2-2.9-4.8-1-2.7-1.1-6.2 0.1-3.3 0.9-6.1 0.9-2.7 2.5-4.7 1.7-2 4.1-3.1 2.4-1.1 5.5-1.1 2.9 0 5 0.8 2 0.8 3 1.5v-15.4l3.6-0.7c0 0 0 42.2 0 42.2zm-3.6-22.6q-0.5-0.4-1.3-0.8-0.7-0.5-1.7-0.9-1-0.3-2.2-0.6-1.1-0.2-2.4-0.2-2.7 0-4.5 0.9-1.8 0.9-2.9 2.5-1.1 1.6-1.6 3.7-0.5 2.2-0.5 4.6 0 5.6 2.8 8.7 2.9 3 7.5 3 2.7 0 4.3-0.3 1.7-0.2 2.5-0.5c0 0 0-20.1 0-20.1z"/>
				<path id="Layer" fill-rule="evenodd" class="s0" d="m448.4 285.3q0-3.8 1.1-6.6 1.1-2.8 2.8-4.6 1.8-1.9 4-2.8 2.3-1 4.7-1 5.2 0 8.4 3.5 3.1 3.4 3.1 10.6 0 0.4 0 0.9-0.1 0.4-0.1 0.8h-20.2q0.2 5.3 2.7 8.1 2.4 2.8 7.7 2.8 3 0 4.7-0.5 1.7-0.6 2.5-1l0.6 3.1q-0.7 0.5-2.9 1.1-2.1 0.6-5 0.6-3.8 0-6.4-1.1-2.7-1.1-4.4-3.1-1.7-2-2.5-4.8-0.8-2.7-0.8-6zm20.4-2.3q-0.1-4.5-2.1-7-2-2.5-5.7-2.5-1.9 0-3.5 0.8-1.5 0.8-2.6 2.1-1.1 1.3-1.8 3-0.6 1.7-0.7 3.6z"/>
				<path id="Layer" class="s0" d="m487.7 270.4q1.8 0 3.4 0.3 1.6 0.3 2.2 0.6l-0.8 3.1q-0.4-0.2-1.7-0.5-1.4-0.2-3.6-0.2-2.4 0-3.8 0.3-1.4 0.3-1.8 0.5v25.2h-3.6v-27.4q1.3-0.6 3.8-1.2 2.4-0.7 5.9-0.7z"/>
				<path id="Layer" fill-rule="evenodd" class="s0" d="m505.2 270.3q0 0 0 0 0 0 0 0zm4.8 0.8q1.9 0.8 3.2 2.2 1.2 1.5 1.7 3.4 0.6 2 0.6 4.2v18.1q-0.6 0.2-1.6 0.4-1.1 0.2-2.5 0.4-1.3 0.2-3 0.4-1.7 0.1-3.5 0.1-2.3 0-4.2-0.5-1.9-0.5-3.3-1.6-1.4-1.1-2.2-2.8-0.9-1.6-0.8-4.1c0-1.6 0.3-2.9 0.8-4q0.9-1.7 2.5-2.7 1.6-1.1 3.9-1.6 2.2-0.5 4.8-0.5 0.8 0 1.6 0.1 0.9 0 1.7 0.2 0.8 0.1 1.4 0.3 0.6 0.1 0.8 0.2v-1.8q0-1.5-0.2-2.9-0.2-1.4-1-2.5-0.7-1.2-2.1-1.9-1.4-0.7-3.6-0.7-3.1 0.1-4.7 0.5-1.6 0.4-2.3 0.7l-0.5-3.2q1-0.4 2.9-0.8 2-0.4 4.8-0.4 2.8 0 4.8 0.8zm-4.5 26q2.1 0 3.7-0.2 1.6-0.1 2.7-0.3v-10.1q-0.6-0.3-2-0.6-1.3-0.3-3.6-0.3-1.4 0-2.8 0.2-1.5 0.2-2.7 0.8-1.2 0.7-2 1.8-0.7 1.1-0.7 2.9-0.1 1.6 0.5 2.7 0.5 1.1 1.5 1.8 1 0.7 2.3 1 1.4 0.3 3.1 0.3z"/>
				<path id="Layer" class="s0" d="m525.8 271h11.4v3h-11.4v15.3q0 2.5 0.4 4 0.4 1.5 1.2 2.3 0.8 0.9 1.9 1.2 1.1 0.2 2.4 0.2 2.3 0 3.7-0.5 1.4-0.5 2.1-1l0.9 3q-0.8 0.5-2.7 1.2-1.9 0.6-4.2 0.6-2.7 0-4.5-0.7-1.8-0.7-2.9-2.1-1-1.4-1.5-3.5-0.4-2.1-0.4-5v-26.4l3.6-0.7z"/>
				<path id="Layer" fill-rule="evenodd" class="s0" d="m539.8 285.3q0-3.8 1-6.6 1.1-2.8 2.9-4.6 1.7-1.9 4-2.8 2.2-1 4.6-1 5.3 0 8.4 3.5 3.1 3.4 3.2 10.6 0 0.4-0.1 0.9 0 0.4-0.1 0.8h-20.1q0.2 5.3 2.6 8.1 2.4 2.8 7.8 2.8 2.9 0 4.6-0.5 1.8-0.6 2.5-1l0.7 3.1q-0.8 0.5-2.9 1.1-2.1 0.6-5 0.6-3.8 0-6.5-1.1-2.6-1.1-4.4-3.1-1.7-2-2.5-4.8-0.7-2.7-0.7-6zm20.3-2.3q-0.1-4.5-2.1-7-2-2.5-5.6-2.5-2 0-3.5 0.8-1.5 0.8-2.7 2.1-1.1 1.3-1.7 3-0.7 1.7-0.8 3.6z"/>
				<path id="Layer" fill-rule="evenodd" class="s0" d="m592.5 298.8q-1.6 0.6-4.1 1.1-2.5 0.5-6.3 0.5-3.1 0-5.7-1.1-2.6-1-4.5-2.9-1.8-2-2.9-4.8-1-2.7-1-6.2 0-3.3 0.9-6.1 0.8-2.7 2.5-4.7 1.7-2 4.1-3.1 2.4-1.1 5.5-1.1 2.8 0 4.9 0.8 2.1 0.8 3 1.5v-15.4l3.6-0.7c0 0 0 42.2 0 42.2zm-3.6-22.6q-0.5-0.4-1.2-0.8-0.8-0.5-1.8-0.9-1-0.3-2.1-0.6-1.2-0.2-2.5-0.2-2.6 0-4.4 0.9-1.8 0.9-2.9 2.5-1.2 1.6-1.7 3.7-0.4 2.2-0.5 4.6 0 5.6 2.9 8.7 2.8 3 7.5 3 2.6 0 4.3-0.3 1.6-0.2 2.4-0.5c0 0 0-20.1 0-20.1z"/>
				<path id="Layer" fill-rule="evenodd" class="s1" d="m622.1 260.8q8.3 0 12.7 3.1 4.4 3 4.4 9.3 0 7.8-7.7 10.6 1.1 1.3 2.4 3.1 1.3 1.9 2.7 4 1.4 2.1 2.7 4.4 1.3 2.2 2.3 4.4h-7.9q-1-2-2.2-4-1.3-2.1-2.5-4-1.3-1.9-2.5-3.6-1.2-1.7-2.3-3-0.7 0-1.3 0h-4.4v14.6h-7v-37.9q2.5-0.6 5.4-0.8 2.9-0.2 5.2-0.2zm0.5 6.1q-2.2 0-4.1 0.2v12.4h3q2.6 0 4.5-0.3 2-0.3 3.3-1 1.3-0.7 1.9-1.9 0.7-1.2 0.7-3.1 0-1.8-0.7-3-0.6-1.2-1.9-2-1.2-0.7-3-1-1.7-0.3-3.7-0.3z"/>
				<path id="Layer" fill-rule="evenodd" class="s1" d="m642.9 285.3q0-3.8 1.2-6.7 1.1-2.9 3-4.8 1.9-1.9 4.3-2.9 2.5-1 5-1 6 0 9.4 3.8 3.3 3.7 3.3 11.1 0 0.5 0 1.2 0 0.7-0.1 1.3h-19.1q0.3 3.5 2.4 5.4 2.2 1.9 6.4 1.9 2.5 0 4.5-0.5 2-0.4 3.2-0.9l0.9 5.5q-0.6 0.3-1.6 0.6-0.9 0.3-2.2 0.5-1.2 0.3-2.7 0.5-1.4 0.1-2.9 0.1-3.8 0-6.7-1.1-2.8-1.1-4.6-3.2-1.9-2-2.8-4.7-0.8-2.8-0.9-6.1zm19.5-3q0-1.3-0.4-2.6-0.3-1.2-1.1-2.2-0.7-0.9-1.8-1.4-1.1-0.5-2.6-0.5c-1 0-1.9 0.1-2.7 0.5q-1.2 0.6-2 1.6-0.8 0.9-1.2 2.1-0.5 1.3-0.7 2.5z"/>
				<path id="Layer" class="s1" d="m681.5 294.9q2.6 0 3.9-0.7 1.2-0.6 1.2-2.2 0-1.4-1.3-2.3-1.3-1-4.3-2.1-1.9-0.7-3.4-1.4-1.5-0.8-2.6-1.8-1.1-1-1.8-2.4-0.6-1.4-0.6-3.4 0-4 2.9-6.3 3-2.4 8-2.3 2.6 0 4.9 0.4 2.3 0.5 3.5 0.9l-1.2 5.5q-1.1-0.5-2.8-0.9-1.8-0.5-4-0.5-2.1 0-3.4 0.7-1.3 0.7-1.3 2.2 0 0.7 0.3 1.2 0.2 0.6 0.9 1.1 0.6 0.4 1.6 0.9 1 0.5 2.4 1 2.4 0.9 4.1 1.7 1.6 0.9 2.7 2 1.1 1.1 1.6 2.4 0.5 1.4 0.5 3.4 0 4.1-3.1 6.3-3.1 2.1-8.8 2.1-3.8 0-6.2-0.6-2.3-0.7-3.2-1l1.1-5.7q1.5 0.7 3.6 1.2 2.1 0.6 4.8 0.6z"/>
				<path id="Layer" fill-rule="evenodd" class="s1" d="m696 285.3q0-3.8 1.2-6.7 1.1-2.9 3-4.8 1.9-1.9 4.3-2.9 2.5-1 5-1 6 0 9.4 3.8 3.4 3.7 3.4 11.1 0 0.5-0.1 1.2 0 0.7-0.1 1.3h-19.1q0.3 3.5 2.5 5.4 2.2 1.9 6.3 1.9 2.5 0 4.5-0.5 2-0.4 3.2-0.9l0.9 5.5q-0.6 0.3-1.6 0.6-0.9 0.3-2.2 0.5-1.2 0.3-2.7 0.5-1.4 0.1-2.9 0.1-3.8 0-6.7-1.1-2.8-1.1-4.6-3.2-1.9-2-2.7-4.7-0.9-2.8-0.9-6.1zm19.5-3q0-1.3-0.4-2.6-0.4-1.2-1.2-2.2-0.7-0.9-1.8-1.4-1.1-0.5-2.6-0.5c-1 0-1.9 0.1-2.7 0.5q-1.2 0.6-2 1.6-0.8 0.9-1.2 2.1-0.5 1.3-0.6 2.5z"/>
				<path id="Layer" fill-rule="evenodd" class="s1" d="m736.9 269.9q3.3 0 5.6 0.9 2.3 0.8 3.6 2.3 1.4 1.5 2 3.6 0.6 2.2 0.6 4.7v17.6q-1.6 0.4-4.7 0.8-3.2 0.5-7.1 0.5-2.6 0-4.8-0.5-2.1-0.5-3.7-1.6-1.5-1.1-2.4-2.9-0.8-1.8-0.8-4.4c0-1.7 0.3-3.1 0.9-4.2q1-1.7 2.7-2.8 1.6-1.1 3.8-1.6 2.2-0.4 4.6-0.4 1.1 0 2.3 0.1 1.3 0.2 2.7 0.5v-1.1q0-1.2-0.3-2.2-0.3-1.1-1-1.9-0.7-0.8-1.8-1.3-1.2-0.4-2.9-0.4-2.3 0-4.2 0.3-2 0.4-3.2 0.8l-0.8-5.4q1.2-0.5 3.7-0.9 2.4-0.5 5.2-0.5zm0.6 25.1q3.1 0 4.7-0.3v-7.5q-0.6-0.1-1.6-0.3-1.1-0.2-2.4-0.2-1.1 0-2.2 0.2-1.1 0.2-2.1 0.6-0.9 0.4-1.4 1.2-0.6 0.9-0.6 2.1 0 2.4 1.5 3.3 1.5 0.9 4.1 0.9z"/>
				<path id="Layer" class="s1" d="m771.2 276.7q-0.8-0.3-2.3-0.6-1.4-0.3-3.4-0.3-1.1 0-2.4 0.2-1.2 0.3-1.7 0.4v23.3h-6.7v-27.7q1.9-0.7 4.8-1.3 2.9-0.7 6.5-0.7 0.7 0 1.5 0.1 0.9 0.1 1.8 0.2 0.9 0.2 1.7 0.4 0.9 0.2 1.4 0.3l-1.2 5.7z"/>
				<path id="Layer" class="s1" d="m773.2 285.2q0-3.2 1-6 1-2.8 2.8-4.9 1.9-2 4.5-3.2 2.7-1.2 6-1.2 4.2 0 7.8 1.5l-1.4 5.5q-1.2-0.5-2.7-0.8-1.4-0.3-3.1-0.3-3.9 0-6 2.5-2.1 2.4-2.1 6.9c0 3 0.7 5.2 2 6.9q1.9 2.5 6.5 2.5 1.8 0 3.4-0.3 1.7-0.4 2.9-0.9l1 5.6q-1.1 0.6-3.4 1-2.2 0.4-4.6 0.4-3.8 0-6.5-1.1-2.8-1.1-4.6-3.2-1.8-2-2.7-4.8-0.8-2.8-0.8-6.1z"/>
				<path id="Layer" class="s1" d="m799.2 299.7v-42l6.7-1.1v14.4q1.1-0.4 2.6-0.7 1.5-0.2 2.9-0.2 3.5-0.1 5.8 0.9 2.3 1 3.7 2.7 1.4 1.8 2 4.2 0.6 2.5 0.6 5.5v16.3h-6.8v-15.3q0-2.3-0.3-3.9-0.3-1.7-1-2.7-0.6-1-1.8-1.5-1.2-0.5-2.9-0.5-1.3 0-2.7 0.3-1.4 0.3-2.1 0.5v23.1c0 0-6.7 0-6.7 0z"/>
			</g>
			<g id="Layer">
				<path id="Layer" fill-rule="evenodd" class="s1" d="m398.2 336q0 4.9-1.5 8.6-1.6 3.7-4.4 6.2-2.9 2.5-6.9 3.7-4 1.2-8.9 1.2-2.4-0.1-5.3-0.2-2.9-0.2-5.6-0.8v-37.4q2.7-0.6 5.7-0.8 3-0.2 5.3-0.2 4.8 0 8.8 1.2 4 1.1 6.9 3.5 2.8 2.4 4.4 6.1 1.5 3.7 1.5 8.8zm-25.6 13.5q0.6 0.1 1.6 0.1 1 0 2.7 0 7.1 0 10.5-3.5 3.5-3.6 3.5-10.1c0-4.2-1.1-7.7-3.4-10q-3.4-3.5-10.5-3.5-3.1 0-4.4 0.2z"/>
				<path id="Layer" fill-rule="evenodd" class="s1" d="m412.9 325.5q3.3 0 5.6 0.8 2.2 0.8 3.6 2.3 1.4 1.5 1.9 3.7 0.6 2.1 0.6 4.7v17.6q-1.5 0.3-4.7 0.8-3.1 0.4-7 0.4-2.7 0-4.8-0.5-2.2-0.5-3.7-1.6-1.5-1.1-2.4-2.9-0.9-1.7-0.9-4.4c0-1.7 0.4-3 1-4.2q1-1.7 2.7-2.8 1.6-1.1 3.8-1.5 2.2-0.5 4.6-0.5 1.1 0 2.3 0.1 1.2 0.2 2.6 0.5v-1.1q0-1.2-0.2-2.2-0.3-1.1-1-1.9-0.7-0.8-1.8-1.2-1.2-0.5-2.9-0.5-2.3 0-4.3 0.4-1.9 0.3-3.1 0.7l-0.9-5.4q1.3-0.4 3.8-0.9 2.4-0.4 5.2-0.4zm0.5 25q3.1 0 4.8-0.3v-7.5q-0.6-0.1-1.7-0.3-1-0.2-2.3-0.2-1.1 0-2.2 0.2-1.2 0.2-2.1 0.6-0.9 0.5-1.5 1.3-0.5 0.8-0.5 2 0 2.4 1.5 3.3 1.5 0.9 4 0.9z"/>
				<path id="Layer" class="s1" d="m430.3 318.5l6.7-1.1v8.8h10.4v5.6h-10.4v11.8q0 3.5 1.1 5 1.1 1.5 3.8 1.5 1.8 0 3.3-0.4 1.4-0.4 2.2-0.7l1.1 5.3q-1.1 0.5-3 1.1-1.9 0.5-4.5 0.5-3.1 0-5.2-0.8-2-0.9-3.3-2.5-1.2-1.5-1.7-3.8-0.5-2.2-0.5-5.1v-25.2z"/>
				<path id="Layer" fill-rule="evenodd" class="s1" d="m462 325.5q3.3 0 5.6 0.8 2.3 0.8 3.6 2.3 1.4 1.5 2 3.7 0.6 2.1 0.6 4.7v17.6q-1.6 0.3-4.7 0.8-3.2 0.4-7.1 0.4-2.6 0-4.8-0.5-2.1-0.5-3.7-1.6-1.5-1.1-2.4-2.9-0.8-1.7-0.8-4.4c0-1.7 0.3-3 1-4.2q0.9-1.7 2.6-2.8 1.7-1.1 3.9-1.5 2.1-0.5 4.5-0.5 1.1 0 2.4 0.1 1.2 0.2 2.6 0.5v-1.1q0-1.2-0.3-2.2-0.3-1.1-1-1.9-0.7-0.8-1.8-1.2-1.1-0.5-2.9-0.5-2.3 0-4.2 0.4-2 0.3-3.2 0.7l-0.8-5.4q1.2-0.4 3.7-0.9 2.4-0.4 5.2-0.4zm0.6 25q3.1 0 4.7-0.3v-7.5q-0.6-0.1-1.6-0.3-1.1-0.2-2.3-0.2-1.2 0-2.3 0.2-1.1 0.2-2 0.6-1 0.5-1.5 1.3-0.6 0.8-0.6 2 0 2.4 1.5 3.3 1.5 0.9 4.1 0.9z"/>
				<path id="Layer" fill-rule="evenodd" class="s1" d="m502.7 316.4q8.4 0 12.8 3 4.4 3.1 4.4 9.3 0 7.9-7.7 10.6 1 1.3 2.4 3.1 1.3 1.9 2.7 4 1.4 2.2 2.6 4.4 1.3 2.3 2.3 4.4h-7.8q-1.1-2-2.3-4-1.2-2-2.5-3.9-1.2-2-2.4-3.7-1.2-1.7-2.3-3-0.8 0.1-1.3 0.1h-4.5v14.5h-7v-37.9q2.6-0.6 5.5-0.8 2.8-0.1 5.1-0.1zm0.5 6q-2.2 0-4.1 0.2v12.4h3.1q2.5 0 4.5-0.3 1.9-0.2 3.2-1 1.3-0.7 2-1.9 0.6-1.2 0.7-3.1 0-1.8-0.7-3-0.7-1.2-1.9-2-1.3-0.7-3-1-1.7-0.3-3.8-0.3z"/>
				<path id="Layer" fill-rule="evenodd" class="s1" d="m523.6 340.8q0-3.8 1.1-6.7 1.2-2.9 3.1-4.8 1.8-1.9 4.3-2.9 2.4-0.9 5-0.9 6 0 9.3 3.7 3.4 3.7 3.4 11.1 0 0.5 0 1.2-0.1 0.7-0.1 1.3h-19.2q0.3 3.5 2.5 5.4 2.2 1.9 6.4 1.9 2.4 0 4.4-0.4 2.1-0.5 3.2-1l0.9 5.5q-0.5 0.3-1.5 0.6-1 0.3-2.2 0.6-1.3 0.2-2.7 0.4-1.5 0.2-3 0.2-3.8 0-6.6-1.2-2.9-1.1-4.7-3.1-1.8-2.1-2.7-4.8-0.9-2.8-0.9-6zm19.5-3q0-1.4-0.4-2.7-0.4-1.2-1.1-2.2-0.8-0.9-1.9-1.4-1-0.5-2.5-0.5c-1 0-2 0.2-2.8 0.6q-1.1 0.5-1.9 1.5-0.8 0.9-1.3 2.2-0.4 1.2-0.6 2.5z"/>
				<path id="Layer" fill-rule="evenodd" class="s1" d="m580.8 340.7q0 3.4-0.9 6.1-0.9 2.8-2.5 4.8-1.6 2-4 3.1-2.4 1.1-5.5 1.1-2 0-3.7-0.5-1.8-0.5-2.9-1.1v11.3h-6.7v-38.4q2.1-0.5 5.1-1 3-0.5 6.3-0.5c2.2 0 4.3 0.3 6.2 1q2.7 1.1 4.6 3 1.9 2 2.9 4.8 1.1 2.8 1.1 6.3zm-6.9 0.1q0-4.5-2.1-7-2-2.5-6.5-2.5-0.9 0-1.9 0.1-1.1 0.1-2.1 0.4v16.6q0.9 0.6 2.4 1.1 1.5 0.5 3.1 0.5 3.7 0 5.4-2.5 1.7-2.5 1.7-6.7z"/>
				<path id="Layer" fill-rule="evenodd" class="s1" d="m611.9 340.7q0 3.4-1 6.2-1 2.9-2.8 4.9-1.8 2-4.4 3.1-2.6 1.1-5.7 1.1-3.1 0-5.7-1.1-2.5-1.1-4.3-3.1-1.9-2-2.9-4.9-1-2.8-1-6.2 0-3.5 1-6.3 1-2.8 2.9-4.8 1.9-2 4.4-3.1 2.6-1 5.6-1 3.1 0 5.6 1 2.6 1.1 4.5 3.1 1.8 2 2.8 4.8 1 2.8 1 6.3zm-6.8 0q0-4.4-1.9-6.9-1.9-2.5-5.2-2.5-3.3 0-5.2 2.5-1.8 2.5-1.8 6.9c0 2.9 0.6 5.2 1.8 6.9q1.9 2.6 5.2 2.6 3.3 0 5.2-2.6 1.9-2.5 1.9-6.9z"/>
				<path id="Layer" class="s1" d="m624 350.4q2.7 0 3.9-0.6 1.2-0.7 1.2-2.2 0-1.5-1.3-2.4-1.3-1-4.3-2.1-1.8-0.6-3.3-1.4-1.6-0.7-2.7-1.7-1.1-1.1-1.7-2.5-0.7-1.4-0.7-3.4 0-4 3-6.3 2.9-2.3 8-2.3 2.5 0 4.9 0.4 2.3 0.5 3.5 1l-1.3 5.4q-1.1-0.5-2.8-0.9-1.7-0.4-4-0.4-2.1 0-3.3 0.7-1.3 0.6-1.3 2.1 0 0.7 0.2 1.3 0.3 0.5 0.9 1 0.6 0.5 1.6 0.9 1 0.5 2.5 1 2.3 0.9 4 1.8 1.7 0.8 2.8 1.9 1 1.1 1.5 2.5 0.5 1.4 0.5 3.3 0 4.2-3 6.3-3.1 2.1-8.8 2.1-3.9 0-6.2-0.6-2.3-0.6-3.3-1l1.2-5.6q1.5 0.6 3.6 1.1 2 0.6 4.7 0.6z"/>
				<path id="Layer" class="s1" d="m647.4 317.7q0 1.9-1.3 3-1.2 1.1-2.9 1.1c-1.1 0-2.1-0.4-2.9-1.1q-1.2-1.1-1.2-3c0-1.3 0.4-2.3 1.2-3.1q1.2-1.1 2.9-1.1c1.2 0 2.1 0.4 2.9 1.1q1.3 1.2 1.3 3.1zm-0.8 37.5h-6.7v-29h6.7z"/>
				<path id="Layer" class="s1" d="m652.5 318.5l6.8-1.1v8.8h10.3v5.6h-10.3v11.8q0 3.5 1.1 5 1.1 1.5 3.7 1.5 1.9 0 3.3-0.4 1.4-0.4 2.2-0.7l1.2 5.3q-1.2 0.5-3.1 1.1-1.9 0.5-4.4 0.5-3.1 0-5.2-0.8-2.1-0.9-3.3-2.5-1.2-1.5-1.7-3.8-0.5-2.2-0.5-5.1v-25.2z"/>
				<path id="Layer" fill-rule="evenodd" class="s1" d="m699.8 340.7q0 3.4-1 6.2-1 2.9-2.8 4.9-1.8 2-4.4 3.1-2.6 1.1-5.7 1.1-3.1 0-5.7-1.1-2.5-1.1-4.4-3.1-1.8-2-2.8-4.9-1.1-2.8-1.1-6.2 0-3.5 1.1-6.3 1-2.8 2.9-4.8 1.8-2 4.4-3.1 2.5-1 5.6-1 3 0 5.6 1 2.6 1.1 4.4 3.1 1.9 2 2.9 4.8 1 2.8 1 6.3zm-6.9 0q0-4.4-1.8-6.9-1.9-2.5-5.2-2.5-3.3 0-5.2 2.5-1.9 2.5-1.9 6.9c0 2.9 0.7 5.2 1.9 6.9q1.9 2.6 5.2 2.6 3.3 0 5.2-2.6 1.8-2.5 1.8-6.9z"/>
				<path id="Layer" class="s1" d="m721.2 332.2q-0.9-0.2-2.3-0.6-1.5-0.3-3.5-0.3-1.1 0-2.3 0.3-1.3 0.2-1.8 0.4v23.2h-6.7v-27.6q2-0.8 4.9-1.4 2.9-0.6 6.4-0.6 0.7 0 1.6 0 0.9 0.1 1.8 0.3 0.9 0.1 1.7 0.3 0.8 0.2 1.3 0.4l-1.1 5.6z"/>
				<path id="Layer" class="s1" d="m751 326.2q-4.5 16.5-10.4 30-1.1 2.5-2.3 4.2-1.2 1.8-2.6 3-1.5 1.1-3.2 1.7-1.8 0.5-4.1 0.5-1.6 0-3.1-0.3-1.5-0.4-2.3-0.8l1.2-5.3q2 0.7 4 0.7 2.6 0 4.1-1.2 1.4-1.3 2.5-3.9-3.1-6.1-6.1-13.3-2.9-7.2-5.2-15.3h7.2q0.5 2.3 1.4 5 0.8 2.8 1.7 5.6 1 2.8 2 5.5 1.1 2.8 2.1 5.2 1.8-4.9 3.4-10.5 1.5-5.6 2.8-10.8h6.9z"/>
			</g>
		</g>
		<g id="Layer">
			<path id="Layer" class="s0" d="m436.5 159h-45.4v19.9h39.9v19.8h-39.9v30.9h-25.5v-90.3h70.9v19.7z"/>
			<path id="Layer" fill-rule="evenodd" class="s0" d="m487.6 205.6h-14v24h-25.5v-90.3h41.3q12.4 0 21.3 4 9 4 13.9 11.5c3.3 5.1 4.9 11.1 4.9 17.9q0 10.2-4.9 17.6-4.6 7-12.8 10.9l19.5 28.4h-27.3c0 0-16.4-24-16.4-24zm12.2-42.7q-4-3.5-12-3.5h-14.2v26.5h14.2q8 0 12-3.5c2.6-2.3 3.9-5.5 3.9-9.7q0-6.3-3.9-9.8z"/>
			<path id="Layer" fill-rule="evenodd" class="s0" d="m636.3 184.5q0 13.8-6.4 23.9-6.4 10.1-17.7 15.7-11.4 5.5-26.3 5.5h-42.8v-90.3h42.8q14.9 0 26.3 5.5 11.3 5.6 17.7 15.6c4.3 6.8 6.4 14.8 6.4 24.1zm-29 13.3c2.1-3.7 3.2-8.1 3.2-13.4q0-7.8-3.2-13.4-3.2-5.5-9-8.4-5.7-2.9-13.5-2.9h-16.1v49.5h16.1q7.8 0 13.5-2.9 5.8-2.9 9-8.5z"/>
			<path id="Layer" fill-rule="evenodd" class="s0" d="m688.5 205.6h-14v24h-25.5v-90.3h41.3q12.4 0 21.3 4 9 4 13.9 11.5c3.3 5.1 4.9 11.1 4.9 17.9q0 10.2-4.9 17.6-4.6 7-12.8 10.9l19.5 28.4h-27.4c0 0-16.3-24-16.3-24zm12.2-42.7q-4-3.5-12-3.5h-14.2v26.5h14.2q8 0 12-3.5c2.6-2.3 3.9-5.5 3.9-9.7q0-6.3-3.9-9.8z"/>
		</g>
	</g>
	<g id="Layer">
		<path id="Layer" class="s1" d="m241.2 198.8l30.1 30.1-30.1 30.1-30.1-30.1z"/>
		<path id="Layer" class="s1" d="m39.8 83.8l35.2 35.2-31.3 31.4 26.2 26.2-22.5 22.5 27.6 27.7-35.2 35.2-35.3-35.2 27.7-27.7-22.5-22.5 26.2-26.2-31.4-31.4 35.3-35.3z"/>
		<path id="Layer" class="s1" d="m110.3 265.8l21.2 21.2-21.2 21.2-21.2-21.2z"/>
		<g id="Layer">
			<path id="Layer" class="s1" d="m174.7 254.9l31.1 31.1-35.3 35.3-35.2-35.3 31.1-31.1-26-25.9 28.5-28.5-19.5-19.6 21.1-21.2 21.2 21.2-19.5 19.6 28.4 28.5-25.9 25.9z"/>
			<path id="Layer" class="s1" d="m114.5 203l25.9 26-30.1 30.1-30.1-30.1 26-26-31.1-31.1 26.4-26.4-26.4-26.5 35.2-35.3 35.3 35.3-26.5 26.5 26.5 26.4-31.1 31.1z"/>
		</g>
		<path id="Layer" class="s1" d="m241.2 149.7l21.2 21.2-21.2 21.2-21.2-21.2z"/>
		<path id="Layer" class="s1" d="m110.3 324.9l13.4 13.5-13.4 13.4-13.4-13.4z"/>
		<path id="Layer" class="s1" d="m110.3 3.2l13.4 13.4-13.4 13.4-13.4-13.4z"/>
		<path id="Layer" class="s1" d="m110.3 362.2l13.4 13.4-13.4 13.4-13.4-13.4z"/>
		<path id="Layer" class="s1" d="m241.2 284.9l13.4 13.4-13.4 13.4-13.4-13.4z"/>
		<path id="Layer" class="s1" d="m39.8 41l13.4 13.4-13.4 13.5-13.4-13.5z"/>
		<path id="Layer" class="s1" d="m170.5 359.2l-13.4-13.4 13.4-13.4 13.4 13.4z"/>
		<path id="Layer" class="s1" d="m39.8 269.7l13.4 13.5-13.4 13.4-13.4-13.4z"/>
		<path id="Layer" class="s1" d="m110.3 35.7l21.2 21.2-21.2 21.1-21.2-21.1z"/>
		<path id="Layer" class="s1" d="m241.2 97.3l21.2 21.2-21.2 21.2-21.2-21.2z"/>
	</g>
</svg>