<?xml version="1.0" encoding="UTF-8"?><svg id="a" xmlns="http://www.w3.org/2000/svg" viewBox="0 0 1920 846.16"><defs><style>.b{fill:#32322f;}.c{fill:#dda800;}</style></defs><g><g><path class="c" d="M926.66,507.43c0,3.33-.52,6.23-1.55,8.69-1.04,2.46-2.51,4.52-4.41,6.16-1.91,1.65-4.2,2.87-6.88,3.66-2.68,.8-5.66,1.19-8.91,1.19-1.56,0-3.31-.07-5.27-.19-1.96-.13-3.83-.4-5.61-.81v-37.36c1.78-.41,3.66-.67,5.66-.78,2-.11,3.78-.17,5.33-.17,3.22,0,6.16,.38,8.83,1.14,2.66,.76,4.95,1.94,6.86,3.55,1.91,1.61,3.38,3.65,4.41,6.11,1.04,2.46,1.55,5.39,1.55,8.8Zm-25.65,13.49c.41,.04,.94,.07,1.61,.08,.67,.02,1.57,.03,2.72,.03,4.7,0,8.21-1.19,10.52-3.58,2.31-2.39,3.47-5.73,3.47-10.02s-1.13-7.72-3.39-10.05-5.75-3.5-10.49-3.5c-2.07,0-3.55,.06-4.44,.17v26.87Z"/><path class="c" d="M930.52,512.32c0-2.55,.38-4.79,1.14-6.72,.76-1.92,1.77-3.53,3.03-4.8,1.26-1.28,2.7-2.24,4.33-2.89,1.63-.65,3.29-.97,5-.97,4,0,7.11,1.24,9.35,3.72,2.24,2.48,3.36,6.18,3.36,11.1,0,.37,0,.79-.03,1.25-.02,.46-.05,.88-.08,1.25h-19.15c.18,2.33,1.01,4.14,2.47,5.41,1.46,1.28,3.58,1.92,6.36,1.92,1.63,0,3.12-.15,4.47-.44,1.35-.3,2.42-.61,3.19-.94l.89,5.5c-.37,.19-.88,.38-1.53,.58-.65,.2-1.39,.39-2.22,.56-.83,.17-1.73,.31-2.69,.42-.96,.11-1.94,.17-2.94,.17-2.55,0-4.77-.38-6.66-1.14-1.89-.76-3.44-1.81-4.66-3.16-1.22-1.35-2.13-2.94-2.72-4.78-.59-1.83-.89-3.84-.89-6.02Zm19.49-3c0-.93-.13-1.8-.39-2.64-.26-.83-.64-1.55-1.14-2.17-.5-.61-1.11-1.09-1.83-1.44-.72-.35-1.58-.53-2.58-.53s-1.94,.19-2.72,.58c-.78,.39-1.44,.9-1.97,1.53-.54,.63-.95,1.35-1.25,2.17-.3,.81-.5,1.65-.61,2.5h12.49Zm1.11-23.54l-9.05,8.77-3.33-3,8.16-9.72,4.22,3.94Z"/><path class="c" d="M987.7,512.21c0,2.22-.29,4.26-.86,6.11-.57,1.85-1.4,3.44-2.47,4.77s-2.41,2.37-4.02,3.11c-1.61,.74-3.43,1.11-5.47,1.11-1.37,0-2.63-.17-3.78-.5-1.15-.33-2.09-.7-2.83-1.11v11.27h-6.72v-38.36c1.37-.37,3.05-.72,5.05-1.06,2-.33,4.11-.5,6.33-.5s4.35,.35,6.16,1.05c1.81,.7,3.36,1.71,4.64,3.03,1.28,1.31,2.26,2.91,2.94,4.77,.68,1.87,1.03,3.97,1.03,6.3Zm-6.89,.11c0-3-.68-5.33-2.03-7-1.35-1.67-3.53-2.5-6.52-2.5-.63,0-1.29,.03-1.97,.08-.69,.06-1.36,.18-2.03,.36v16.6c.59,.41,1.38,.79,2.36,1.14,.98,.35,2.03,.53,3.14,.53,2.44,0,4.23-.83,5.36-2.5,1.13-1.67,1.69-3.9,1.69-6.72Z"/><path class="c" d="M1018.87,512.15c0,2.3-.33,4.39-1,6.27-.67,1.89-1.61,3.5-2.83,4.83-1.22,1.33-2.69,2.37-4.41,3.11-1.72,.74-3.62,1.11-5.69,1.11s-3.96-.37-5.66-1.11c-1.7-.74-3.16-1.78-4.39-3.11-1.22-1.33-2.17-2.94-2.86-4.83-.69-1.89-1.03-3.98-1.03-6.27s.34-4.38,1.03-6.25c.68-1.87,1.65-3.47,2.89-4.8,1.24-1.33,2.71-2.36,4.41-3.08s3.57-1.08,5.61-1.08,3.91,.36,5.63,1.08,3.19,1.75,4.41,3.08,2.17,2.93,2.86,4.8c.68,1.87,1.03,3.95,1.03,6.25Zm-5.89-20.71l-2.61,2.94-5.52-4.5-5.47,4.5-2.66-2.94,8.13-7.77,8.13,7.77Zm-1,20.71c0-2.89-.62-5.17-1.86-6.86-1.24-1.68-2.97-2.53-5.19-2.53s-3.95,.84-5.19,2.53c-1.24,1.69-1.86,3.97-1.86,6.86s.62,5.24,1.86,6.94c1.24,1.7,2.97,2.55,5.19,2.55s3.95-.85,5.19-2.55c1.24-1.7,1.86-4.02,1.86-6.94Z"/><path class="c" d="M1023.33,490l6.72-1.11v8.77h10.33v5.61h-10.33v11.83c0,2.33,.37,4,1.11,5,.74,1,2,1.5,3.78,1.5,1.22,0,2.3-.13,3.25-.39,.94-.26,1.69-.5,2.25-.72l1.11,5.33c-.78,.33-1.79,.68-3.05,1.03s-2.74,.53-4.44,.53c-2.07,0-3.8-.28-5.19-.83-1.39-.56-2.49-1.36-3.3-2.42-.81-1.05-1.39-2.33-1.72-3.83-.33-1.5-.5-3.21-.5-5.14v-25.15Z"/><path class="b" d="M1067.47,483.61c1.55,0,2.82,.12,3.8,.36,.98,.24,1.62,.45,1.92,.64l-.72,3.11c-.41-.18-1.01-.38-1.8-.58-.8-.2-1.8-.31-3.03-.31-2.55,0-4.38,.65-5.47,1.94-1.09,1.3-1.64,3.37-1.64,6.22v3h11.55v3.05h-11.55v25.65h-3.61v-31.81c0-3.74,.86-6.55,2.58-8.44,1.72-1.89,4.38-2.83,7.97-2.83Z"/><path class="b" d="M1073.39,512.32c0-2.52,.36-4.71,1.08-6.58,.72-1.87,1.66-3.43,2.83-4.69,1.17-1.26,2.5-2.19,4-2.8s3.04-.92,4.64-.92c3.52,0,6.32,1.15,8.41,3.44,2.09,2.3,3.14,5.83,3.14,10.6,0,.3,0,.59-.03,.89-.02,.3-.05,.57-.08,.83h-20.15c.11,3.52,.98,6.22,2.61,8.11,1.63,1.89,4.22,2.83,7.77,2.83,1.96,0,3.52-.18,4.66-.56,1.15-.37,1.98-.68,2.5-.94l.67,3.11c-.52,.3-1.49,.65-2.91,1.05-1.43,.41-3.1,.61-5.03,.61-2.52,0-4.66-.37-6.44-1.11-1.78-.74-3.24-1.78-4.38-3.11-1.15-1.33-1.98-2.91-2.5-4.75-.52-1.83-.78-3.84-.78-6.02Zm20.38-2.28c-.08-3-.78-5.33-2.11-7-1.33-1.67-3.22-2.5-5.66-2.5-1.3,0-2.45,.26-3.47,.78-1.02,.52-1.91,1.21-2.66,2.08-.76,.87-1.35,1.88-1.78,3.03-.43,1.15-.68,2.35-.75,3.61h16.43Zm-.22-23.43l-9.49,7.72-1.83-2.11,8.77-8.44,2.55,2.83Z"/><path class="b" d="M1126.19,525.81c-1.07,.37-2.44,.72-4.11,1.05s-3.78,.5-6.33,.5c-2.11,0-4.02-.34-5.75-1.03-1.72-.68-3.2-1.67-4.44-2.97-1.24-1.29-2.2-2.87-2.89-4.72-.68-1.85-1.03-3.94-1.03-6.27,0-2.18,.29-4.19,.86-6.02,.57-1.83,1.42-3.41,2.53-4.75s2.47-2.37,4.08-3.11c1.61-.74,3.45-1.11,5.53-1.11,1.89,0,3.52,.27,4.91,.81,1.39,.54,2.4,1.05,3.03,1.53v-15.43l3.61-.67v42.2Zm-3.61-22.6c-.33-.26-.75-.54-1.25-.83-.5-.3-1.08-.57-1.75-.83-.67-.26-1.39-.47-2.16-.64s-1.59-.25-2.44-.25c-1.78,0-3.27,.31-4.47,.94-1.2,.63-2.17,1.47-2.91,2.53-.74,1.05-1.28,2.3-1.61,3.72-.33,1.43-.5,2.93-.5,4.52,0,3.78,.94,6.67,2.83,8.69,1.89,2.02,4.39,3.03,7.5,3.03,1.78,0,3.21-.08,4.3-.25,1.09-.17,1.92-.34,2.47-.53v-20.1Z"/><path class="b" d="M1131.79,512.32c0-2.52,.36-4.71,1.08-6.58,.72-1.87,1.66-3.43,2.83-4.69,1.17-1.26,2.5-2.19,4-2.8s3.04-.92,4.64-.92c3.52,0,6.32,1.15,8.41,3.44,2.09,2.3,3.14,5.83,3.14,10.6,0,.3,0,.59-.03,.89-.02,.3-.05,.57-.08,.83h-20.15c.11,3.52,.98,6.22,2.61,8.11,1.63,1.89,4.22,2.83,7.77,2.83,1.96,0,3.52-.18,4.66-.56,1.15-.37,1.98-.68,2.5-.94l.67,3.11c-.52,.3-1.49,.65-2.91,1.05-1.43,.41-3.1,.61-5.03,.61-2.52,0-4.66-.37-6.44-1.11-1.78-.74-3.24-1.78-4.38-3.11-1.15-1.33-1.98-2.91-2.5-4.75-.52-1.83-.78-3.84-.78-6.02Zm20.38-2.28c-.08-3-.78-5.33-2.11-7-1.33-1.67-3.22-2.5-5.66-2.5-1.3,0-2.45,.26-3.47,.78-1.02,.52-1.91,1.21-2.66,2.08-.76,.87-1.35,1.88-1.78,3.03-.43,1.15-.68,2.35-.75,3.61h16.43Zm-.22-23.43l-9.49,7.72-1.83-2.11,8.77-8.44,2.55,2.83Z"/><path class="b" d="M1171.11,497.44c1.18,0,2.3,.09,3.36,.28,1.06,.19,1.79,.37,2.19,.55l-.72,3.11c-.3-.15-.9-.31-1.8-.47s-2.1-.25-3.58-.25c-1.56,0-2.8,.11-3.75,.33-.94,.22-1.56,.41-1.86,.56v25.15h-3.61v-27.37c.93-.41,2.2-.82,3.83-1.25,1.63-.43,3.61-.64,5.94-.64Z"/><path class="b" d="M1177.69,512.32c0-2.52,.36-4.71,1.08-6.58,.72-1.87,1.66-3.43,2.83-4.69,1.17-1.26,2.5-2.19,4-2.8s3.04-.92,4.64-.92c3.52,0,6.32,1.15,8.41,3.44,2.09,2.3,3.14,5.83,3.14,10.6,0,.3,0,.59-.03,.89-.02,.3-.05,.57-.08,.83h-20.15c.11,3.52,.98,6.22,2.61,8.11,1.63,1.89,4.22,2.83,7.77,2.83,1.96,0,3.52-.18,4.66-.56,1.15-.37,1.98-.68,2.5-.94l.67,3.11c-.52,.3-1.49,.65-2.91,1.05-1.43,.41-3.1,.61-5.03,.61-2.52,0-4.66-.37-6.44-1.11-1.78-.74-3.24-1.78-4.38-3.11-1.15-1.33-1.98-2.91-2.5-4.75-.52-1.83-.78-3.84-.78-6.02Zm20.38-2.28c-.08-3-.78-5.33-2.11-7-1.33-1.67-3.22-2.5-5.66-2.5-1.3,0-2.45,.26-3.47,.78-1.02,.52-1.91,1.21-2.66,2.08-.76,.87-1.35,1.88-1.78,3.03-.43,1.15-.68,2.35-.75,3.61h16.43Zm-.22-23.43l-9.49,7.72-1.83-2.11,8.77-8.44,2.55,2.83Z"/><path class="b" d="M1242.2,525.81c-1.07,.37-2.44,.72-4.11,1.05s-3.78,.5-6.33,.5c-2.11,0-4.02-.34-5.75-1.03-1.72-.68-3.2-1.67-4.44-2.97-1.24-1.29-2.2-2.87-2.89-4.72-.68-1.85-1.03-3.94-1.03-6.27,0-2.18,.29-4.19,.86-6.02,.57-1.83,1.42-3.41,2.53-4.75s2.47-2.37,4.08-3.11c1.61-.74,3.45-1.11,5.53-1.11,1.89,0,3.52,.27,4.91,.81,1.39,.54,2.4,1.05,3.03,1.53v-15.43l3.61-.67v42.2Zm-3.61-22.6c-.33-.26-.75-.54-1.25-.83-.5-.3-1.08-.57-1.75-.83-.67-.26-1.39-.47-2.16-.64s-1.59-.25-2.44-.25c-1.78,0-3.27,.31-4.47,.94-1.2,.63-2.17,1.47-2.91,2.53-.74,1.05-1.28,2.3-1.61,3.72-.33,1.43-.5,2.93-.5,4.52,0,3.78,.94,6.67,2.83,8.69,1.89,2.02,4.39,3.03,7.5,3.03,1.78,0,3.21-.08,4.3-.25,1.09-.17,1.92-.34,2.47-.53v-20.1Z"/><path class="b" d="M1247.8,512.32c0-2.52,.36-4.71,1.08-6.58,.72-1.87,1.66-3.43,2.83-4.69,1.17-1.26,2.5-2.19,4-2.8s3.04-.92,4.64-.92c3.52,0,6.32,1.15,8.41,3.44,2.09,2.3,3.14,5.83,3.14,10.6,0,.3,0,.59-.03,.89-.02,.3-.05,.57-.08,.83h-20.15c.11,3.52,.98,6.22,2.61,8.11,1.63,1.89,4.22,2.83,7.77,2.83,1.96,0,3.52-.18,4.66-.56,1.15-.37,1.98-.68,2.5-.94l.67,3.11c-.52,.3-1.49,.65-2.91,1.05-1.43,.41-3.1,.61-5.03,.61-2.52,0-4.66-.37-6.44-1.11-1.78-.74-3.24-1.78-4.38-3.11-1.15-1.33-1.98-2.91-2.5-4.75-.52-1.83-.78-3.84-.78-6.02Zm20.38-2.28c-.08-3-.78-5.33-2.11-7-1.33-1.67-3.22-2.5-5.66-2.5-1.3,0-2.45,.26-3.47,.78-1.02,.52-1.91,1.21-2.66,2.08-.76,.87-1.35,1.88-1.78,3.03-.43,1.15-.68,2.35-.75,3.61h16.43Z"/><path class="c" d="M918.32,581.33c-1.33,.41-3.01,.78-5.02,1.11-2.02,.33-4.14,.5-6.36,.5s-4.35-.35-6.16-1.05-3.36-1.71-4.64-3.03c-1.28-1.31-2.26-2.91-2.94-4.77-.69-1.87-1.03-3.97-1.03-6.3s.29-4.38,.86-6.25c.57-1.87,1.42-3.47,2.53-4.8,1.11-1.33,2.46-2.36,4.05-3.08,1.59-.72,3.42-1.08,5.5-1.08,1.41,0,2.65,.17,3.72,.5,1.07,.33,2,.7,2.78,1.11v-13.94l6.72-1.11v42.2Zm-19.26-13.71c0,2.96,.7,5.28,2.11,6.97,1.41,1.68,3.35,2.53,5.83,2.53,1.07,0,1.99-.05,2.75-.14,.76-.09,1.38-.19,1.86-.31v-16.66c-.59-.41-1.38-.79-2.36-1.14-.98-.35-2.03-.53-3.14-.53-2.44,0-4.23,.83-5.36,2.5-1.13,1.67-1.69,3.92-1.69,6.77Z"/><path class="c" d="M950.93,567.67c0,2.3-.33,4.39-1,6.27-.67,1.89-1.61,3.5-2.83,4.83-1.22,1.33-2.69,2.37-4.41,3.11-1.72,.74-3.62,1.11-5.69,1.11s-3.96-.37-5.66-1.11c-1.7-.74-3.16-1.78-4.39-3.11-1.22-1.33-2.17-2.94-2.86-4.83-.69-1.89-1.03-3.98-1.03-6.27s.34-4.38,1.03-6.25c.68-1.87,1.65-3.47,2.89-4.8,1.24-1.33,2.71-2.36,4.41-3.08s3.57-1.08,5.61-1.08,3.91,.36,5.63,1.08,3.19,1.75,4.41,3.08,2.17,2.93,2.86,4.8c.68,1.87,1.03,3.95,1.03,6.25Zm-6.88,0c0-2.89-.62-5.17-1.86-6.86-1.24-1.68-2.97-2.53-5.19-2.53s-3.95,.84-5.19,2.53c-1.24,1.69-1.86,3.97-1.86,6.86s.62,5.24,1.86,6.94c1.24,1.7,2.97,2.55,5.19,2.55s3.95-.85,5.19-2.55c1.24-1.7,1.86-4.02,1.86-6.94Z"/><path class="c" d="M955.72,554.12c1.29-.37,2.98-.72,5.05-1.06,2.07-.33,4.37-.5,6.88-.5,2.37,0,4.35,.32,5.94,.97,1.59,.65,2.86,1.55,3.8,2.72s1.61,2.57,2,4.22c.39,1.65,.58,3.45,.58,5.41v16.32h-6.72v-15.27c0-1.55-.1-2.88-.3-3.97-.2-1.09-.54-1.98-1-2.66-.46-.68-1.09-1.18-1.89-1.5-.8-.31-1.77-.47-2.91-.47-.85,0-1.74,.06-2.67,.17-.93,.11-1.61,.2-2.05,.28v23.43h-6.72v-28.09Z"/><path class="c" d="M984.45,567.84c0-2.55,.38-4.79,1.14-6.72,.76-1.92,1.77-3.53,3.03-4.8,1.26-1.28,2.7-2.24,4.33-2.89,1.63-.65,3.29-.97,5-.97,4,0,7.11,1.24,9.35,3.72,2.24,2.48,3.36,6.18,3.36,11.1,0,.37,0,.79-.03,1.25-.02,.46-.05,.88-.08,1.25h-19.15c.18,2.33,1.01,4.14,2.47,5.41,1.46,1.28,3.58,1.92,6.36,1.92,1.63,0,3.12-.15,4.47-.44,1.35-.3,2.42-.61,3.19-.94l.89,5.5c-.37,.19-.88,.38-1.53,.58-.65,.2-1.39,.39-2.22,.56-.83,.17-1.73,.31-2.69,.42-.96,.11-1.94,.17-2.94,.17-2.55,0-4.77-.38-6.66-1.14-1.89-.76-3.44-1.81-4.66-3.16-1.22-1.35-2.13-2.94-2.72-4.78-.59-1.83-.89-3.84-.89-6.02Zm19.49-3c0-.93-.13-1.8-.39-2.64-.26-.83-.64-1.55-1.14-2.17-.5-.61-1.11-1.09-1.83-1.44-.72-.35-1.58-.53-2.58-.53s-1.94,.19-2.72,.58c-.78,.39-1.44,.9-1.97,1.53-.54,.63-.95,1.35-1.25,2.17-.3,.81-.5,1.65-.61,2.5h12.49Zm1.11-23.54l-9.05,8.77-3.33-3,8.16-9.72,4.22,3.94Z"/><path class="c" d="M1014.04,567.84c0-2.55,.38-4.79,1.14-6.72,.76-1.92,1.77-3.53,3.03-4.8,1.26-1.28,2.7-2.24,4.33-2.89,1.63-.65,3.29-.97,5-.97,4,0,7.11,1.24,9.35,3.72,2.24,2.48,3.36,6.18,3.36,11.1,0,.37,0,.79-.03,1.25-.02,.46-.05,.88-.08,1.25h-19.15c.18,2.33,1.01,4.14,2.47,5.41,1.46,1.28,3.58,1.92,6.36,1.92,1.63,0,3.12-.15,4.47-.44,1.35-.3,2.42-.61,3.19-.94l.89,5.5c-.37,.19-.88,.38-1.53,.58-.65,.2-1.39,.39-2.22,.56-.83,.17-1.73,.31-2.69,.42-.96,.11-1.94,.17-2.94,.17-2.55,0-4.77-.38-6.66-1.14-1.89-.76-3.44-1.81-4.66-3.16-1.22-1.35-2.13-2.94-2.72-4.78-.59-1.83-.89-3.84-.89-6.02Zm19.49-3c0-.93-.13-1.8-.39-2.64-.26-.83-.64-1.55-1.14-2.17-.5-.61-1.11-1.09-1.83-1.44-.72-.35-1.58-.53-2.58-.53s-1.94,.19-2.72,.58c-.78,.39-1.44,.9-1.97,1.53-.54,.63-.95,1.35-1.25,2.17-.3,.81-.5,1.65-.61,2.5h12.49Z"/><path class="c" d="M1052.57,577.39c1.78,0,3.07-.21,3.89-.64,.81-.43,1.22-1.16,1.22-2.19,0-.96-.44-1.76-1.3-2.39-.87-.63-2.31-1.31-4.3-2.05-1.22-.44-2.34-.92-3.36-1.42-1.02-.5-1.9-1.08-2.64-1.75s-1.32-1.47-1.75-2.41c-.43-.94-.64-2.1-.64-3.47,0-2.66,.98-4.77,2.94-6.3,1.96-1.54,4.63-2.3,7.99-2.3,1.7,0,3.33,.16,4.89,.47s2.72,.62,3.5,.92l-1.22,5.44c-.74-.33-1.68-.64-2.83-.92-1.15-.28-2.48-.42-4-.42-1.37,0-2.48,.23-3.33,.69-.85,.46-1.28,1.18-1.28,2.14,0,.48,.08,.91,.25,1.28,.17,.37,.45,.71,.86,1.03,.41,.31,.94,.63,1.61,.94,.67,.32,1.48,.64,2.44,.97,1.59,.59,2.94,1.18,4.05,1.75s2.03,1.22,2.75,1.94,1.25,1.55,1.58,2.47,.5,2.04,.5,3.33c0,2.78-1.03,4.88-3.08,6.3s-4.99,2.14-8.8,2.14c-2.55,0-4.61-.21-6.16-.64-1.55-.43-2.65-.77-3.28-1.03l1.17-5.61c1,.41,2.19,.8,3.58,1.17,1.39,.37,2.97,.56,4.75,.56Z"/><path class="c" d="M1105.03,581.33c-1.33,.41-3.01,.78-5.02,1.11-2.02,.33-4.14,.5-6.36,.5s-4.35-.35-6.16-1.05-3.36-1.71-4.64-3.03c-1.28-1.31-2.26-2.91-2.94-4.77-.69-1.87-1.03-3.97-1.03-6.3s.29-4.38,.86-6.25c.57-1.87,1.42-3.47,2.53-4.8,1.11-1.33,2.46-2.36,4.05-3.08,1.59-.72,3.42-1.08,5.5-1.08,1.41,0,2.65,.17,3.72,.5,1.07,.33,2,.7,2.78,1.11v-13.94l6.72-1.11v42.2Zm-19.26-13.71c0,2.96,.7,5.28,2.11,6.97,1.41,1.68,3.35,2.53,5.83,2.53,1.07,0,1.99-.05,2.75-.14,.76-.09,1.38-.19,1.86-.31v-16.66c-.59-.41-1.38-.79-2.36-1.14-.98-.35-2.03-.53-3.14-.53-2.44,0-4.23,.83-5.36,2.5-1.13,1.67-1.69,3.92-1.69,6.77Z"/><path class="c" d="M1109.86,567.84c0-2.55,.38-4.79,1.14-6.72,.76-1.92,1.77-3.53,3.03-4.8,1.26-1.28,2.7-2.24,4.33-2.89,1.63-.65,3.29-.97,5-.97,4,0,7.11,1.24,9.35,3.72,2.24,2.48,3.36,6.18,3.36,11.1,0,.37,0,.79-.03,1.25-.02,.46-.05,.88-.08,1.25h-19.15c.18,2.33,1.01,4.14,2.47,5.41,1.46,1.28,3.58,1.92,6.36,1.92,1.63,0,3.12-.15,4.47-.44,1.35-.3,2.42-.61,3.19-.94l.89,5.5c-.37,.19-.88,.38-1.53,.58-.65,.2-1.39,.39-2.22,.56-.83,.17-1.73,.31-2.69,.42-.96,.11-1.94,.17-2.94,.17-2.55,0-4.77-.38-6.66-1.14-1.89-.76-3.44-1.81-4.66-3.16-1.22-1.35-2.13-2.94-2.72-4.78-.59-1.83-.89-3.84-.89-6.02Zm19.49-3c0-.93-.13-1.8-.39-2.64-.26-.83-.64-1.55-1.14-2.17-.5-.61-1.11-1.09-1.83-1.44-.72-.35-1.58-.53-2.58-.53s-1.94,.19-2.72,.58c-.78,.39-1.44,.9-1.97,1.53-.54,.63-.95,1.35-1.25,2.17-.3,.81-.5,1.65-.61,2.5h12.49Z"/><path class="c" d="M1169.55,559.23c-.56-.18-1.32-.38-2.3-.58-.98-.2-2.12-.31-3.42-.31-.74,0-1.53,.08-2.36,.22-.83,.15-1.42,.28-1.75,.39v23.26h-6.72v-27.65c1.29-.48,2.91-.93,4.86-1.36,1.94-.43,4.1-.64,6.47-.64,.44,0,.96,.03,1.55,.08,.59,.06,1.18,.13,1.78,.22,.59,.09,1.17,.2,1.72,.33,.56,.13,1,.25,1.33,.36l-1.17,5.66Z"/><path class="c" d="M1171.51,567.84c0-2.55,.38-4.79,1.14-6.72,.76-1.92,1.77-3.53,3.03-4.8,1.26-1.28,2.7-2.24,4.33-2.89,1.63-.65,3.29-.97,5-.97,4,0,7.11,1.24,9.35,3.72,2.24,2.48,3.36,6.18,3.36,11.1,0,.37,0,.79-.03,1.25-.02,.46-.05,.88-.08,1.25h-19.15c.18,2.33,1.01,4.14,2.47,5.41,1.46,1.28,3.58,1.92,6.36,1.92,1.63,0,3.12-.15,4.47-.44,1.35-.3,2.42-.61,3.19-.94l.89,5.5c-.37,.19-.88,.38-1.53,.58-.65,.2-1.39,.39-2.22,.56-.83,.17-1.73,.31-2.69,.42-.96,.11-1.94,.17-2.94,.17-2.55,0-4.77-.38-6.66-1.14-1.89-.76-3.44-1.81-4.66-3.16-1.22-1.35-2.13-2.94-2.72-4.78-.59-1.83-.89-3.84-.89-6.02Zm19.49-3c0-.93-.13-1.8-.39-2.64-.26-.83-.64-1.55-1.14-2.17-.5-.61-1.11-1.09-1.83-1.44-.72-.35-1.58-.53-2.58-.53s-1.94,.19-2.72,.58c-.78,.39-1.44,.9-1.97,1.53-.54,.63-.95,1.35-1.25,2.17-.3,.81-.5,1.65-.61,2.5h12.49Z"/><path class="c" d="M1201.1,567.73c0-2.15,.33-4.15,1-6.02,.67-1.87,1.62-3.49,2.86-4.86,1.24-1.37,2.75-2.44,4.53-3.22,1.78-.78,3.77-1.17,6-1.17,2.74,0,5.33,.5,7.77,1.5l-1.44,5.5c-.78-.33-1.66-.61-2.64-.83-.98-.22-2.03-.33-3.14-.33-2.63,0-4.63,.82-6,2.47-1.37,1.65-2.05,3.97-2.05,6.97s.65,5.17,1.94,6.86c1.29,1.68,3.48,2.53,6.55,2.53,1.15,0,2.28-.11,3.39-.33,1.11-.22,2.07-.5,2.89-.83l.94,5.55c-.74,.37-1.86,.7-3.36,1-1.5,.3-3.04,.44-4.64,.44-2.48,0-4.64-.38-6.47-1.14-1.83-.76-3.35-1.81-4.55-3.16-1.2-1.35-2.1-2.96-2.69-4.83-.59-1.87-.89-3.9-.89-6.08Z"/><path class="c" d="M1227.17,582.22v-41.97l6.72-1.11v14.38c.74-.26,1.6-.48,2.58-.67,.98-.18,1.95-.28,2.91-.28,2.33,0,4.27,.32,5.8,.97,1.54,.65,2.77,1.55,3.69,2.72s1.58,2.56,1.97,4.19c.39,1.63,.58,3.44,.58,5.44v16.32h-6.72v-15.27c0-1.55-.1-2.88-.3-3.97-.2-1.09-.54-1.98-1-2.66-.46-.68-1.08-1.18-1.86-1.5-.78-.31-1.74-.47-2.89-.47-.89,0-1.8,.09-2.72,.28-.93,.19-1.61,.35-2.05,.5v23.1h-6.72Z"/><path class="c" d="M1255.81,567.84c0-2.55,.38-4.79,1.14-6.72,.76-1.92,1.77-3.53,3.03-4.8,1.26-1.28,2.7-2.24,4.33-2.89,1.63-.65,3.29-.97,5-.97,4,0,7.11,1.24,9.35,3.72,2.24,2.48,3.36,6.18,3.36,11.1,0,.37,0,.79-.03,1.25-.02,.46-.05,.88-.08,1.25h-19.15c.18,2.33,1.01,4.14,2.47,5.41,1.46,1.28,3.58,1.92,6.36,1.92,1.63,0,3.12-.15,4.47-.44,1.35-.3,2.42-.61,3.19-.94l.89,5.5c-.37,.19-.88,.38-1.53,.58-.65,.2-1.39,.39-2.22,.56-.83,.17-1.73,.31-2.69,.42-.96,.11-1.94,.17-2.94,.17-2.55,0-4.77-.38-6.66-1.14-1.89-.76-3.44-1.81-4.66-3.16-1.22-1.35-2.13-2.94-2.72-4.78-.59-1.83-.89-3.84-.89-6.02Zm19.49-3c0-.93-.13-1.8-.39-2.64-.26-.83-.64-1.55-1.14-2.17-.5-.61-1.11-1.09-1.83-1.44-.72-.35-1.58-.53-2.58-.53s-1.94,.19-2.72,.58c-.78,.39-1.44,.9-1.97,1.53-.54,.63-.95,1.35-1.25,2.17-.3,.81-.5,1.65-.61,2.5h12.49Z"/><path class="c" d="M1303.38,559.23c-.56-.18-1.32-.38-2.3-.58-.98-.2-2.12-.31-3.42-.31-.74,0-1.53,.08-2.36,.22-.83,.15-1.42,.28-1.75,.39v23.26h-6.72v-27.65c1.29-.48,2.91-.93,4.86-1.36,1.94-.43,4.1-.64,6.47-.64,.44,0,.96,.03,1.55,.08,.59,.06,1.18,.13,1.78,.22,.59,.09,1.17,.2,1.72,.33,.56,.13,1,.25,1.33,.36l-1.17,5.66Z"/><path class="c" d="M1305.31,567.73c0-2.15,.33-4.15,1-6.02,.67-1.87,1.62-3.49,2.86-4.86,1.24-1.37,2.75-2.44,4.53-3.22,1.78-.78,3.77-1.17,6-1.17,2.74,0,5.33,.5,7.77,1.5l-1.44,5.5c-.78-.33-1.66-.61-2.64-.83-.98-.22-2.03-.33-3.14-.33-2.63,0-4.63,.82-6,2.47-1.37,1.65-2.05,3.97-2.05,6.97s.65,5.17,1.94,6.86c1.29,1.68,3.48,2.53,6.55,2.53,1.15,0,2.28-.11,3.39-.33,1.11-.22,2.07-.5,2.89-.83l.94,5.55c-.74,.37-1.86,.7-3.36,1-1.5,.3-3.04,.44-4.64,.44-2.48,0-4.64-.38-6.47-1.14-1.83-.76-3.35-1.81-4.55-3.16-1.2-1.35-2.1-2.96-2.69-4.83-.59-1.87-.89-3.9-.89-6.08Z"/><path class="c" d="M1331.37,582.22v-41.97l6.72-1.11v14.38c.74-.26,1.6-.48,2.58-.67,.98-.18,1.95-.28,2.91-.28,2.33,0,4.27,.32,5.8,.97,1.54,.65,2.77,1.55,3.69,2.72s1.58,2.56,1.97,4.19c.39,1.63,.58,3.44,.58,5.44v16.32h-6.72v-15.27c0-1.55-.1-2.88-.3-3.97-.2-1.09-.54-1.98-1-2.66-.46-.68-1.08-1.18-1.86-1.5-.78-.31-1.74-.47-2.89-.47-.89,0-1.8,.09-2.72,.28-.93,.19-1.61,.35-2.05,.5v23.1h-6.72Z"/><path class="c" d="M1360.01,567.84c0-2.55,.38-4.79,1.14-6.72,.76-1.92,1.77-3.53,3.03-4.8,1.26-1.28,2.7-2.24,4.33-2.89,1.63-.65,3.29-.97,5-.97,4,0,7.11,1.24,9.35,3.72,2.24,2.48,3.36,6.18,3.36,11.1,0,.37,0,.79-.03,1.25-.02,.46-.05,.88-.08,1.25h-19.15c.18,2.33,1.01,4.14,2.47,5.41,1.46,1.28,3.58,1.92,6.36,1.92,1.63,0,3.12-.15,4.47-.44,1.35-.3,2.42-.61,3.19-.94l.89,5.5c-.37,.19-.88,.38-1.53,.58-.65,.2-1.39,.39-2.22,.56-.83,.17-1.73,.31-2.69,.42-.96,.11-1.94,.17-2.94,.17-2.55,0-4.77-.38-6.66-1.14-1.89-.76-3.44-1.81-4.66-3.16-1.22-1.35-2.13-2.94-2.72-4.78-.59-1.83-.89-3.84-.89-6.02Zm19.49-3c0-.93-.13-1.8-.39-2.64-.26-.83-.64-1.55-1.14-2.17-.5-.61-1.11-1.09-1.83-1.44-.72-.35-1.58-.53-2.58-.53s-1.94,.19-2.72,.58c-.78,.39-1.44,.9-1.97,1.53-.54,.63-.95,1.35-1.25,2.17-.3,.81-.5,1.65-.61,2.5h12.49Z"/></g><g><path class="b" d="M893.87,456.64v-90.36h42.73c9.98,0,18.76,1.85,26.33,5.55,7.57,3.7,13.49,8.91,17.75,15.62,4.26,6.71,6.39,14.72,6.39,24.01s-2.13,17.19-6.39,23.95c-4.26,6.76-10.18,11.98-17.75,15.68-7.57,3.7-16.35,5.55-26.33,5.55h-42.73Zm25.56-20.4h16.14c5.16,0,9.66-.97,13.49-2.9,3.83-1.94,6.82-4.78,8.97-8.52,2.15-3.74,3.23-8.2,3.23-13.36s-1.08-9.72-3.23-13.42c-2.15-3.7-5.14-6.52-8.97-8.46-3.83-1.94-8.33-2.9-13.49-2.9h-16.14v49.57Z"/><polygon class="b" points="1070.57 386.03 1070.57 366.28 999.7 366.28 999.7 456.64 1025.26 456.64 1025.26 425.66 1065.15 425.66 1065.15 405.91 1025.26 405.91 1025.26 386.03 1070.57 386.03"/><path class="b" d="M1082.19,456.64v-90.36h42.73c9.98,0,18.76,1.85,26.33,5.55,7.57,3.7,13.49,8.91,17.75,15.62,4.26,6.71,6.39,14.72,6.39,24.01s-2.13,17.19-6.39,23.95c-4.26,6.76-10.18,11.98-17.75,15.68-7.57,3.7-16.35,5.55-26.33,5.55h-42.73Zm25.56-20.4h16.14c5.16,0,9.66-.97,13.49-2.9,3.83-1.94,6.82-4.78,8.97-8.52,2.15-3.74,3.23-8.2,3.23-13.36s-1.08-9.72-3.23-13.42c-2.15-3.7-5.14-6.52-8.97-8.46-3.83-1.94-8.33-2.9-13.49-2.9h-16.14v49.57Z"/><path class="b" d="M1243.91,456.64h27.37l-19.53-28.45c5.46-2.6,9.74-6.21,12.82-10.85,3.27-4.95,4.91-10.82,4.91-17.62s-1.64-12.84-4.91-17.88c-3.27-5.04-7.9-8.89-13.88-11.55-5.98-2.67-13.1-4-21.36-4h-41.31v90.36h25.56v-24.01h13.95l16.38,24.01Zm-4.19-66.74c2.62,2.32,3.94,5.6,3.94,9.81s-1.31,7.36-3.94,9.68c-2.63,2.32-6.61,3.49-11.94,3.49h-14.2v-26.46h14.2c5.34,0,9.31,1.16,11.94,3.49Z"/></g></g><g><rect class="c" x="749.19" y="434.65" width="42.58" height="42.58" transform="translate(548.07 -411.27) rotate(45)"/><polygon class="c" points="569.04 310.75 533.79 346 565.15 377.37 538.93 403.59 561.46 426.12 533.79 453.79 569.04 489.04 604.3 453.79 576.62 426.12 599.15 403.59 572.93 377.37 604.3 346 569.04 310.75"/><rect class="c" x="624.61" y="498.99" width="29.95" height="29.95" transform="translate(550.76 -301.71) rotate(45)"/><g><polygon class="c" points="703.97 481.93 729.92 455.97 701.44 427.49 720.99 407.93 699.81 386.75 678.63 407.93 698.18 427.49 669.7 455.97 695.66 481.93 664.56 513.03 699.81 548.28 735.07 513.03 703.97 481.93"/><polygon class="c" points="643.74 430.02 674.84 398.92 648.37 372.46 674.84 345.99 639.58 310.74 604.33 345.99 630.79 372.46 604.33 398.92 635.43 430.02 609.47 455.98 639.58 486.09 669.69 455.98 643.74 430.02"/></g><rect class="c" x="755.5" y="382.9" width="29.95" height="29.95" transform="translate(507.01 -428.27) rotate(45)"/><rect class="c" x="630.1" y="555.87" width="18.97" height="18.97" transform="translate(587.1 -286.66) rotate(45)"/><rect class="c" x="630.1" y="234.1" width="18.97" height="18.97" transform="translate(359.57 -380.91) rotate(45)"/><rect class="c" x="630.1" y="593.09" width="18.97" height="18.97" transform="translate(613.41 -275.76) rotate(45)"/><rect class="c" x="760.99" y="515.8" width="18.97" height="18.97" transform="translate(597.1 -390.96) rotate(45)"/><rect class="c" x="559.56" y="271.96" width="18.97" height="18.97" transform="translate(365.68 -319.94) rotate(45)"/><rect class="c" x="690.33" y="563.29" width="18.97" height="18.97" transform="translate(789.64 1472.64) rotate(-135)"/><rect class="c" x="559.56" y="500.66" width="18.97" height="18.97" transform="translate(527.39 -252.95) rotate(45)"/><rect class="c" x="624.61" y="268.89" width="29.95" height="29.95" transform="translate(388.05 -369.11) rotate(45)"/><rect class="c" x="755.5" y="330.55" width="29.95" height="29.95" transform="translate(469.99 -443.61) rotate(45)"/></g></svg>