<svg version="1.2" xmlns="http://www.w3.org/2000/svg" viewBox="0 0 1442 386" width="1442" height="386"><style>.a{fill:#fbfafa}.b{fill:#dea900}</style><path fill-rule="evenodd" class="a" d="m118.3 156v19.9h39.9v19.8h-39.9v30.9h-25.5v-90.3h70.8v19.7zm96.5 46.6h-14v24h-25.5v-90.3h41.3q12.4 0 21.4 4 8.9 4 13.8 11.5 4.9 7.6 4.9 17.9 0 10.2-4.9 17.6-4.6 7-12.8 10.9l19.5 28.4h-27.3zm0.2-46.2h-14.2v26.5h14.2q8 0 12-3.5 3.9-3.5 3.9-9.7 0-6.3-3.9-9.8-4-3.5-12-3.5zm148.5 25.1q0 13.8-6.4 23.9-6.4 10.2-17.7 15.7-11.4 5.6-26.3 5.6h-42.8v-90.4h42.8q14.9 0 26.3 5.5 11.3 5.6 17.7 15.7 6.4 10 6.4 24zm-25.8 0q0-7.9-3.2-13.5-3.2-5.5-9-8.4-5.7-2.9-13.5-2.9h-16.1v49.6h16.1q7.8 0 13.5-2.9 5.8-3 9-8.6 3.2-5.6 3.2-13.3zm78 21.1h-14v24.1h-25.5v-90.4h41.3q12.4 0 21.3 4 9 4 13.9 11.5 4.9 7.6 4.9 17.9 0 10.2-4.9 17.6-4.6 7-12.8 10.9l19.5 28.5h-27.4zm0.3-46.3h-14.2v26.5h14.2q8 0 11.9-3.5 4-3.5 4-9.7 0-6.3-4-9.8-3.9-3.5-11.9-3.5zm501.3 70.3v-90.4h42.7q15 0 26.3 5.5 11.4 5.6 17.8 15.7 6.4 10 6.4 24 0 13.8-6.4 23.9-6.4 10.2-17.8 15.7-11.3 5.6-26.3 5.6c0 0-42.7 0-42.7 0zm25.5-20.4h16.2q7.7 0 13.5-2.9 5.7-2.9 8.9-8.6 3.3-5.6 3.3-13.3 0-7.9-3.3-13.4-3.2-5.6-8.9-8.5-5.8-2.9-13.5-2.9h-16.2c0 0 0 49.6 0 49.6zm105.9-50.3v19.9h39.8v19.8h-39.8v31h-25.6v-90.4h70.9v19.7zm56.9 70.7v-90.4h42.7q15 0 26.4 5.5 11.3 5.6 17.7 15.7 6.4 10 6.4 24 0 13.8-6.4 23.9-6.4 10.2-17.7 15.7-11.4 5.6-26.4 5.6c0 0-42.7 0-42.7 0zm25.6-20.4h16.1q7.7 0 13.5-2.9 5.7-2.9 9-8.6 3.2-5.6 3.2-13.3 0-7.9-3.2-13.4-3.3-5.6-9-8.5-5.8-2.9-13.5-2.9h-16.1c0 0 0 49.6 0 49.6zm119.7-3.6h-13.9v24h-25.6v-90.4h41.3q12.4 0 21.4 4 9 4 13.9 11.6 4.9 7.5 4.9 17.8 0 10.2-4.9 17.7-4.6 6.9-12.8 10.8l19.5 28.5h-27.4zm0.3-46.3h-14.2v26.5h14.2q8 0 11.9-3.5 3.9-3.5 3.9-9.7 0-6.3-3.9-9.8-3.9-3.5-11.9-3.5z"/><path class="b" d="m793.8 195.8l30.1 30.1-30.1 30.2-30.1-30.2z"/><path class="b" d="m592.4 80.8l-35.3 35.2 31.4 31.4-26.2 26.2 22.5 22.5-27.7 27.7 35.3 35.2 35.2-35.2-27.7-27.7 22.6-22.5-26.2-26.2 31.3-31.4z"/><path class="b" d="m662.9 262.8l21.2 21.2-21.2 21.1-21.2-21.1z"/><path class="b" d="m727.3 251.9l25.9-25.9-28.4-28.5 19.5-19.6-21.2-21.2-21.1 21.2 19.5 19.6-28.5 28.5 26 25.9-31.1 31.1 35.2 35.3 35.3-35.3zm-60.2-51.9l31.1-31.1-26.5-26.4 26.5-26.5-35.3-35.3-35.2 35.3 26.4 26.5-26.4 26.4 31.1 31.1-26 26 30.1 30.1 30.1-30.1z"/><path class="b" d="m793.8 146.7l21.2 21.2-21.2 21.2-21.2-21.2z"/><path class="b" d="m662.9 321.9l13.4 13.5-13.4 13.4-13.4-13.4z"/><path class="b" d="m662.9 0.2l13.4 13.4-13.4 13.4-13.4-13.4z"/><path class="b" d="m662.9 359.2l13.4 13.4-13.4 13.4-13.4-13.4z"/><path class="b" d="m793.8 281.9l13.4 13.4-13.4 13.4-13.4-13.4z"/><path class="b" d="m592.4 38l13.4 13.4-13.4 13.5-13.5-13.5z"/><path class="b" d="m723.1 356.2l-13.4-13.4 13.4-13.4 13.4 13.4z"/><path class="b" d="m592.4 266.7l13.4 13.4-13.4 13.5-13.5-13.5z"/><path class="b" d="m662.9 32.7l21.2 21.2-21.2 21.1-21.2-21.1z"/><path class="b" d="m793.8 94.3l21.2 21.2-21.2 21.2-21.2-21.2z"/><path fill-rule="evenodd" class="a" d="m0.3 296.6v-38.5h21.9v3.3h-18.2v13.5h16.1v3.3h-16.1v18.4c0 0-3.7 0-3.7 0zm24.3-14.4q0-3.8 1.1-6.6 1.1-2.8 2.8-4.7 1.8-1.8 4-2.8 2.3-0.9 4.7-0.9 5.2 0 8.4 3.5 3.1 3.4 3.1 10.6 0 0.4 0 0.8-0.1 0.5-0.1 0.9h-20.1q0.1 5.2 2.6 8.1 2.4 2.8 7.7 2.8 3 0 4.7-0.6 1.7-0.5 2.5-0.9l0.6 3.1q-0.7 0.4-2.9 1.1-2.1 0.6-5 0.6-3.8 0-6.4-1.1-2.7-1.2-4.4-3.2-1.7-1.9-2.5-4.7-0.8-2.7-0.8-6zm20.4-2.3q-0.1-4.5-2.1-7-2-2.5-5.7-2.5-1.9 0-3.4 0.8-0.4 0.2-0.8 0.4-0.3 0.3-0.7 0.5-0.3 0.3-0.6 0.6-0.3 0.3-0.6 0.6-0.3 0.3-0.6 0.7-0.2 0.3-0.4 0.7-0.3 0.4-0.4 0.8-0.2 0.4-0.4 0.8-0.1 0.5-0.3 0.9-0.1 0.4-0.2 0.9-0.1 0.4-0.1 0.9-0.1 0.5-0.1 0.9zm32.3 15.8q-1.6 0.5-4.1 1-2.4 0.5-6.3 0.5-3.1 0-5.7-1-2.6-1-4.4-3-1.9-1.9-2.9-4.7-1.1-2.8-1.1-6.3 0-3.2 0.9-6 0.9-2.7 2.5-4.7 0.4-0.5 0.9-1 0.5-0.4 1-0.8 0.5-0.4 1.1-0.7 0.5-0.3 1.1-0.6 2.4-1.1 5.5-1.1 2.8 0 4.9 0.8 2.1 0.8 3 1.5v-15.4l3.6-0.7zm-3.6-22.5q-0.3-0.3-0.7-0.5-0.3-0.3-0.7-0.5-0.4-0.2-0.8-0.4-0.3-0.1-0.7-0.3-1-0.4-2.2-0.6-1.2-0.3-2.5-0.3-2.6 0-4.4 1-1.8 0.9-2.9 2.5-1.1 1.6-1.6 3.7-0.2 0.5-0.3 1.1-0.1 0.6-0.1 1.1-0.1 0.6-0.1 1.2 0 0.5 0 1.1 0 5.7 2.8 8.7 2.8 3 7.5 3 2.6 0 4.3-0.2 1.6-0.3 2.4-0.6zm9.2 9.1q0-3.7 1.1-6.5 1.1-2.8 2.9-4.7 1.7-1.9 3.9-2.8 2.3-0.9 4.7-0.9 5.2 0 8.4 3.4 3.1 3.4 3.1 10.6 0 0.4 0 0.9-0.1 0.4-0.1 0.8h-20.1q0.1 5.3 2.6 8.1 2.4 2.8 7.7 2.8 3 0 4.7-0.5 1.7-0.6 2.5-1l0.7 3.1q-0.8 0.5-3 1.1-2.1 0.6-5 0.6-3.7 0-6.4-1.1-2.7-1.1-4.4-3.1-1.7-2-2.5-4.8-0.8-2.7-0.8-6zm20.4-2.2q-0.1-4.5-2.1-7-2-2.5-5.7-2.5-1.9 0-3.4 0.7-0.4 0.2-0.8 0.5-0.3 0.2-0.7 0.5-0.3 0.2-0.6 0.5-0.3 0.3-0.6 0.6-0.3 0.4-0.5 0.7-0.3 0.4-0.5 0.8-0.2 0.3-0.4 0.7-0.2 0.4-0.4 0.8-0.1 0.5-0.3 0.9-0.1 0.5-0.2 0.9-0.1 0.5-0.1 0.9-0.1 0.5-0.1 1c0 0 16.4 0 16.4 0zm18.9-12.6q1.8 0 3.4 0.2 1.5 0.3 2.1 0.6l-0.7 3.1q-0.4-0.2-1.8-0.5-1.3-0.2-3.6-0.2-2.3 0-3.7 0.3-1.4 0.3-1.9 0.6v25.1h-3.6v-27.3q1.4-0.7 3.9-1.3 2.4-0.6 5.9-0.6zm17.4-0.1q2.9 0 4.8 0.8 2 0.8 3.2 2.2 1.2 1.4 1.8 3.3 0.5 2 0.5 4.2v18.1q-0.5 0.2-1.6 0.4-1 0.2-2.4 0.4-1.4 0.2-3.1 0.4-0.4 0-0.9 0-0.4 0-0.8 0.1-0.4 0-0.9 0-0.4 0-0.8 0-2.3 0-4.2-0.5-1.9-0.5-3.4-1.6-1.4-1.1-2.2-2.8-0.8-1.6-0.8-4.1 0-2.3 0.9-4 0.9-1.6 2.5-2.7 1.6-1.1 3.8-1.6 2.2-0.5 4.8-0.5 0.8 0 1.7 0.1 0.4 0 0.8 0.1 0.3 0 0.7 0.1 0.4 0 0.8 0.1 0.4 0.1 0.7 0.2 0.6 0.1 0.8 0.2v-1.7q0-1.5-0.2-3 0-0.3-0.1-0.6-0.1-0.4-0.2-0.7-0.2-0.3-0.3-0.6-0.2-0.3-0.4-0.6-0.7-1.1-2.1-1.8-1.3-0.7-3.5-0.7-3.2 0-4.8 0.4-1.5 0.5-2.2 0.7l-0.5-3.1q0.9-0.5 2.9-0.9 2-0.3 4.7-0.3zm0.4 26.7q0.4 0 0.9 0 0.4 0 0.9 0 0.5-0.1 0.9-0.1 0.5 0 0.9-0.1 0.4 0 0.7 0 0.4-0.1 0.7-0.1 0.3 0 0.7-0.1 0.3-0.1 0.6-0.1v-10.1q-0.6-0.3-1.9-0.6-1.3-0.3-3.7-0.3-1.3 0-2.7 0.2-0.4 0-0.7 0.1-0.4 0.1-0.7 0.2-0.3 0.1-0.7 0.2-0.3 0.2-0.6 0.3-0.3 0.2-0.6 0.4-0.2 0.2-0.5 0.4-0.3 0.2-0.5 0.5-0.2 0.2-0.4 0.5-0.8 1.1-0.8 2.9 0 1.6 0.6 2.7 0.5 1.1 1.5 1.8 0.9 0.7 2.3 1 1.3 0.3 3.1 0.3zm20.2-26.1h11.4v3.1h-11.4v15.2q0 2.5 0.4 4 0.4 1.5 1.2 2.3 0.2 0.2 0.4 0.4 0.2 0.2 0.5 0.3 0.2 0.2 0.5 0.3 0.2 0.1 0.5 0.1 1.1 0.3 2.4 0.3 2.3 0 3.7-0.5 1.4-0.5 2.1-1l0.9 3q-0.8 0.5-2.7 1.2-1.9 0.6-4.2 0.6-2.7 0-4.5-0.7-1.8-0.7-2.9-2.1-1-1.4-1.5-3.5-0.4-2.1-0.4-5v-26.4l3.6-0.7zm13.9 14.3q0-3.7 1.1-6.5 1.1-2.8 2.8-4.7 1.8-1.9 4-2.8 2.3-0.9 4.7-0.9 5.2 0 8.4 3.4 3.1 3.4 3.1 10.6 0 0.4 0 0.9-0.1 0.4-0.1 0.8h-20.1q0.1 5.3 2.6 8.1 2.4 2.8 7.7 2.8 3 0 4.7-0.5 1.7-0.6 2.5-1l0.7 3.1q-0.8 0.5-3 1.1-2.1 0.6-5 0.6-3.7 0-6.4-1.1-2.7-1.1-4.4-3.1-1.7-2-2.5-4.8-0.8-2.7-0.8-6zm20.4-2.2q-0.1-4.5-2.1-7-2-2.5-5.7-2.5-1.9 0-3.4 0.8-0.4 0.1-0.8 0.4-0.3 0.2-0.7 0.5-0.3 0.2-0.6 0.5-0.3 0.3-0.6 0.6-0.3 0.4-0.5 0.7-0.3 0.4-0.5 0.8-0.2 0.3-0.4 0.7-0.2 0.4-0.4 0.9-0.1 0.4-0.3 0.8-0.1 0.5-0.2 0.9-0.1 0.5-0.1 0.9-0.1 0.5-0.1 1zm32.4 15.7q-1.7 0.6-4.1 1.1-2.5 0.5-6.4 0.5-3.1 0-5.7-1.1-2.6-1-4.4-2.9-1.9-2-2.9-4.7-1.1-2.8-1.1-6.3 0-3.3 0.9-6 0.9-2.8 2.5-4.8 0.4-0.5 0.9-0.9 0.5-0.5 1-0.8 0.5-0.4 1.1-0.8 0.5-0.3 1.1-0.6 2.4-1.1 5.5-1.1 2.9 0 4.9 0.8 2.1 0.8 3.1 1.5v-15.4l3.6-0.6zm-3.6-22.6q-0.4-0.3-0.8-0.5-0.3-0.2-0.7-0.4-0.4-0.2-0.8-0.4-0.3-0.2-0.7-0.4-1-0.3-2.2-0.6-1.2-0.2-2.4-0.2-2.7 0-4.5 0.9-1.8 0.9-2.9 2.5-1.1 1.6-1.6 3.7-0.2 0.6-0.2 1.2-0.1 0.5-0.2 1.1-0.1 0.5-0.1 1.1 0 0.6 0 1.2 0 5.6 2.8 8.6 2.8 3.1 7.5 3.1 2.6 0 4.3-0.3 1.6-0.2 2.5-0.5z"/><path fill-rule="evenodd" class="b" d="m257 257.7q8.4 0 12.8 3.1 4.4 3 4.4 9.3 0 7.8-7.7 10.6 1 1.3 2.3 3.1 0.8 1 1.5 2 0.7 1.1 1.4 2.1 0.6 1 1.3 2.1 0.6 1.1 1.2 2.1 0.3 0.6 0.6 1.1 0.3 0.6 0.6 1.1 0.3 0.6 0.6 1.1 0.2 0.6 0.5 1.2h-7.8q-0.3-0.6-0.6-1.1-0.2-0.5-0.5-1-0.3-0.5-0.6-1-0.3-0.5-0.6-1-0.3-0.5-0.6-1-0.3-0.5-0.6-0.9-0.3-0.5-0.6-1-0.3-0.5-0.7-1-0.3-0.5-0.6-0.9-0.3-0.5-0.6-0.9-0.3-0.5-0.6-0.9-0.3-0.5-0.6-0.9-0.3-0.4-0.6-0.8-0.3-0.4-0.5-0.7-0.3-0.4-0.6-0.8-0.3-0.4-0.6-0.7-0.8 0-1.3 0h-4.5v14.6h-7v-37.9q2.6-0.6 5.5-0.8 0.6 0 1.3 0 0.6-0.1 1.3-0.1 0.6 0 1.2 0 0.7-0.1 1.3-0.1zm0.5 6.1q-2.2 0-4.1 0.2v12.4h3.1q2.5 0 4.5-0.3 1.9-0.3 3.2-1 1.3-0.7 2-1.9 0.7-1.3 0.7-3.1 0-1.8-0.7-3-0.2-0.3-0.4-0.6-0.2-0.3-0.4-0.5-0.3-0.3-0.6-0.5-0.2-0.2-0.5-0.4-1.3-0.7-3-1-0.5-0.1-0.9-0.1-0.5-0.1-1-0.1-0.4-0.1-0.9-0.1-0.5 0-1 0zm20.4 18.4q0-3.8 1.1-6.7 1.1-2.9 3-4.8 0.5-0.5 1-0.9 0.5-0.4 1-0.8 0.6-0.3 1.2-0.6 0.5-0.4 1.2-0.6 0.5-0.2 1.2-0.4 0.6-0.2 1.2-0.3 0.6-0.1 1.3-0.2 0.6-0.1 1.2-0.1 6 0 9.4 3.8 3.3 3.7 3.3 11 0 0.6 0 1.3 0 0.7-0.1 1.2h-19.1q0.3 3.5 2.5 5.4 2.2 2 6.3 2 2.5 0 4.5-0.5 2-0.4 3.2-0.9l0.9 5.5q-0.6 0.2-1.6 0.5-0.9 0.3-2.2 0.6-1.2 0.2-2.7 0.4-1.4 0.2-2.9 0.2-3.8 0-6.7-1.2-2.8-1.1-4.6-3.1-1.9-2-2.7-4.8-0.9-2.7-0.9-6zm19.4-3q0-1.4-0.4-2.6-0.3-1.3-1.1-2.2-0.2-0.2-0.4-0.4-0.2-0.2-0.4-0.4-0.3-0.2-0.5-0.4-0.3-0.1-0.5-0.2-1.1-0.6-2.6-0.6-1.6 0-2.7 0.6-1.2 0.6-2 1.5-0.2 0.3-0.4 0.5-0.2 0.3-0.3 0.6-0.2 0.2-0.3 0.5-0.1 0.3-0.2 0.6-0.1 0.3-0.2 0.6-0.1 0.3-0.2 0.6-0.1 0.3-0.1 0.7-0.1 0.3-0.1 0.6c0 0 12.4 0 12.4 0zm19.1 12.5q2.6 0 3.8-0.6 1.3-0.6 1.3-2.2 0-1.4-1.3-2.4-1.3-0.9-4.3-2-0.5-0.2-0.9-0.4-0.4-0.1-0.8-0.3-0.5-0.2-0.9-0.4-0.4-0.1-0.8-0.3-1.5-0.8-2.6-1.8-0.3-0.2-0.6-0.5-0.2-0.3-0.4-0.6-0.2-0.3-0.4-0.6-0.2-0.4-0.4-0.7-0.6-1.4-0.6-3.5 0-4 2.9-6.3 3-2.3 8-2.3 2.6 0 4.9 0.5 2.3 0.5 3.5 0.9l-1.2 5.5q-1.1-0.5-2.9-1-1.7-0.4-4-0.4-2 0-3.3 0.7-1.3 0.7-1.3 2.2 0 0.7 0.3 1.2 0.2 0.6 0.9 1.1 0.6 0.4 1.6 0.9 0.3 0.1 0.6 0.3 0.3 0.1 0.6 0.2 0.3 0.1 0.6 0.2 0.3 0.2 0.6 0.3 2.4 0.9 4.1 1.7 1.6 0.9 2.7 2 0.3 0.2 0.5 0.5 0.2 0.3 0.4 0.6 0.2 0.3 0.4 0.6 0.1 0.4 0.3 0.7 0.5 1.4 0.5 3.3 0 4.2-3.1 6.3-3.1 2.2-8.8 2.2-3.8 0-6.1-0.7-2.4-0.6-3.3-1l1.1-5.6q1.5 0.6 3.6 1.2 2.1 0.5 4.8 0.5zm14.6-9.5q0-3.8 1.1-6.7 1.1-2.9 3-4.8 0.5-0.5 1-0.9 0.5-0.4 1-0.8 0.6-0.3 1.1-0.6 0.6-0.4 1.2-0.6 2.5-1 5-1 6 0 9.4 3.8 3.3 3.7 3.3 11 0 0.6 0 1.3 0 0.7-0.1 1.2h-19.1q0.3 3.5 2.5 5.4 2.1 2 6.3 2 2.4 0 4.5-0.5 2-0.4 3.2-0.9l0.8 5.5q-0.5 0.2-1.5 0.5-1 0.3-2.2 0.6-1.2 0.2-2.7 0.4-1.4 0.2-2.9 0.2-3.9 0-6.7-1.2-2.8-1.1-4.6-3.1-1.9-2-2.8-4.8-0.8-2.7-0.8-6zm19.4-3q0-1.4-0.4-2.6-0.4-1.3-1.1-2.2-0.8-0.9-1.8-1.4-1.1-0.6-2.6-0.6-1.6 0-2.7 0.6-0.3 0.2-0.6 0.3-0.2 0.2-0.5 0.4-0.2 0.2-0.5 0.4-0.2 0.2-0.4 0.4-0.2 0.3-0.4 0.5-0.2 0.3-0.3 0.6-0.2 0.2-0.3 0.5-0.1 0.3-0.2 0.6-0.2 0.3-0.3 0.6 0 0.3-0.1 0.6-0.1 0.3-0.2 0.7 0 0.3-0.1 0.6c0 0 12.5 0 12.5 0zm21.4-12.4q3.3 0 5.6 0.9 2.2 0.8 3.6 2.3 1.3 1.5 1.9 3.6 0.6 2.2 0.6 4.7v17.6q-1.5 0.3-4.7 0.8-3.1 0.5-7 0.5-2.7 0-4.8-0.5-2.2-0.5-3.7-1.6-1.5-1.2-2.4-2.9-0.8-1.8-0.8-4.4 0-2.5 0.9-4.2 0.3-0.4 0.6-0.8 0.2-0.4 0.6-0.8 0.3-0.3 0.7-0.6 0.4-0.4 0.8-0.6 1.6-1.1 3.8-1.6 0.6-0.1 1.1-0.2 0.6-0.1 1.2-0.1 0.6-0.1 1.1-0.1 0.6 0 1.2 0 0.6 0 1.2 0 0.7 0 1.3 0.1 0.6 0.1 1.2 0.2 0.6 0.1 1.2 0.3v-1.1q0-0.3 0-0.6 0-0.3 0-0.6-0.1-0.2-0.1-0.5-0.1-0.3-0.2-0.6 0-0.2-0.1-0.5-0.1-0.2-0.2-0.4-0.2-0.3-0.3-0.5-0.2-0.2-0.3-0.4-0.7-0.8-1.9-1.3-1.1-0.4-2.8-0.4-2.3 0-4.3 0.3-1.9 0.4-3.1 0.8l-0.9-5.4q1.3-0.5 3.7-0.9 0.7-0.1 1.3-0.2 0.7-0.1 1.3-0.2 0.7 0 1.3 0 0.7-0.1 1.4-0.1zm0.5 25q3.1 0 4.7-0.3v-7.4q-0.5-0.2-1.6-0.4-0.3 0-0.6 0-0.3-0.1-0.5-0.1-0.3 0-0.6 0-0.3 0-0.6 0-1.1 0-2.3 0.1-0.2 0.1-0.5 0.1-0.2 0.1-0.5 0.2-0.3 0-0.5 0.1-0.3 0.1-0.5 0.3-0.2 0.1-0.4 0.2-0.2 0.1-0.4 0.3-0.2 0.1-0.4 0.3-0.1 0.2-0.3 0.4-0.5 0.8-0.5 2 0 2.4 1.5 3.3 1.5 0.9 4 0.9zm33.8-18.2q-0.9-0.3-2.3-0.6-1.5-0.3-3.4-0.3-1.2 0-2.4 0.2-1.2 0.3-1.7 0.4v23.3h-6.8v-27.7q2-0.7 4.9-1.3 2.9-0.7 6.5-0.7 0.6 0 1.5 0.1 0.9 0.1 1.8 0.3 0.9 0.1 1.7 0.3 0.8 0.2 1.3 0.3zm2 8.5q0-3.2 1-6 1-2.8 2.8-4.8 1.9-2.1 4.6-3.3 2.6-1.1 5.9-1.1 4.1 0 7.8 1.5l-1.4 5.5q-0.4-0.2-0.7-0.3-0.3-0.1-0.6-0.2-0.4-0.1-0.7-0.2-0.3-0.1-0.7-0.2-0.4 0-0.7-0.1-0.4-0.1-0.8-0.1-0.4-0.1-0.8-0.1-0.4 0-0.8 0-3.9 0-6 2.5-2 2.4-2 6.9 0 4.4 1.9 6.9 1.9 2.5 6.5 2.5 0.5 0 0.9 0 0.4 0 0.8-0.1 0.5 0 0.9-0.1 0.4-0.1 0.8-0.1 1.7-0.4 2.9-0.9l0.9 5.6q-1.1 0.5-3.3 1-2.3 0.4-4.6 0.4-3.8 0-6.5-1.1-2.7-1.2-4.5-3.2-1.8-2-2.7-4.8-0.9-2.8-0.9-6.1zm26 14.5v-41.9l6.8-1.1v14.3q1.1-0.4 2.5-0.6 1.5-0.3 2.9-0.3 3.5 0 5.8 1 2.3 0.9 3.7 2.7 1.4 1.7 2 4.2 0.6 2.4 0.6 5.4v16.3h-6.7v-15.2q0-2.4-0.3-4-0.3-1.6-1-2.7-0.2-0.2-0.4-0.4-0.2-0.3-0.5-0.5-0.2-0.2-0.5-0.3-0.2-0.2-0.5-0.3-1.2-0.4-2.9-0.4-1.3 0-2.7 0.2-1.4 0.3-2 0.5v23.1c0 0-6.8 0-6.8 0zm-328.3 36.2q0 5-1.5 8.7-1.6 3.7-4.4 6.1-2.9 2.5-6.9 3.7-4 1.2-8.9 1.2-0.7 0-1.3 0-0.7 0-1.3-0.1-0.7 0-1.3 0-0.7-0.1-1.4-0.1-0.7-0.1-1.4-0.1-0.7-0.1-1.4-0.2-0.7-0.1-1.4-0.2-0.7-0.2-1.4-0.3v-37.3q0.7-0.2 1.4-0.3 0.7-0.1 1.4-0.2 0.8-0.1 1.5-0.2 0.7-0.1 1.4-0.1 0.7 0 1.3-0.1 0.7 0 1.4 0 0.6 0 1.3-0.1 0.6 0 1.3 0 4.8 0 8.8 1.2 4 1.1 6.9 3.5 2.8 2.4 4.4 6.1 1.5 3.7 1.5 8.8zm-25.6 13.5q0.6 0 1.6 0.1 1 0 2.7 0 7.1 0 10.6-3.6 3.4-3.6 3.4-10 0-6.5-3.4-10-3.3-3.5-10.4-3.5-3.1 0-4.5 0.1zm40.2-23.9q3.4 0 5.6 0.8 2.3 0.9 3.7 2.4 1.3 1.4 1.9 3.6 0.6 2.1 0.6 4.7v17.5q-1.6 0.4-4.7 0.8-3.1 0.5-7.1 0.5-2.6 0-4.7-0.5-2.2-0.5-3.7-1.6-1.5-1.1-2.4-2.9-0.9-1.7-0.9-4.4 0-2.4 1-4.2 0.3-0.4 0.5-0.8 0.3-0.4 0.7-0.7 0.3-0.4 0.7-0.7 0.3-0.3 0.8-0.6 1.6-1 3.8-1.5 0.6-0.1 1.1-0.2 0.6-0.1 1.2-0.2 0.6 0 1.1-0.1 0.6 0 1.2 0 0.6 0 1.2 0.1 0.6 0 1.3 0.1 0.6 0 1.2 0.2 0.6 0.1 1.2 0.2v-1.1q0-0.3 0-0.5 0-0.3-0.1-0.6 0-0.3 0-0.6-0.1-0.2-0.2-0.5 0-0.3-0.1-0.5-0.1-0.3-0.2-0.5-0.2-0.2-0.3-0.4-0.2-0.3-0.3-0.5-0.7-0.8-1.9-1.2-1.1-0.5-2.8-0.5-2.3 0-4.3 0.4-1.9 0.3-3.1 0.8l-0.9-5.5q1.3-0.4 3.7-0.9 0.7-0.1 1.3-0.2 0.7 0 1.3-0.1 0.7-0.1 1.3-0.1 0.7 0 1.3 0zm0.6 25q3.1 0 4.7-0.3v-7.5q-0.5-0.1-1.6-0.3-0.3 0-0.6-0.1-0.3 0-0.6 0-0.2 0-0.5-0.1-0.3 0-0.6 0-1.1 0-2.3 0.2-0.2 0-0.5 0.1-0.3 0-0.5 0.1-0.3 0.1-0.5 0.2-0.3 0.1-0.5 0.2-0.9 0.5-1.5 1.3-0.5 0.8-0.5 2 0 2.4 1.5 3.3 1.4 0.9 4 0.9zm16.9-31.9l6.7-1.1v8.7h10.3v5.6h-10.3v11.8q0 3.5 1.1 5 1.1 1.5 3.8 1.5 1.8 0 3.2-0.4 1.5-0.4 2.3-0.7l1.1 5.3q-1.2 0.5-3.1 1-1.8 0.6-4.4 0.6-3.1 0-5.2-0.9-2.1-0.8-3.3-2.4-1.2-1.6-1.7-3.8-0.5-2.2-0.5-5.1zm31.7 6.9q3.3 0 5.6 0.8 2.3 0.9 3.6 2.4 1.4 1.5 2 3.6 0.5 2.1 0.5 4.7v17.6q-1.5 0.3-4.7 0.8-3.1 0.4-7 0.4-2.6 0-4.8-0.5-2.2-0.5-3.7-1.6-1.5-1.1-2.4-2.9-0.8-1.7-0.8-4.3 0-2.5 1-4.3 0.2-0.4 0.5-0.8 0.3-0.4 0.6-0.7 0.3-0.4 0.7-0.7 0.4-0.3 0.8-0.6 1.6-1 3.8-1.5 0.6-0.1 1.2-0.2 0.5-0.1 1.1-0.2 0.6 0 1.2 0 0.5-0.1 1.1-0.1 0.6 0 1.3 0.1 0.6 0 1.2 0.1 0.6 0.1 1.2 0.2 0.6 0.1 1.2 0.2v-1.1q0-0.3 0-0.5 0-0.3 0-0.6-0.1-0.3-0.1-0.5-0.1-0.3-0.1-0.6-0.1-0.2-0.2-0.5-0.1-0.2-0.2-0.5-0.1-0.2-0.3-0.4-0.1-0.2-0.3-0.4-0.7-0.9-1.8-1.3-1.2-0.4-2.9-0.4-2.3 0-4.3 0.3-1.9 0.3-3.1 0.8l-0.8-5.5q1.2-0.4 3.7-0.9 0.6-0.1 1.3-0.1 0.6-0.1 1.3-0.2 0.6 0 1.3-0.1 0.6 0 1.3 0zm0.5 25q3.1 0 4.7-0.3v-7.5q-0.5-0.1-1.6-0.3-0.2 0-0.5-0.1-0.3 0-0.6 0-0.3 0-0.6 0-0.3-0.1-0.6-0.1-1.1 0-2.2 0.2-0.3 0.1-0.6 0.1-0.2 0.1-0.5 0.1-0.2 0.1-0.5 0.2-0.2 0.1-0.5 0.2-0.2 0.1-0.4 0.3-0.2 0.1-0.4 0.3-0.2 0.1-0.4 0.3-0.1 0.2-0.3 0.4-0.5 0.8-0.5 2 0 2.4 1.5 3.3 1.5 0.9 4 0.9zm40.8-34.1q8.4 0 12.8 3.1 4.4 3 4.4 9.3 0 7.8-7.7 10.6 0.3 0.3 0.6 0.7 0.3 0.4 0.6 0.8 0.3 0.4 0.6 0.8 0.3 0.4 0.5 0.8 0.8 1 1.5 2 0.7 1 1.4 2.1 0.6 1 1.3 2.1 0.6 1 1.2 2.1 0.3 0.6 0.6 1.1 0.3 0.5 0.6 1.1 0.3 0.5 0.6 1.1 0.2 0.6 0.5 1.1h-7.8q-0.3-0.5-0.6-1-0.2-0.5-0.5-1-0.3-0.5-0.6-1-0.3-0.5-0.6-1-0.3-0.5-0.6-1-0.3-0.5-0.6-1-0.3-0.5-0.6-1-0.3-0.4-0.7-0.9-0.3-0.5-0.6-0.9-0.3-0.5-0.6-0.9-0.3-0.5-0.6-0.9-0.3-0.5-0.6-0.9-0.3-0.4-0.6-0.8-0.3-0.4-0.5-0.8-0.3-0.3-0.6-0.7-0.3-0.4-0.6-0.8-0.8 0.1-1.3 0.1h-4.5v14.5h-6.9v-37.8q2.5-0.6 5.4-0.8 0.6 0 1.3-0.1 0.6 0 1.3 0 0.6-0.1 1.2-0.1 0.7 0 1.3 0zm0.5 6.1q-2.2 0-4.1 0.1v12.4h3.1q2.5 0 4.5-0.2 1.9-0.3 3.2-1 1.3-0.8 2-2 0.7-1.2 0.7-3.1 0-1.8-0.7-3-0.2-0.3-0.4-0.6-0.2-0.2-0.4-0.5-0.3-0.2-0.5-0.4-0.3-0.2-0.6-0.4-1.3-0.7-3-1-0.5-0.1-0.9-0.2-0.5 0-1-0.1-0.4 0-0.9 0-0.5 0-1 0zm20.4 18.4q0-3.9 1.1-6.7 1.1-2.9 3-4.8 0.5-0.5 1-0.9 0.5-0.4 1-0.8 0.6-0.4 1.2-0.7 0.5-0.3 1.2-0.5 2.4-1 4.9-1 6 0 9.4 3.7 3.3 3.7 3.3 11.1 0 0.6 0 1.3 0 0.7-0.1 1.2h-19.1q0.3 3.5 2.5 5.4 2.2 1.9 6.3 1.9 2.5 0 4.5-0.4 2-0.5 3.2-1l0.9 5.5q-0.6 0.3-1.6 0.6-0.9 0.3-2.2 0.6-1.2 0.2-2.7 0.4-0.3 0-0.7 0.1-0.4 0-0.7 0-0.4 0-0.8 0-0.3 0-0.7 0-3.8 0-6.7-1.1-2.8-1.1-4.6-3.2-1.9-2-2.7-4.7-0.9-2.8-0.9-6zm19.4-3q0-0.4 0-0.7 0-0.3-0.1-0.7 0-0.3-0.1-0.6-0.1-0.3-0.2-0.7-0.3-1.2-1.1-2.1-0.7-0.9-1.8-1.5-1.1-0.5-2.6-0.5-1.6 0-2.7 0.6-0.3 0.1-0.6 0.3-0.2 0.2-0.5 0.4-0.2 0.1-0.5 0.4-0.2 0.2-0.4 0.4-0.2 0.3-0.4 0.5-0.2 0.3-0.3 0.5-0.2 0.3-0.3 0.6-0.1 0.3-0.2 0.6-0.1 0.3-0.2 0.6-0.1 0.3-0.2 0.6-0.1 0.3-0.1 0.6-0.1 0.4-0.1 0.7c0 0 12.4 0 12.4 0zm37.7 2.9q0 3.3-0.9 6.1-0.8 2.7-2.4 4.7-1.7 2-4.1 3.1-2.4 1.1-5.4 1.1-2.1 0-3.8-0.5-1.7-0.5-2.8-1.1v11.3h-6.7v-38.3q2-0.6 5-1.1 0.8-0.1 1.6-0.2 0.8-0.1 1.6-0.2 0.8 0 1.5-0.1 0.8 0 1.6 0 3.5 0 6.2 1.1 2.7 1 4.6 3 1.9 2 3 4.8 1 2.8 1 6.3zm-6.9 0.1q0-4.5-2-7-2-2.5-6.5-2.5-1 0-2 0.1-0.3 0-0.5 0-0.3 0.1-0.5 0.1-0.3 0-0.5 0.1-0.3 0.1-0.5 0.1v16.6q0.9 0.6 2.3 1.1 0.4 0.2 0.8 0.3 0.4 0.1 0.8 0.1 0.4 0.1 0.8 0.1 0.4 0.1 0.8 0.1 3.6 0 5.3-2.5 1.7-2.5 1.7-6.7zm38-0.2q0 3.4-0.9 6.3-1 2.8-2.9 4.8-1.8 2-4.4 3.1-2.6 1.1-5.7 1.1-3.1 0-5.6-1.1-2.6-1.1-4.4-3.1-1.8-2-2.9-4.8-1-2.9-1-6.3 0-3.4 1-6.2 1.1-2.8 2.9-4.8 1.9-2 4.4-3.1 2.6-1.1 5.6-1.1 3.1 0 5.7 1.1 2.5 1.1 4.4 3.1 1.8 2 2.8 4.8 1 2.8 1 6.2zm-6.8 0q0-4.3-1.9-6.9-1.8-2.5-5.2-2.5-3.3 0-5.2 2.5-1.8 2.6-1.8 6.9 0 4.4 1.8 6.9 1.9 2.6 5.2 2.6 3.4 0 5.2-2.6 1.9-2.5 1.9-6.9zm18.9 9.7q2.7 0 3.9-0.6 1.2-0.7 1.2-2.2 0-1.5-1.3-2.4-1.3-1-4.3-2.1-0.4-0.1-0.8-0.3-0.5-0.1-0.9-0.3-0.4-0.2-0.8-0.4-0.4-0.2-0.8-0.4-1.6-0.7-2.7-1.7-0.2-0.3-0.5-0.6-0.2-0.2-0.5-0.5-0.2-0.3-0.4-0.7-0.2-0.3-0.3-0.6-0.6-1.4-0.6-3.5 0-4 2.9-6.3 2.9-2.3 8-2.3 2.5 0 4.9 0.5 2.3 0.4 3.4 0.9l-1.2 5.4q-1.1-0.5-2.8-0.9-1.7-0.4-4-0.4-2 0-3.3 0.7-1.3 0.7-1.3 2.1 0 0.7 0.3 1.3 0.2 0.6 0.8 1 0.6 0.5 1.6 1 0.3 0.1 0.6 0.2 0.3 0.2 0.6 0.3 0.3 0.1 0.6 0.2 0.3 0.1 0.7 0.2 2.3 0.9 4 1.8 1.7 0.8 2.8 1.9 0.2 0.3 0.4 0.6 0.3 0.3 0.5 0.6 0.2 0.3 0.3 0.6 0.2 0.3 0.3 0.7 0.5 1.4 0.5 3.3 0 4.2-3 6.3-3.1 2.1-8.8 2.1-3.9 0-6.2-0.6-2.3-0.6-3.3-1l1.2-5.6q1.5 0.6 3.6 1.1 2.1 0.6 4.7 0.6zm23.4-32.7q0 1.9-1.3 3-1.2 1.1-2.8 1.1-1.8 0-3-1.1-1.2-1.1-1.2-3 0-1.9 1.2-3 1.2-1.1 3-1.1 1.6 0 2.8 1.1 1.3 1.1 1.3 3zm-0.8 37.5h-6.7v-29h6.7zm5.9-36.6l6.8-1.1v8.7h10.3v5.6h-10.3v11.8q-0.1 3.5 1.1 5 1.1 1.5 3.7 1.5 1.9 0 3.3-0.4 1.4-0.3 2.2-0.7l1.1 5.3q-1.1 0.5-3 1.1-1.9 0.5-4.5 0.5-3.1 0-5.1-0.8-2.1-0.9-3.3-2.5-1.3-1.5-1.8-3.8-0.5-2.2-0.5-5.1zm47.3 22.1q0 3.5-1 6.3-1 2.8-2.9 4.8-1.8 2-4.4 3.1-2.5 1.1-5.6 1.1-3.1 0-5.7-1.1-2.5-1.1-4.4-3.1-1.8-2-2.8-4.8-1.1-2.8-1.1-6.3 0-3.4 1.1-6.2 1-2.8 2.9-4.8 1.8-2 4.4-3.1 2.5-1.1 5.6-1.1 3 0 5.6 1.1 2.6 1.1 4.4 3.1 1.8 2 2.8 4.8 1.1 2.8 1.1 6.2zm-6.9 0q0-4.3-1.9-6.8-1.8-2.6-5.1-2.6-3.4 0-5.2 2.6-1.9 2.5-1.9 6.8 0 4.4 1.9 6.9 1.8 2.6 5.2 2.6 3.3 0 5.1-2.6 1.9-2.5 1.9-6.9zm28.2-8.4q-0.8-0.3-2.3-0.6-1.5-0.3-3.4-0.3-1.1 0-2.4 0.2-1.2 0.2-1.7 0.4v23.2h-6.7v-27.6q1.9-0.7 4.8-1.3 3-0.7 6.5-0.7 0.7 0 1.6 0.1 0.8 0.1 1.7 0.2 0.9 0.2 1.7 0.4 0.9 0.2 1.4 0.3zm29.9-6q-4.5 16.5-10.4 29.9-1.2 2.5-2.3 4.3-1.2 1.8-2.6 2.9-0.4 0.3-0.8 0.6-0.4 0.2-0.8 0.4-0.4 0.3-0.8 0.4-0.4 0.2-0.9 0.3-1.7 0.6-4.1 0.6-1.5 0-3-0.4-1.6-0.3-2.3-0.7l1.2-5.4q2 0.8 3.9 0.8 2.6 0 4.1-1.2 1.5-1.3 2.6-3.9-3.2-6.1-6.1-13.3-2.9-7.2-5.2-15.3h7.2q0.1 0.6 0.3 1.3 0.1 0.6 0.3 1.2 0.2 0.7 0.4 1.3 0.1 0.6 0.3 1.2 0.4 1.4 0.9 2.8 0.4 1.4 0.9 2.8 0.5 1.4 1 2.8 0.5 1.4 1 2.7 1 2.8 2.1 5.2 0.5-1.3 0.9-2.6 0.4-1.3 0.9-2.6 0.4-1.4 0.8-2.7 0.3-1.3 0.7-2.6 0.4-1.4 0.7-2.7 0.4-1.4 0.8-2.7 0.3-1.4 0.7-2.7 0.3-1.4 0.6-2.7c0 0 7 0 7 0zm491.2-45.7q0 5-1.6 8.7-1.5 3.7-4.4 6.1-2.8 2.5-6.9 3.7-4 1.2-8.9 1.2-2.3 0-5.2-0.2-0.7-0.1-1.4-0.1-0.7-0.1-1.4-0.2-0.7-0.1-1.4-0.2-0.7-0.2-1.4-0.3v-37.3q0.7-0.2 1.4-0.3 0.7-0.1 1.4-0.2 0.7-0.1 1.4-0.2 0.7-0.1 1.4-0.1 0.7 0 1.4-0.1 0.6 0 1.3 0 0.6 0 1.3-0.1 0.7 0 1.3 0 4.9 0 8.9 1.2 4 1.1 6.8 3.5 2.9 2.4 4.4 6.1 1.6 3.7 1.6 8.8zm-25.6 13.5q0.6 0 1.6 0.1 1 0 2.7 0 7 0 10.5-3.6 3.5-3.6 3.5-10 0-6.5-3.4-10-3.4-3.5-10.5-3.5-3.1 0-4.4 0.1zm29.4-8.6q0-3.8 1.2-6.7 1.1-2.8 3-4.8 0.5-0.4 1-0.8 0.5-0.5 1-0.8 0.6-0.4 1.1-0.7 0.6-0.3 1.2-0.5 0.6-0.3 1.2-0.5 0.6-0.1 1.3-0.3 0.6-0.1 1.2-0.1 0.7-0.1 1.3-0.1 6 0 9.4 3.7 3.3 3.7 3.3 11.1 0 0.5 0 1.2 0 0.7-0.1 1.3h-19.1q0.3 3.5 2.4 5.4 2.2 1.9 6.4 1.9 2.4 0 4.5-0.4 2-0.5 3.1-1l0.9 5.5q-0.5 0.3-1.5 0.6-1 0.3-2.2 0.5-1.3 0.3-2.7 0.5-0.4 0-0.7 0-0.4 0.1-0.8 0.1-0.3 0-0.7 0-0.4 0-0.7 0-3.9 0-6.7-1.1-2.8-1.1-4.6-3.2-1.9-2-2.8-4.7-0.9-2.8-0.9-6.1zm19.5-2.9q0-1.4-0.4-2.7-0.4-1.2-1.1-2.1-0.8-1-1.8-1.5-1.1-0.5-2.6-0.5-1.6 0-2.7 0.6-1.2 0.6-2 1.5-0.2 0.2-0.4 0.5-0.2 0.3-0.3 0.5-0.2 0.3-0.3 0.6-0.2 0.3-0.3 0.6-0.1 0.3-0.2 0.6-0.1 0.3-0.1 0.6-0.1 0.3-0.2 0.6 0 0.3-0.1 0.7c0 0 12.5 0 12.5 0zm1.1-23.6l-9 8.8-3.3-3 8.1-9.7zm36.5 26.4q0 3.3-0.8 6.1-0.9 2.8-2.5 4.8-1.6 2-4 3.1-2.4 1.1-5.5 1.1-2 0-3.7-0.5-1.8-0.5-2.9-1.1v11.2h-6.7v-38.3q2.1-0.5 5.1-1 0.8-0.2 1.5-0.3 0.8-0.1 1.6-0.1 0.8-0.1 1.6-0.1 0.8 0 1.6 0 3.4 0 6.2 1 2.7 1.1 4.6 3 1.9 2 2.9 4.8 1 2.8 1 6.3zm-6.8 0.1q0-4.5-2.1-7-2-2.5-6.5-2.5-0.9 0-1.9 0.1-1.1 0.1-2.1 0.4v16.6q0.9 0.6 2.4 1.1 0.4 0.1 0.8 0.2 0.3 0.1 0.7 0.2 0.4 0.1 0.8 0.1 0.4 0 0.8 0 3.7 0 5.4-2.5 1.7-2.5 1.7-6.7zm38-0.2q0 3.5-1 6.3-1 2.8-2.8 4.8-0.5 0.5-1 1-0.5 0.4-1.1 0.8-0.5 0.4-1.1 0.7-0.6 0.4-1.2 0.6-2.6 1.1-5.7 1.1-3.1 0-5.7-1.1-2.5-1.1-4.3-3.1-1.9-2-2.9-4.8-1-2.8-1-6.3 0-3.4 1-6.2 1-2.8 2.9-4.8 1.8-2 4.4-3.1 2.5-1 5.6-1 3 0 5.6 1 2.6 1.1 4.4 3.1 1.9 2 2.9 4.8 1 2.8 1 6.2zm-5.9-20.6l-2.6 2.9-5.5-4.5-5.5 4.5-2.6-2.9 8.1-7.8c0 0 8.1 7.8 8.1 7.8zm-1 20.6q0-4.3-1.8-6.8-1.9-2.5-5.2-2.5-3.3 0-5.2 2.5-1.9 2.5-1.9 6.8 0 4.4 1.9 7 1.9 2.5 5.2 2.5 3.3 0 5.2-2.5 1.8-2.6 1.8-7zm11.4-22.1l6.7-1.1v8.8h10.3v5.6h-10.3v11.8q0 3.5 1.1 5 1.1 1.5 3.8 1.5 1.8 0 3.2-0.4 1.4-0.4 2.3-0.7l1.1 5.3q-1.2 0.5-3.1 1-1.9 0.5-4.4 0.5-3.1 0-5.2-0.8-2.1-0.8-3.3-2.4-1.2-1.6-1.7-3.8-0.5-2.3-0.5-5.2z"/><path fill-rule="evenodd" class="a" d="m1091.6 253.5q2.3 0 3.8 0.4 1.5 0.4 1.9 0.6l-0.7 3.1q-0.6-0.2-1.8-0.6-1.2-0.3-3-0.3-3.8 0-5.5 2-1.6 1.9-1.6 6.2v3h11.5v3h-11.5v25.7h-3.6v-31.8q0-5.6 2.6-8.4 2.5-2.9 7.9-2.9zm5.9 28.7q0-3.8 1.1-6.6 1.1-2.8 2.8-4.7 1.8-1.8 4-2.8 2.3-0.9 4.6-0.9 5.3 0 8.4 3.5 3.2 3.4 3.2 10.6 0 0.4-0.1 0.8 0 0.5 0 0.9h-20.2q0.2 5.2 2.6 8.1 2.5 2.8 7.8 2.8 2.9 0 4.7-0.6 1.7-0.5 2.4-0.9l0.7 3.1q-0.8 0.4-2.9 1.1-2.1 0.6-5 0.6-3.8 0-6.4-1.1-2.7-1.2-4.4-3.2-1.7-1.9-2.5-4.7-0.8-2.7-0.8-6zm20.4-2.3q-0.2-4.5-2.2-7-2-2.5-5.6-2.5-2 0-3.5 0.8-0.4 0.2-0.7 0.4-0.4 0.3-0.7 0.5-0.3 0.3-0.6 0.6-0.4 0.3-0.6 0.6-0.3 0.3-0.6 0.7-0.2 0.3-0.5 0.7-0.2 0.4-0.4 0.8-0.2 0.4-0.3 0.8-0.2 0.5-0.3 0.9-0.1 0.4-0.2 0.9-0.1 0.4-0.2 0.9 0 0.5-0.1 0.9zm-0.2-23.4l-9.5 7.7-1.8-2.1 8.8-8.4c0 0 2.5 2.8 2.5 2.8zm32.6 39.2q-1.6 0.5-4.1 1-2.5 0.5-6.3 0.5-3.2 0-5.7-1-2.6-1-4.5-3-1.8-1.9-2.9-4.7-1-2.8-1-6.3 0-3.2 0.9-6 0.8-2.7 2.5-4.7 0.4-0.5 0.9-1 0.4-0.4 1-0.8 0.5-0.4 1-0.7 0.6-0.3 1.2-0.6 2.4-1.1 5.5-1.1 2.8 0 4.9 0.8 2.1 0.8 3 1.5v-15.4l3.6-0.7zm-3.6-22.5q-0.3-0.3-0.7-0.5-0.3-0.3-0.7-0.5-0.4-0.2-0.8-0.4-0.4-0.1-0.8-0.3-0.2-0.1-0.5-0.2-0.3-0.1-0.5-0.2-0.3 0-0.6-0.1-0.3-0.1-0.5-0.1-1.2-0.3-2.5-0.3-2.6 0-4.4 1-1.8 0.9-3 2.5-1.1 1.6-1.6 3.7-0.1 0.5-0.2 1.1-0.1 0.6-0.1 1.1-0.1 0.6-0.1 1.2-0.1 0.5-0.1 1.1 0 5.7 2.9 8.7 2.8 3 7.5 3 2.6 0 4.2-0.2 1.7-0.3 2.5-0.6zm9.2 9.1q0-3.7 1.1-6.5 1.1-2.8 2.8-4.7 1.8-1.9 4-2.8 2.3-0.9 4.6-0.9 5.3 0 8.4 3.4 3.2 3.4 3.2 10.6 0 0.4-0.1 0.9 0 0.4 0 0.8h-20.2q0.2 5.3 2.6 8.1 2.5 2.8 7.8 2.8 2.9 0 4.7-0.5 1.7-0.6 2.5-1l0.6 3.1q-0.8 0.5-2.9 1.1-2.1 0.6-5 0.6-3.8 0-6.4-1.1-2.7-1.1-4.4-3.1-1.7-2-2.5-4.8-0.8-2.7-0.8-6zm20.4-2.2q-0.1-4.5-2.1-7-2-2.5-5.7-2.5-1.9 0-3.5 0.7-0.3 0.2-0.7 0.5-0.4 0.2-0.7 0.5-0.3 0.2-0.6 0.5-0.3 0.3-0.6 0.6-0.3 0.4-0.6 0.7-0.2 0.4-0.5 0.8-0.2 0.3-0.4 0.7-0.2 0.4-0.3 0.8-0.2 0.5-0.3 0.9-0.1 0.5-0.2 0.9-0.1 0.5-0.2 0.9 0 0.5 0 1c0 0 16.4 0 16.4 0zm-0.3-23.4l-9.4 7.7-1.9-2.1 8.8-8.5zm19.1 10.8q1.8 0 3.4 0.3 1.6 0.3 2.2 0.6l-0.8 3.1q-0.4-0.2-1.8-0.5-1.3-0.2-3.5-0.2-2.4 0-3.8 0.3-1.4 0.3-1.8 0.5v25.2h-3.6v-27.4q1.3-0.6 3.8-1.2 2.4-0.7 5.9-0.7zm6.6 14.9q0-3.8 1.1-6.6 1-2.8 2.8-4.7 1.7-1.8 4-2.8 2.2-0.9 4.6-0.9 5.3 0 8.4 3.5 3.1 3.4 3.1 10.6 0 0.4 0 0.8 0 0.5-0.1 0.9h-20.1q0.2 5.2 2.6 8.1 2.4 2.8 7.8 2.8 2.9 0 4.6-0.6 1.7-0.5 2.5-0.9l0.7 3.1q-0.8 0.5-2.9 1.1-2.2 0.6-5 0.6-3.8 0-6.5-1.1-2.6-1.1-4.4-3.1-1.7-2-2.4-4.8-0.8-2.7-0.8-6zm20.3-2.3q-0.1-4.5-2.1-7-2-2.5-5.6-2.5-2 0-3.5 0.8-0.4 0.2-0.7 0.4-0.4 0.3-0.7 0.5-0.4 0.3-0.7 0.6-0.3 0.3-0.6 0.6-0.3 0.3-0.5 0.7-0.3 0.4-0.5 0.7-0.2 0.4-0.4 0.8-0.2 0.4-0.3 0.8-0.2 0.5-0.3 0.9-0.2 0.4-0.2 0.9-0.1 0.4-0.2 0.9-0.1 0.5-0.1 0.9zm-0.2-23.4l-9.5 7.7-1.8-2.1 8.7-8.4c0 0 2.6 2.8 2.6 2.8zm45 39.2q-1.7 0.5-4.1 1-2.5 0.5-6.4 0.5-3.1 0-5.7-1-2.6-1-4.4-3-1.9-1.9-2.9-4.7-1.1-2.8-1.1-6.2 0-3.3 0.9-6.1 0.9-2.7 2.5-4.7 0.4-0.5 0.9-0.9 0.5-0.5 1-0.9 0.5-0.4 1.1-0.7 0.5-0.3 1.1-0.6 2.4-1.1 5.5-1.1 2.8 0 4.9 0.8 2.1 0.8 3.1 1.5v-15.4l3.6-0.7zm-3.6-22.5q-0.4-0.3-0.8-0.5-0.3-0.3-0.7-0.5-0.4-0.2-0.8-0.4-0.3-0.1-0.7-0.3-0.3-0.1-0.6-0.2-0.2-0.1-0.5-0.2-0.3 0-0.6-0.1-0.2-0.1-0.5-0.1-1.2-0.3-2.4-0.3-2.7 0-4.5 1-1.8 0.9-2.9 2.5-1.1 1.6-1.6 3.7-0.2 0.6-0.2 1.1-0.1 0.6-0.2 1.1-0.1 0.6-0.1 1.2 0 0.5 0 1.1 0 5.7 2.8 8.7 2.8 3 7.5 3 2.6 0 4.3-0.2 1.6-0.3 2.5-0.6zm9.1 9.1q0-3.7 1.1-6.5 1.1-2.8 2.9-4.7 1.7-1.9 3.9-2.8 2.3-0.9 4.7-0.9 5.2 0 8.4 3.4 3.1 3.4 3.1 10.6 0 0.4 0 0.9 0 0.4-0.1 0.8h-20.1q0.1 5.3 2.6 8.1 2.4 2.8 7.7 2.8 3 0 4.7-0.5 1.7-0.6 2.5-1l0.7 3.1q-0.8 0.5-3 1.1-2.1 0.6-5 0.6-3.7 0-6.4-1.1-2.7-1.1-4.4-3.1-1.7-2-2.5-4.8-0.8-2.7-0.8-6zm20.4-2.2q-0.1-4.5-2.1-7-2-2.5-5.7-2.5-1.9 0-3.4 0.8-0.4 0.1-0.8 0.4-0.3 0.2-0.7 0.5-0.3 0.2-0.6 0.5-0.3 0.3-0.6 0.6-0.3 0.4-0.5 0.7-0.3 0.4-0.5 0.8-0.2 0.3-0.4 0.7-0.2 0.4-0.4 0.9-0.1 0.4-0.3 0.8-0.1 0.5-0.2 0.9-0.1 0.5-0.1 0.9-0.1 0.5-0.1 1c0 0 16.4 0 16.4 0z"/><path fill-rule="evenodd" class="b" d="m941.9 351.1q-2 0.6-5 1.1-0.8 0.1-1.6 0.2-0.8 0.1-1.6 0.2-0.8 0.1-1.6 0.1-0.8 0-1.6 0-3.4 0-6.1-1-2.7-1.1-4.6-3.1-2-1.9-3-4.7-1-2.8-1-6.3 0-3.5 0.9-6.3 0.8-2.8 2.5-4.8 0.4-0.4 0.8-0.9 0.5-0.4 1-0.8 0.5-0.4 1.1-0.7 0.5-0.4 1.1-0.6 2.4-1.1 5.5-1.1 2.1 0 3.7 0.5 1.6 0.5 2.8 1.1v-13.9l6.7-1.1c0 0 0 42.1 0 42.1zm-19.2-13.7q0 4.5 2.1 7 2.1 2.5 5.8 2.5 1.6 0 2.7-0.1 0.3-0.1 0.5-0.1 0.2 0 0.5-0.1 0.2 0 0.4-0.1 0.3 0 0.5 0v-16.7q-0.9-0.6-2.4-1.1-0.3-0.2-0.7-0.3-0.4-0.1-0.8-0.1-0.4-0.1-0.8-0.1-0.4 0-0.8 0-3.7 0-5.3 2.5-1.7 2.4-1.7 6.7zm51.8 0.1q0 3.4-1 6.2-1 2.9-2.8 4.9-0.5 0.5-1 0.9-0.5 0.5-1.1 0.8-0.5 0.4-1.1 0.8-0.6 0.3-1.2 0.6-2.6 1.1-5.7 1.1-3.1 0-5.7-1.1-2.5-1.1-4.4-3.1-1.8-2-2.8-4.9-1-2.8-1-6.2 0-3.5 1-6.3 1-2.8 2.9-4.8 1.8-2 4.4-3 2.5-1.1 5.6-1.1 3 0 5.6 1.1 2.6 1 4.4 3 1.8 2 2.9 4.8 1 2.8 1 6.3zm-6.9 0q0-4.4-1.8-6.9-1.9-2.5-5.2-2.5-3.4 0-5.2 2.5-1.9 2.5-1.9 6.9 0 4.4 1.9 6.9 1.8 2.6 5.2 2.6 3.3 0 5.2-2.6 1.8-2.5 1.8-6.9zm11.7-13.6q1.9-0.5 5.1-1 3.1-0.5 6.8-0.5 3.6 0 6 1 2.3 0.9 3.8 2.7 1.4 1.7 2 4.2 0.5 2.5 0.5 5.4v16.3h-6.7v-15.2q0-2.4-0.3-4-0.3-1.6-1-2.7-0.1-0.2-0.4-0.5-0.2-0.2-0.4-0.4-0.2-0.2-0.5-0.3-0.3-0.2-0.6-0.3-1.2-0.4-2.9-0.4-1.2 0-2.6 0.1-1.4 0.2-2.1 0.3v23.4h-6.7c0 0 0-28.1 0-28.1zm30.2 0q2-0.5 5.1-1 3.1-0.5 6.9-0.5 3.5 0 5.9 1 2.4 0.9 3.8 2.7 1.4 1.7 2 4.2 0.6 2.5 0.6 5.4v16.3h-6.7v-15.2q0-2.4-0.3-4-0.4-1.6-1-2.7-0.2-0.2-0.4-0.5-0.2-0.2-0.5-0.4-0.2-0.2-0.5-0.3-0.2-0.2-0.5-0.3-1.2-0.4-2.9-0.4-1.3 0-2.7 0.1-0.3 0.1-0.5 0.1-0.3 0-0.5 0.1-0.3 0-0.5 0-0.3 0.1-0.6 0.1v23.4h-6.7zm28.7 13.7q0-3.8 1.2-6.7 1.1-2.9 3-4.8 0.5-0.5 1-0.9 0.5-0.4 1-0.8 0.6-0.3 1.1-0.6 0.6-0.4 1.2-0.6 0.6-0.2 1.2-0.4 0.6-0.2 1.3-0.3 0.6-0.1 1.2-0.2 0.7-0.1 1.3-0.1 6 0 9.4 3.8 3.3 3.7 3.3 11 0 0.6 0 1.3 0 0.7-0.1 1.2h-19.1q0.2 3.5 2.4 5.4 2.2 2 6.4 2 2.4 0 4.4-0.5 2.1-0.4 3.2-0.9l0.9 5.5q-0.5 0.2-1.5 0.5-1 0.3-2.2 0.6-1.3 0.2-2.7 0.4-0.4 0-0.7 0.1-0.4 0-0.8 0-0.3 0.1-0.7 0.1-0.4 0-0.7 0-3.9 0-6.7-1.2-2.8-1.1-4.7-3.1-1.8-2-2.7-4.8-0.9-2.7-0.9-6zm19.5-3q0-1.4-0.4-2.6-0.4-1.3-1.1-2.2-0.8-0.9-1.9-1.4-1-0.6-2.5-0.6-1.6 0-2.7 0.6-1.2 0.6-2 1.5-0.2 0.3-0.4 0.5-0.2 0.3-0.3 0.6-0.2 0.2-0.3 0.5-0.2 0.3-0.3 0.6-0.1 0.3-0.2 0.6-0.1 0.3-0.1 0.6-0.1 0.3-0.2 0.7 0 0.3-0.1 0.6c0 0 12.5 0 12.5 0zm1.1-23.5l-9 8.8-3.4-3 8.2-9.7zm9 26.5q0-3.9 1.1-6.8 1.2-2.8 3.1-4.7 0.4-0.5 0.9-0.9 0.5-0.5 1.1-0.8 0.5-0.4 1.1-0.7 0.6-0.3 1.2-0.5 0.6-0.3 1.2-0.5 0.6-0.1 1.2-0.3 0.7-0.1 1.3-0.1 0.6-0.1 1.3-0.1 6 0 9.3 3.7 3.4 3.7 3.4 11.1 0 0.6-0.1 1.2 0 0.7 0 1.3h-19.2q0.3 3.5 2.5 5.4 2.2 1.9 6.3 1.9 2.5 0 4.5-0.4 2-0.5 3.2-1l0.9 5.5q-0.6 0.3-1.5 0.6-1 0.3-2.3 0.6-1.2 0.2-2.6 0.4-0.4 0-0.8 0-0.3 0.1-0.7 0.1-0.4 0-0.7 0-0.4 0-0.8 0-3.8 0-6.6-1.1-2.9-1.1-4.7-3.2-1.8-2-2.7-4.7-0.9-2.8-0.9-6zm19.5-3q0-0.4-0.1-0.7 0-0.3 0-0.7-0.1-0.3-0.2-0.6 0-0.4-0.1-0.7-0.4-1.2-1.2-2.1-0.7-0.9-1.8-1.5-1.1-0.5-2.6-0.5-1.5 0-2.7 0.6-1.2 0.6-2 1.5-0.2 0.2-0.3 0.5-0.2 0.3-0.4 0.5-0.1 0.3-0.3 0.6-0.1 0.3-0.2 0.6-0.1 0.3-0.2 0.6-0.1 0.3-0.2 0.6-0.1 0.3-0.1 0.6-0.1 0.3-0.1 0.7zm19 12.5q2.7 0 3.9-0.6 1.2-0.7 1.2-2.2 0-1.5-1.3-2.4-1.3-1-4.3-2.1-1.8-0.6-3.3-1.4-1.6-0.7-2.7-1.7-1.1-1-1.7-2.4-0.7-1.5-0.7-3.5 0-4 3-6.3 2.9-2.3 8-2.3 2.5 0 4.8 0.5 2.4 0.4 3.5 0.9l-1.2 5.4q-1.1-0.5-2.8-0.9-1.7-0.4-4-0.4-2 0-3.3 0.7-1.3 0.7-1.3 2.1 0 0.7 0.3 1.3 0.2 0.5 0.8 1 0.6 0.5 1.6 1 0.3 0.1 0.6 0.2 0.3 0.2 0.6 0.3 0.3 0.1 0.6 0.2 0.3 0.1 0.7 0.2 2.3 0.9 4 1.8 1.7 0.8 2.7 1.9 0.3 0.3 0.5 0.6 0.3 0.2 0.5 0.6 0.2 0.3 0.3 0.6 0.2 0.3 0.3 0.7 0.5 1.4 0.5 3.3 0 4.2-3 6.3-3.1 2.1-8.8 2.1-3.9 0-6.2-0.6-2.3-0.6-3.3-1l1.2-5.6q1.5 0.6 3.6 1.1 2.1 0.6 4.7 0.6zm53.1 3.9q-2 0.6-5 1.1-0.8 0.2-1.6 0.3-0.8 0.1-1.6 0.1-0.8 0.1-1.6 0.1-0.8 0-1.6 0-3.4 0-6.1-1-2.8-1.1-4.7-3-1.9-2-2.9-4.8-1-2.8-1-6.3 0-3.4 0.8-6.2 0.9-2.8 2.5-4.8 0.5-0.5 0.9-1 0.5-0.4 1-0.8 0.5-0.4 1.1-0.7 0.5-0.3 1.1-0.6 2.4-1.1 5.5-1.1 2.1 0 3.7 0.5 1.6 0.5 2.8 1.1v-13.9l6.7-1.1c0 0 0 42.1 0 42.1zm-19.3-13.7q0 4.5 2.1 7 2.2 2.5 5.9 2.5 1.6 0 2.7-0.1 0.2-0.1 0.5-0.1 0.2 0 0.4-0.1 0.3 0 0.5 0 0.2-0.1 0.5-0.1v-16.7q-0.9-0.6-2.4-1.1-0.4-0.1-0.8-0.2-0.3-0.1-0.7-0.2-0.4-0.1-0.8-0.1-0.4 0-0.8 0-3.7 0-5.4 2.5-1.7 2.5-1.7 6.7zm24.1 0.3q0-3.9 1.2-6.8 1.1-2.8 3-4.7 0.4-0.5 0.9-0.9 0.5-0.5 1.1-0.8 0.5-0.4 1.1-0.7 0.6-0.3 1.2-0.5 0.6-0.3 1.2-0.5 0.6-0.1 1.3-0.3 0.6-0.1 1.2-0.1 0.7-0.1 1.3-0.1 6 0 9.3 3.7 3.4 3.7 3.4 11.1 0 0.6 0 1.2 0 0.2-0.1 0.4 0 0.1 0 0.3 0 0.1 0 0.3 0 0.1 0 0.3h-19.1q0.2 3.5 2.4 5.4 2.2 1.9 6.4 1.9 2.4 0 4.4-0.4 2.1-0.5 3.2-1l0.9 5.5q-0.5 0.3-1.5 0.6-1 0.3-2.2 0.6-0.4 0-0.7 0.1-0.3 0-0.7 0.1-0.3 0-0.6 0.1-0.4 0-0.7 0.1-0.4 0-0.8 0-0.3 0.1-0.7 0.1-0.4 0-0.7 0-0.4 0-0.8 0-3.8 0-6.6-1.1-2.8-1.1-4.7-3.2-1.8-2-2.7-4.7-0.9-2.8-0.9-6zm19.5-3q0-1.4-0.4-2.7-0.4-1.2-1.1-2.1-0.8-0.9-1.9-1.5-1.1-0.5-2.5-0.5-1.6 0-2.8 0.6-1.1 0.6-1.9 1.5-0.2 0.2-0.4 0.5-0.2 0.3-0.4 0.5-0.1 0.3-0.2 0.6-0.2 0.3-0.3 0.6-0.1 0.3-0.2 0.6-0.1 0.3-0.2 0.6 0 0.3-0.1 0.6-0.1 0.3-0.1 0.7zm40.8-5.6q-0.8-0.3-2.3-0.6-1.5-0.3-3.4-0.3-1.1 0-2.4 0.2-1.2 0.2-1.7 0.4v23.2h-6.7v-27.6q1.9-0.7 4.8-1.4 3-0.6 6.5-0.6 0.7 0 1.6 0.1 0.8 0.1 1.7 0.2 0.9 0.2 1.7 0.3 0.9 0.2 1.4 0.4c0 0-1.2 5.7-1.2 5.7zm2 8.6q0-3.9 1.1-6.8 1.2-2.8 3.1-4.7 0.4-0.5 0.9-0.9 0.5-0.5 1.1-0.8 0.5-0.4 1.1-0.7 0.6-0.3 1.2-0.5 0.6-0.3 1.2-0.5 0.6-0.1 1.2-0.3 0.7-0.1 1.3-0.1 0.6-0.1 1.3-0.1 6 0 9.3 3.7 3.4 3.7 3.4 11.1 0 0.6-0.1 1.2 0 0.7 0 1.3h-19.2q0.3 3.5 2.5 5.4 2.2 1.9 6.3 1.9 2.5 0 4.5-0.4 2-0.5 3.2-1l0.9 5.5q-0.6 0.3-1.5 0.6-1 0.3-2.3 0.6-0.3 0-0.6 0.1-0.4 0-0.7 0.1-0.3 0-0.7 0.1-0.3 0-0.7 0.1-0.3 0-0.7 0-0.4 0.1-0.7 0.1-0.4 0-0.8 0-0.3 0-0.7 0-3.8 0-6.6-1.1-2.9-1.1-4.7-3.2-1.8-2-2.7-4.7-0.9-2.8-0.9-6zm19.5-3q0-0.4-0.1-0.7 0-0.3 0-0.7-0.1-0.3-0.2-0.6 0-0.4-0.1-0.7-0.4-1.2-1.2-2.1-0.7-0.9-1.8-1.5-1.1-0.5-2.6-0.5-1.5 0-2.7 0.6-1.2 0.6-2 1.5-0.2 0.2-0.3 0.5-0.2 0.3-0.4 0.5-0.1 0.3-0.3 0.6-0.1 0.3-0.2 0.6-0.1 0.3-0.2 0.6-0.1 0.3-0.2 0.6-0.1 0.3-0.1 0.6-0.1 0.3-0.1 0.7c0 0 12.5 0 12.5 0zm10.1 2.8q0-3.2 1-6 1-2.8 2.8-4.8 1.9-2.1 4.5-3.2 2.7-1.2 6-1.2 4.1 0 7.8 1.5l-1.5 5.5q-0.3-0.1-0.6-0.3-0.3-0.1-0.7-0.2-0.3-0.1-0.6-0.2-0.3-0.1-0.7-0.1-0.4-0.1-0.8-0.2-0.4-0.1-0.7-0.1-0.4 0-0.8-0.1-0.4 0-0.8 0-4 0-6 2.5-2.1 2.5-2.1 6.9 0 4.4 2 6.9 1.9 2.5 6.5 2.5 1.7 0 3.4-0.3 1.7-0.3 2.9-0.8l0.9 5.5q-1.1 0.6-3.3 1-0.6 0.1-1.2 0.2-0.5 0.1-1.1 0.1-0.6 0.1-1.2 0.1-0.6 0-1.2 0-3.7 0-6.4-1.1-2.8-1.1-4.6-3.2-1.8-2-2.6-4.8-0.9-2.8-0.9-6.1zm26 14.5v-41.9l6.7-1.1v14.4q1.1-0.4 2.6-0.7 1.5-0.3 2.9-0.3 3.5 0 5.8 1 2.3 1 3.7 2.7 1.4 1.7 2 4.2 0.6 2.4 0.6 5.4v16.3h-6.8v-15.2q0.1-2.4-0.3-4-0.3-1.6-1-2.7-0.1-0.2-0.3-0.4-0.2-0.3-0.5-0.4-0.2-0.2-0.5-0.4-0.2-0.1-0.5-0.3-1.2-0.4-2.9-0.4-1.3 0-2.7 0.3-1.4 0.2-2.1 0.5v23zm28.7-14.3q0-3.9 1.1-6.8 1.1-2.8 3-4.7 0.5-0.5 1-0.9 0.5-0.5 1-0.8 0.6-0.4 1.2-0.7 0.5-0.3 1.1-0.5 0.6-0.3 1.3-0.5 0.6-0.1 1.2-0.3 0.6-0.1 1.3-0.1 0.6-0.1 1.2-0.1 6 0 9.4 3.7 3.3 3.7 3.3 11.1 0 0.6 0 1.2 0 0.2 0 0.4 0 0.1 0 0.3 0 0.1-0.1 0.3 0 0.1 0 0.3h-19.1q0.3 3.5 2.5 5.4 2.2 1.9 6.3 1.9 2.4 0 4.5-0.4 2-0.5 3.2-1l0.8 5.5q-0.5 0.3-1.5 0.6-0.3 0.1-0.5 0.2-0.3 0-0.6 0.1-0.3 0.1-0.5 0.1-0.3 0.1-0.6 0.2-0.3 0-0.7 0.1-0.3 0-0.6 0.1-0.4 0-0.7 0.1-0.3 0-0.7 0.1-0.3 0-0.7 0-0.4 0.1-0.7 0.1-0.4 0-0.8 0-0.4 0-0.7 0-3.8 0-6.7-1.1-2.8-1.1-4.6-3.2-1.9-2-2.7-4.7-0.9-2.8-0.9-6zm19.4-3q0-0.4 0-0.7 0-0.3-0.1-0.7 0-0.3-0.1-0.6-0.1-0.4-0.2-0.7-0.4-1.2-1.1-2.1-0.7-0.9-1.8-1.5-1.1-0.5-2.6-0.5-1.6 0-2.7 0.6-1.2 0.6-2 1.5-0.2 0.2-0.4 0.5-0.2 0.3-0.3 0.5-0.2 0.3-0.3 0.6-0.1 0.3-0.2 0.6-0.2 0.3-0.2 0.6-0.1 0.3-0.2 0.6-0.1 0.3-0.2 0.6 0 0.3-0.1 0.7zm28.1-5.6q-0.8-0.3-2.3-0.6-1.5-0.3-3.4-0.3-1.1 0-2.4 0.2-1.2 0.2-1.7 0.4v23.2h-6.7v-27.6q1.9-0.7 4.8-1.4 2.9-0.6 6.5-0.6 0.7 0 1.6 0.1 0.8 0.1 1.7 0.2 0.9 0.2 1.7 0.3 0.9 0.2 1.4 0.4zm1.9 8.5q0-3.2 1-6 1-2.8 2.9-4.9 1.8-2 4.5-3.2 2.7-1.2 6-1.2 4.1 0 7.7 1.5l-1.4 5.5q-0.3-0.1-0.6-0.2-0.4-0.1-0.7-0.2-0.3-0.2-0.7-0.2-0.3-0.1-0.6-0.2-0.4-0.1-0.8-0.2-0.4 0-0.8-0.1-0.4 0-0.8 0-0.4 0-0.8 0-3.9 0-5.9 2.4-2.1 2.5-2.1 7 0 4.3 1.9 6.8 2 2.6 6.6 2.6 1.7 0 3.4-0.4 1.6-0.3 2.8-0.8l1 5.5q-1.1 0.6-3.4 1-0.5 0.1-1.1 0.2-0.6 0.1-1.2 0.2-0.5 0-1.1 0.1-0.6 0-1.2 0-3.7 0-6.5-1.2-2.7-1.1-4.5-3.1-1.8-2-2.7-4.8-0.9-2.8-0.9-6.1zm26.1 14.5v-42l6.7-1.1v14.4q1.1-0.4 2.6-0.7 1.4-0.2 2.9-0.2 3.5 0 5.8 0.9 2.3 1 3.7 2.7 1.4 1.8 1.9 4.2 0.6 2.5 0.6 5.5v16.3h-6.7v-15.3q0-2.3-0.3-4-0.3-1.6-1-2.6-0.2-0.3-0.4-0.5-0.2-0.2-0.4-0.4-0.2-0.2-0.5-0.3-0.3-0.2-0.6-0.3-1.1-0.5-2.8-0.5-1.4 0-2.8 0.3-1.3 0.3-2 0.5v23.1zm28.6-14.4q0-3.8 1.2-6.7 1.1-2.9 3-4.8 0.4-0.5 0.9-0.9 0.5-0.4 1.1-0.8 0.5-0.3 1.1-0.6 0.6-0.3 1.2-0.6 0.6-0.2 1.2-0.4 0.6-0.2 1.3-0.3 0.6-0.1 1.2-0.2 0.7-0.1 1.3-0.1 6 0 9.3 3.8 3.4 3.7 3.4 11 0 0.6 0 1.3 0 0.2-0.1 0.3 0 0.2 0 0.3 0 0.2 0 0.3 0 0.2 0 0.3h-19.1q0.2 3.5 2.4 5.4 2.2 2 6.4 2 2.4 0 4.4-0.5 2.1-0.4 3.2-0.9l0.9 5.5q-0.5 0.2-1.5 0.5-1 0.4-2.2 0.6-0.4 0.1-0.7 0.1-0.3 0.1-0.7 0.1-0.3 0.1-0.6 0.1-0.4 0.1-0.7 0.1-0.4 0.1-0.8 0.1-0.3 0-0.7 0-0.4 0.1-0.7 0.1-0.4 0-0.8 0-3.8 0-6.6-1.2-2.8-1.1-4.7-3.1-1.8-2-2.7-4.8-0.9-2.7-0.9-6zm19.5-3q0-0.3 0-0.7-0.1-0.3-0.1-0.6-0.1-0.4-0.1-0.7-0.1-0.3-0.2-0.6-0.4-1.3-1.1-2.2-0.8-0.9-1.9-1.4-1.1-0.6-2.5-0.6-1.6 0-2.8 0.6-1.1 0.6-1.9 1.5-0.2 0.3-0.4 0.5-0.2 0.3-0.4 0.6-0.1 0.2-0.2 0.5-0.2 0.3-0.3 0.6-0.1 0.3-0.2 0.6-0.1 0.3-0.2 0.6 0 0.4-0.1 0.7-0.1 0.3-0.1 0.6c0 0 12.5 0 12.5 0z"/></svg>