<svg xmlns="http://www.w3.org/2000/svg" width="220.32" height="36" viewBox="0 0 220.32 36"><rect x="89.81" y="-0.17" width="1" height="36" style="fill:#fff"></rect><path d="M.39,2.47H5.82V3.66H1.77V5.72H5.32V6.84H1.77v3.49H.39Z" style="fill:#fff"></path><path d="M11.74,10.33H10.5v-.8h0a1.9,1.9,0,0,1-1.62,1c-1.48,0-2.12-.75-2.12-2.23V4.64H8V8.13c0,1,.41,1.36,1.09,1.36,1.05,0,1.4-.67,1.4-1.55V4.64h1.26Z" style="fill:#fff"></path><path d="M13.06,4.64h1.18v.84l0,0a2.06,2.06,0,0,1,1.78-1,1.8,1.8,0,0,1,2,1.94v3.91H16.8V6.75c0-.89-.38-1.27-1.12-1.27A1.38,1.38,0,0,0,14.31,7v3.36H13.06Z" style="fill:#fff"></path><path d="M24.73,10.33H23.54V9.56h0a1.89,1.89,0,0,1-1.76.92c-1.8,0-2.67-1.33-2.67-3,0-2.05,1.22-3,2.47-3a2.2,2.2,0,0,1,1.89.9h0V2.47h1.26Zm-2.81-.84c1.12,0,1.6-1,1.6-2,0-1.26-.61-2-1.58-2-1.17,0-1.59,1-1.59,2.06S20.83,9.49,21.92,9.49Z" style="fill:#fff"></path><path d="M27.07,7.81A1.51,1.51,0,0,0,28.6,9.49a1.32,1.32,0,0,0,1.38-1h1.19a2.48,2.48,0,0,1-2.57,1.94,2.7,2.7,0,0,1-2.79-3,2.76,2.76,0,1,1,5.44.32ZM30,7a1.46,1.46,0,1,0-2.92,0Z" style="fill:#fff"></path><path d="M37.56,10.33H36.38V9.56h0a1.88,1.88,0,0,1-1.76.92c-1.79,0-2.66-1.33-2.66-3,0-2.05,1.22-3,2.46-3a2.21,2.21,0,0,1,1.9.9h0V2.47h1.25Zm-2.8-.84c1.12,0,1.59-1,1.59-2,0-1.26-.6-2-1.57-2-1.18,0-1.6,1-1.6,2.06S33.67,9.49,34.76,9.49Z" style="fill:#fff"></path><path d="M42,2.47h1.25V5.38h0a2.1,2.1,0,0,1,1.7-.9c1.79,0,2.66,1.37,2.66,3s-.77,3-2.45,3a2,2,0,0,1-2-.93h0v.78H42Zm2.8,3c-1,0-1.59.8-1.59,2s.58,2,1.59,2,1.58-1,1.58-2S45.86,5.48,44.82,5.48Z" style="fill:#fff"></path><path d="M48.08,4.64h1.37l1.49,4.25h0L52.4,4.64h1.31l-2.21,6c-.41,1-.7,1.95-2,1.95a6.15,6.15,0,0,1-.87-.06V11.46a3.81,3.81,0,0,0,.59.08c.58,0,.73-.31.88-.8l.14-.44Z" style="fill:#fff"></path><path d="M56.9,4.64h1V2.93H59.1V4.64h1.13v.93H59.1v3c0,.52,0,.78.61.78a2.28,2.28,0,0,0,.52,0v1c-.27,0-.54.06-.81.06-1.31,0-1.55-.5-1.57-1.45V5.57h-1Z" style="fill:#fff"></path><path d="M61.14,2.47h1.25V5.39h0a2,2,0,0,1,1.71-.91,1.8,1.8,0,0,1,2,1.94v3.91H64.88V6.75c0-.89-.38-1.27-1.12-1.27A1.38,1.38,0,0,0,62.39,7v3.36H61.14Z" style="fill:#fff"></path><path d="M68.43,7.81A1.51,1.51,0,0,0,70,9.49a1.32,1.32,0,0,0,1.38-1h1.19A2.48,2.48,0,0,1,70,10.48a2.7,2.7,0,0,1-2.79-3,2.76,2.76,0,1,1,5.44.32ZM71.35,7a1.46,1.46,0,1,0-2.92,0Z" style="fill:#fff"></path><path d="M17.85,21.33H17l-.21-.93a2.8,2.8,0,0,1-2.36,1.11c-2.35,0-3.76-1.87-3.76-4.11s1.41-4.12,3.76-4.12A3.1,3.1,0,0,1,17.77,16H16.42a1.86,1.86,0,0,0-2-1.56c-1.68,0-2.39,1.48-2.39,3s.71,3,2.39,3a2,2,0,0,0,2.2-2.16H14.51v-1h3.34Z" style="fill:#fff"></path><path d="M18.91,18.48a2.75,2.75,0,0,1,2.87-3,2.75,2.75,0,0,1,2.87,3,2.74,2.74,0,0,1-2.87,3A2.74,2.74,0,0,1,18.91,18.48Zm4.49,0c0-1-.5-2-1.62-2s-1.62,1-1.62,2,.5,2,1.62,2S23.4,19.47,23.4,18.48Z" style="fill:#fff"></path><path d="M25.13,15.64H26.5L27.94,20h0l1.39-4.37h1.3l-2,5.69H27.2Z" style="fill:#fff"></path><path d="M32.38,18.81a1.51,1.51,0,0,0,1.53,1.68,1.32,1.32,0,0,0,1.39-.95h1.19a2.49,2.49,0,0,1-2.58,1.94,2.69,2.69,0,0,1-2.78-3,2.75,2.75,0,1,1,5.43.32ZM35.31,18a1.47,1.47,0,1,0-2.93,0Z" style="fill:#fff"></path><path d="M37.52,15.64H38.7v1.1h0a1.83,1.83,0,0,1,1.66-1.26,2.71,2.71,0,0,1,.47,0v1.21a4.69,4.69,0,0,0-.54-.06c-.85,0-1.54.7-1.54,1.95v2.71H37.52Z" style="fill:#fff"></path><path d="M41.59,15.64h1.19v.84l0,0a2,2,0,0,1,1.77-1,1.8,1.8,0,0,1,2,1.94v3.91H45.33V17.75c0-.89-.38-1.27-1.11-1.27A1.39,1.39,0,0,0,42.84,18v3.36H41.59Z" style="fill:#fff"></path><path d="M47.9,15.64h1.19v.79h0a1.92,1.92,0,0,1,1.75-.95,1.61,1.61,0,0,1,1.6.95,2.07,2.07,0,0,1,1.78-.95,1.67,1.67,0,0,1,1.9,1.92v3.93H54.9V18c0-.9-.06-1.52-1-1.52S52.65,17,52.65,18v3.34H51.4V17.67c0-.78-.24-1.19-1-1.19A1.31,1.31,0,0,0,49.16,18v3.38H47.9Z" style="fill:#fff"></path><path d="M58.45,18.81A1.51,1.51,0,0,0,60,20.49a1.32,1.32,0,0,0,1.39-.95h1.19A2.5,2.5,0,0,1,60,21.48a2.69,2.69,0,0,1-2.78-3,2.75,2.75,0,1,1,5.43.32ZM61.38,18a1.47,1.47,0,1,0-2.93,0Z" style="fill:#fff"></path><path d="M63.59,15.64h1.19v.84l0,0a2,2,0,0,1,1.77-1,1.8,1.8,0,0,1,2,1.94v3.91H67.33V17.75c0-.89-.38-1.27-1.11-1.27A1.39,1.39,0,0,0,64.84,18v3.36H63.59Z" style="fill:#fff"></path><path d="M69.33,15.64h1V13.93h1.25v1.71h1.13v.93H71.53v3c0,.52,0,.78.61.78a2.28,2.28,0,0,0,.52,0v1c-.27,0-.54.06-.81.06-1.31,0-1.55-.5-1.57-1.45V16.57h-1Z" style="fill:#fff"></path><path d="M20.93,29.48a2.75,2.75,0,0,1,2.87-3,2.75,2.75,0,0,1,2.87,3,2.74,2.74,0,0,1-2.87,3A2.75,2.75,0,0,1,20.93,29.48Zm4.49,0c0-1-.5-2-1.62-2s-1.62,1-1.62,2,.5,2,1.62,2S25.42,30.47,25.42,29.48Z" style="fill:#fff"></path><path d="M27.16,26.64h.93v-.47c0-1.46.76-1.7,1.58-1.7a3.31,3.31,0,0,1,.88.08v1a1.94,1.94,0,0,0-.59-.07c-.34,0-.61.12-.61.6v.58h1.06v.93H29.35v4.76H28.09V27.57h-.93Z" style="fill:#fff"></path><path d="M39.72,27a1.87,1.87,0,0,0-2-1.56c-1.68,0-2.39,1.48-2.39,3s.71,3,2.39,3a2,2,0,0,0,2-2.06h1.35a3.22,3.22,0,0,1-3.35,3.18c-2.35,0-3.76-1.87-3.76-4.11s1.41-4.12,3.76-4.12A3.08,3.08,0,0,1,41.1,27Z" style="fill:#fff"></path><path d="M47,31.06c0,.31.06.43.29.43a1.9,1.9,0,0,0,.31,0v.87a3.44,3.44,0,0,1-.79.14c-.51,0-.87-.18-1-.69a2.93,2.93,0,0,1-2,.69,1.73,1.73,0,0,1-2-1.66c0-1.42,1.14-1.65,2.19-1.77s1.71-.07,1.71-.81-.67-.76-1.18-.76c-.7,0-1.2.28-1.25.9H42.08c.09-1.47,1.33-1.9,2.59-1.9,1.11,0,2.28.46,2.28,1.66Zm-1.26-1.58a4.54,4.54,0,0,1-1.54.34c-.54.09-1,.28-1,.94s.71.73,1.15.73,1.41-.29,1.41-1.08Z" style="fill:#fff"></path><path d="M48.3,26.64h1.19v.84l0,0a2,2,0,0,1,1.77-1,1.8,1.8,0,0,1,2,1.94v3.91H52V28.75c0-.89-.38-1.27-1.11-1.27A1.39,1.39,0,0,0,49.55,29v3.36H48.3Z" style="fill:#fff"></path><path d="M59.38,31.06c0,.31.06.43.29.43a1.9,1.9,0,0,0,.31,0v.87a3.44,3.44,0,0,1-.79.14c-.51,0-.87-.18-1-.69a2.93,2.93,0,0,1-2,.69,1.73,1.73,0,0,1-2-1.66c0-1.42,1.14-1.65,2.19-1.77s1.71-.07,1.71-.81-.67-.76-1.18-.76c-.7,0-1.2.28-1.25.9H54.51c.09-1.47,1.33-1.9,2.59-1.9s2.28.46,2.28,1.66Zm-1.26-1.58a4.54,4.54,0,0,1-1.54.34c-.54.09-1,.28-1,.94s.71.73,1.15.73,1.41-.29,1.41-1.08Z" style="fill:#fff"></path><path d="M66.09,32.33H64.9v-.77h0a1.89,1.89,0,0,1-1.76.92c-1.8,0-2.67-1.33-2.67-3,0-2.05,1.22-3,2.47-3a2.2,2.2,0,0,1,1.89.9h0V24.47h1.26Zm-2.81-.84c1.12,0,1.6-1,1.6-2,0-1.26-.61-2-1.58-2-1.17,0-1.59,1-1.59,2.06S62.19,31.49,63.28,31.49Z" style="fill:#fff"></path><path d="M72.21,31.06c0,.31.07.43.3.43a1.9,1.9,0,0,0,.31,0v.87a3.54,3.54,0,0,1-.79.14c-.51,0-.87-.18-1-.69a3,3,0,0,1-2,.69,1.73,1.73,0,0,1-2-1.66c0-1.42,1.13-1.65,2.19-1.77.9-.17,1.71-.07,1.71-.81s-.68-.76-1.18-.76c-.71,0-1.2.28-1.26.9H67.35c.09-1.47,1.33-1.9,2.59-1.9s2.27.46,2.27,1.66ZM71,29.48a4.6,4.6,0,0,1-1.54.34c-.54.09-1,.28-1,.94s.71.73,1.15.73S71,31.2,71,30.41Z" style="fill:#fff"></path><path d="M200.34,5.47c0-.24,0-.86-.74-.85s-5.47.26-5.8.29-.59.36,0,.41,3.12.25,3.12,4.44c0,.28,0,16.17,0,13.72.06,5.09-1.9,6.9-4.09,6.89-3.44,0-5.26-4.12-5.26-8.06,0-4.37,2.44-7.26,5-7.11,3.54.21,4.3,3.11,4.31,8.27V14.91c0,1,0,1.19-.45.83A8.25,8.25,0,0,0,192,14.31a8.13,8.13,0,0,0-8.32,8.24c0,5.91,4.2,8.73,8.54,8.73A7.78,7.78,0,0,0,196.35,30c.6-.37.55-.34.66.21s0,1.17,1.1,1.07,4-.47,4.6-.59.42-.48-.08-.54c-.35,0-2.29.19-2.29-5.81Z" style="fill:#fff"></path><path d="M126.58,5.63c.29.1,1.2.45,1.49-.23a2.51,2.51,0,0,1,.2-.44c.14-.34.81-.62.95.17s.59,7.58.61,7.94a.55.55,0,1,1-1.09.09c-.08-1-2.18-7.94-7.91-7.83-5.11.11-8.47,6-8.27,13.66.18,7.14,3.62,11.07,9.27,11,5.44-.11,7-4.25,7.75-6.78.34-1.05,1.31-.76,1.08.2a9.85,9.85,0,0,1-10,7.91A13.05,13.05,0,0,1,107.4,18.21c-.17-8.67,6.68-13.7,13.45-13.84A13.81,13.81,0,0,1,126.58,5.63Z" style="fill:#fff"></path><rect x="202.42" y="4.76" width="4.12" height="8.23" style="fill:#fff"></rect><path d="M210.81,12.36s-.05-1.39-.05-1.52.11-.19.25-.16l1.43.29-.16-.48c-.07-.21,0-.25.07-.29l1.44-1.26-.23-.11c-.13-.06-.11-.18-.09-.26l.25-.89s-.6.14-.74.16-.15,0-.19-.11l-.18-.43-.76.83c-.14.13-.28,0-.25-.12s.38-1.78.38-1.78l-.52.31c-.13.08-.2.07-.27-.06s-.56-1.09-.56-1.09h0s-.48,1-.55,1.09-.14.14-.27.06l-.52-.31s.36,1.64.38,1.78-.11.25-.26.12l-.75-.83-.18.43c0,.08-.08.13-.19.11l-.77-.16.28.89a.19.19,0,0,1-.1.26l-.23.11,1.45,1.26c.05,0,.14.08.07.29l-.17.48,1.44-.29c.14,0,.25,0,.25.16s0,1.52,0,1.52Z" style="fill:#fff"></path><rect x="214.76" y="4.76" width="4.12" height="8.23" style="fill:#fff"></rect><path d="M140.26,19.06c0,1.72-.27,2.24-1.33,2.76a22.11,22.11,0,0,1-4,1c-1.09.25-4.17,1-4.1,4.26s3.21,4.27,5.42,4.21a6.25,6.25,0,0,0,3.94-1.42c.33-.27.3-.2.57.11a4.84,4.84,0,0,0,3.82,1.35c2.49,0,2.86-1.19,3-1.56s-.33-.75-.51-.31a1.46,1.46,0,0,1-1.37.93c-.48,0-1.9-.12-1.91-3.76V18.65c0-2.45-1.87-4.45-6.81-4.45-5.31,0-5.34,2.62-5.37,3.27s.34,1.51,1.68,1.52,1.49-1.31,1.66-1.81.21-2.14,2.36-2.1c1.84,0,3,1.61,3,3.91l0,7c0,2.43-1.25,4.36-3.1,4.36a2.69,2.69,0,0,1-2.79-2.72,4.73,4.73,0,0,1,2.65-4,17.61,17.61,0,0,1,3-1.41c.17,0,.25,0,.25.41Z" style="fill:#fff"></path><path d="M176.85,19.06c0,1.72-.27,2.24-1.33,2.76a22,22,0,0,1-4,1c-1.1.25-4.18,1-4.11,4.26s3.22,4.27,5.42,4.21a6.25,6.25,0,0,0,3.94-1.42c.33-.27.3-.2.58.11a4.79,4.79,0,0,0,3.81,1.35c2.49,0,2.86-1.19,3-1.56s-.33-.75-.52-.31a1.46,1.46,0,0,1-1.37.93c-.48,0-1.89-.12-1.9-3.76,0,0,0-7.5,0-7.94,0-2.45-1.86-4.45-6.8-4.45-5.32,0-5.34,2.62-5.38,3.27s.35,1.51,1.68,1.52,1.49-1.31,1.66-1.81.22-2.14,2.36-2.1c1.84,0,3,1.61,3,3.91l0,7c0,2.43-1.26,4.36-3.1,4.36A2.69,2.69,0,0,1,171,27.58a4.69,4.69,0,0,1,2.64-4,17.61,17.61,0,0,1,3-1.41c.18,0,.26,0,.26.41Z" style="fill:#fff"></path><path d="M213,19.06c.05,1.72-.26,2.24-1.32,2.76a22.11,22.11,0,0,1-4,1c-1.09.25-4.17,1-4.11,4.26s3.22,4.27,5.42,4.21a6.2,6.2,0,0,0,3.94-1.42c.33-.27.3-.2.58.11a4.81,4.81,0,0,0,3.82,1.35c2.48,0,2.86-1.19,3-1.56s-.33-.75-.52-.31a1.46,1.46,0,0,1-1.37.93c-.48,0-1.89-.12-1.9-3.76V18.65c0-2.45-1.87-4.45-6.81-4.45-5.31,0-5.34,2.62-5.38,3.27S204.64,19,206,19s1.49-1.31,1.66-1.81.21-2.14,2.36-2.1c1.83,0,3,1.61,3,3.91l0,7c0,2.43-1.26,4.36-3.1,4.36a2.69,2.69,0,0,1-2.79-2.72,4.71,4.71,0,0,1,2.65-4,17.2,17.2,0,0,1,3-1.41c.18,0,.26,0,.26.41Z" style="fill:#fff"></path><path d="M160.94,26.9c0,2.73-.79,3.61-1.72,3.8s-.68.58-.28.58h7.32c.6,0,1-.39,0-.63-.65-.15-1.73-.88-1.73-4.31V20c0-1.51.15-5.34-5.81-5.34a7.82,7.82,0,0,0-5,1.69c-.28.21-.39.31-.51-.09s-.26-.83-.35-1.09-.2-.5-.78-.42-4.06.63-4.63.78-.43.39,0,.45,2.29.23,2.28,3.47,0,6.78,0,6.78c0,3.91-.81,4.27-1.53,4.47-.94.26-.5.59-.05.59h7.2c.48,0,.69-.44-.27-.6s-1.83-.71-1.81-3.78c0-.3,0-3.71,0-4.33,0-1.63-.41-6.74,4.2-6.78,3.22-.11,3.53,2.58,3.54,4.36Z" style="fill:#fff"></path></svg>
